G04 EAGLE Gerber RS-274X export*
G75*
%MOMM*%
%FSLAX34Y34*%
%LPD*%
%INBottom Copper*%
%IPPOS*%
%AMOC8*
5,1,8,0,0,1.08239X$1,22.5*%
G01*
%ADD10R,4.600000X1.000000*%
%ADD11R,3.400000X1.600000*%
%ADD12P,1.649562X8X112.500000*%
%ADD13C,1.676400*%
%ADD14C,1.260000*%
%ADD15C,1.879600*%
%ADD16C,3.316000*%
%ADD17C,1.428000*%
%ADD18R,1.750000X0.400000*%
%ADD19R,2.540000X2.540000*%
%ADD20C,1.524000*%
%ADD21P,2.089446X8X22.500000*%
%ADD22C,1.000000*%
%ADD23C,0.400000*%
%ADD24C,0.756400*%
%ADD25C,0.600000*%


D10*
X1411000Y82400D03*
X1411000Y102400D03*
D11*
X1463000Y58400D03*
X1463000Y126400D03*
D12*
X336176Y109614D03*
X336176Y135014D03*
X336176Y160414D03*
X336176Y185814D03*
X310776Y109614D03*
X310776Y135014D03*
X310776Y160414D03*
X310776Y185814D03*
D13*
X867710Y57214D02*
X867710Y40450D01*
X893110Y40450D02*
X893110Y57214D01*
X918510Y57214D02*
X918510Y40450D01*
X759800Y40018D02*
X759800Y56782D01*
X785200Y56782D02*
X785200Y40018D01*
X810600Y40018D02*
X810600Y56782D01*
D14*
X1262200Y275000D03*
X1189800Y275000D03*
X1320800Y23520D03*
X1393200Y23520D03*
X1284200Y17000D03*
X1211800Y17000D03*
D15*
X595000Y205000D03*
X595000Y179600D03*
X595000Y154200D03*
X595000Y128800D03*
X595000Y103400D03*
X1338122Y203100D03*
X1312722Y203100D03*
X1287322Y203100D03*
X1261922Y203100D03*
X1236522Y203100D03*
X1211122Y203100D03*
X1185722Y203100D03*
X1160322Y203100D03*
X1134922Y203100D03*
X1109522Y203100D03*
X1084122Y203100D03*
X1058722Y203100D03*
X1033322Y203100D03*
X1007922Y203100D03*
X1007922Y177700D03*
X1007922Y152300D03*
X1007922Y126900D03*
X1007922Y101500D03*
X1007922Y76100D03*
X1007922Y50700D03*
X1033322Y50700D03*
X1058722Y50700D03*
X1084122Y50700D03*
X1109522Y50700D03*
X1134922Y50700D03*
X1160322Y50700D03*
X1185722Y50700D03*
X1211122Y50700D03*
X1236522Y50700D03*
X1261922Y50700D03*
X1287322Y50700D03*
X1312722Y50700D03*
X1338122Y50700D03*
D16*
X925800Y141400D03*
X925800Y272800D03*
D17*
X952900Y217100D03*
X952900Y197100D03*
X952900Y242100D03*
X952900Y172100D03*
D18*
X1435250Y223900D03*
X1435250Y249900D03*
X1435250Y230400D03*
X1435250Y236900D03*
X1435250Y243400D03*
D19*
X1463500Y274150D03*
X1463500Y199650D03*
D20*
X1108076Y267394D02*
X1108076Y282634D01*
X1133476Y282634D02*
X1133476Y267394D01*
X1158876Y267394D02*
X1158876Y282634D01*
X1322380Y87900D02*
X1337620Y87900D01*
X1337620Y113300D02*
X1322380Y113300D01*
X1322380Y138700D02*
X1337620Y138700D01*
X1337620Y164100D02*
X1322380Y164100D01*
X1187620Y164100D02*
X1172380Y164100D01*
X1172380Y138700D02*
X1187620Y138700D01*
X1187620Y113300D02*
X1172380Y113300D01*
X1172380Y87900D02*
X1187620Y87900D01*
D14*
X1134780Y167192D03*
X1134780Y94792D03*
X1100500Y92808D03*
X1100500Y165208D03*
D21*
X37000Y144000D03*
X37000Y87000D03*
X1000000Y272000D03*
X1423000Y31000D03*
X1410000Y169000D03*
X719000Y21000D03*
X1181000Y23000D03*
D14*
X36000Y174800D03*
X36000Y247200D03*
X1054000Y165200D03*
X1054000Y92800D03*
D22*
X1372400Y102400D02*
X1411000Y102400D01*
X1357900Y87900D02*
X1330000Y87900D01*
X1357900Y87900D02*
X1372400Y102400D01*
D23*
X1160572Y69000D02*
X1134780Y94792D01*
X1241900Y87900D02*
X1330000Y87900D01*
X1223000Y69000D02*
X1160572Y69000D01*
X1223000Y69000D02*
X1241900Y87900D01*
D22*
X1410000Y162000D02*
X1410000Y169000D01*
X1372400Y124400D02*
X1372400Y102400D01*
X1372400Y124400D02*
X1410000Y162000D01*
D24*
X809000Y103000D03*
D25*
X809000Y50000D01*
X810600Y48400D01*
D24*
X959000Y68000D03*
D25*
X962000Y71000D01*
X974000Y111000D02*
X974000Y134000D01*
X992300Y152300D01*
X1007922Y152300D01*
X962000Y99000D02*
X962000Y71000D01*
X962000Y99000D02*
X974000Y111000D01*
D22*
X1381400Y82400D02*
X1411000Y82400D01*
X1369000Y70000D02*
X1325000Y70000D01*
X1312722Y57722D01*
X1312722Y50700D01*
X1369000Y70000D02*
X1381400Y82400D01*
D25*
X992300Y152300D02*
X992300Y153700D01*
X983000Y163000D01*
X983000Y190000D01*
X996100Y203100D02*
X1007922Y203100D01*
X996100Y203100D02*
X983000Y190000D01*
D24*
X1050000Y257000D03*
D25*
X1090062Y257000D01*
X1108076Y275014D01*
D22*
X1369000Y70000D02*
X1393000Y46000D01*
X1408000Y46000D02*
X1423000Y31000D01*
X1408000Y46000D02*
X1393000Y46000D01*
D25*
X1058722Y45722D02*
X1058722Y50700D01*
X1031974Y23952D01*
X962048Y23952D01*
X936000Y50000D01*
X612400Y103400D02*
X595000Y103400D01*
X612400Y103400D02*
X641000Y132000D01*
X885403Y132000D01*
X936000Y81403D01*
X936000Y50000D01*
D24*
X950000Y56000D03*
D25*
X621000Y128800D02*
X595000Y128800D01*
X621000Y128800D02*
X634200Y142000D01*
X948000Y58000D02*
X950000Y56000D01*
X890199Y142000D02*
X634200Y142000D01*
X890199Y142000D02*
X948000Y84199D01*
X948000Y58000D01*
D23*
X936000Y247000D02*
X948000Y259000D01*
X936000Y189000D02*
X952900Y172100D01*
X936000Y189000D02*
X936000Y247000D01*
X948000Y259000D02*
X958000Y259000D01*
D22*
X1180000Y113300D02*
X1180000Y87900D01*
X1180000Y113300D02*
X1241300Y113300D01*
X1264000Y136000D01*
X1327300Y136000D01*
X1330000Y138700D01*
D23*
X1350700Y138700D01*
X1391000Y179000D02*
X1391000Y208000D01*
D24*
X1391000Y208000D03*
X1399000Y253000D03*
D23*
X1401448Y253000D01*
X1391000Y179000D02*
X1350700Y138700D01*
X1404548Y249900D02*
X1435250Y249900D01*
X1404548Y249900D02*
X1401448Y253000D01*
X1399000Y253000D02*
X1393678Y247678D01*
X969322Y247678D01*
X958000Y259000D01*
D25*
X1134922Y43700D02*
X1155622Y23000D01*
X1134922Y43700D02*
X1134922Y50700D01*
X1155622Y23000D02*
X1181000Y23000D01*
X1109522Y48700D02*
X1109522Y50700D01*
X1109522Y48700D02*
X1074726Y13904D01*
X759800Y48400D02*
X759800Y50800D01*
X759800Y48400D02*
X759800Y38200D01*
X784096Y13904D02*
X1074726Y13904D01*
X784096Y13904D02*
X759800Y38200D01*
X759800Y48400D02*
X732400Y21000D01*
X719000Y21000D01*
X1033322Y40322D02*
X1033322Y50700D01*
D24*
X977000Y85000D03*
D25*
X977000Y45000D01*
X1027000Y34000D02*
X1033322Y40322D01*
X1027000Y34000D02*
X988000Y34000D01*
X977000Y45000D01*
D24*
X975000Y231000D03*
D23*
X977582Y233582D01*
X1404582Y233582D01*
X1407900Y236900D02*
X1435250Y236900D01*
X1407900Y236900D02*
X1404582Y233582D01*
X965900Y234900D02*
X965900Y210100D01*
X952900Y197100D01*
X965900Y234900D02*
X971630Y240630D01*
X1400630Y240630D01*
X1403400Y243400D02*
X1435250Y243400D01*
X1403400Y243400D02*
X1400630Y240630D01*
X1189800Y275000D02*
X1169526Y254726D01*
X1133476Y262524D02*
X1133476Y275014D01*
X1141274Y254726D02*
X1169526Y254726D01*
X1141274Y254726D02*
X1133476Y262524D01*
D24*
X1379000Y184000D03*
D23*
X1246622Y184000D01*
X1236522Y194100D01*
X1236522Y203100D01*
D24*
X1285000Y264000D03*
D23*
X1282774Y261774D01*
X1211226Y261774D02*
X1209000Y264000D01*
D24*
X1209000Y264000D03*
D23*
X1211226Y261774D02*
X1282774Y261774D01*
D24*
X891000Y110170D03*
D23*
X880170Y121000D01*
X648000Y121000D02*
X611000Y84000D01*
X133000Y84000D01*
X73000Y144000D02*
X37000Y144000D01*
X648000Y121000D02*
X880170Y121000D01*
X133000Y84000D02*
X73000Y144000D01*
D24*
X1300000Y257000D03*
D23*
X1297726Y254726D01*
X1203274Y254726D02*
X1201000Y257000D01*
D24*
X1201000Y257000D03*
D23*
X1203274Y254726D02*
X1297726Y254726D01*
D24*
X879000Y108000D03*
D23*
X875000Y112000D01*
X659000Y112000D02*
X622000Y75000D01*
X78000Y75000D01*
X66000Y87000D01*
X37000Y87000D01*
X659000Y112000D02*
X875000Y112000D01*
X1411100Y223900D02*
X1435250Y223900D01*
D24*
X984000Y224070D03*
D23*
X1409148Y225852D02*
X1411100Y223900D01*
X985782Y225852D02*
X984000Y224070D01*
X985782Y225852D02*
X1409148Y225852D01*
D25*
X893110Y74890D02*
X893110Y48832D01*
X893110Y74890D02*
X866000Y102000D01*
D24*
X866000Y102000D03*
D23*
X1100500Y165208D02*
X1132796Y165208D01*
X1134780Y167192D01*
X1185722Y193722D02*
X1185722Y203100D01*
X1147588Y180000D02*
X1134780Y167192D01*
X1172000Y180000D02*
X1185722Y193722D01*
X1172000Y180000D02*
X1147588Y180000D01*
X1160322Y203100D02*
X1145422Y218000D01*
X997000Y218000D02*
X993000Y214000D01*
X989000Y214000D01*
X969000Y164000D02*
X961000Y156000D01*
X947000Y156000D01*
X692000Y175000D02*
X638000Y229000D01*
X54200Y229000D01*
X36000Y247200D01*
X997000Y218000D02*
X1145422Y218000D01*
X989000Y214000D02*
X969000Y194000D01*
X969000Y164000D01*
X947000Y156000D02*
X928000Y175000D01*
X692000Y175000D01*
M02*
