G04 EAGLE Gerber RS-274X export*
G75*
%MOMM*%
%FSLAX34Y34*%
%LPD*%
%IN*%
%IPPOS*%
%AMOC8*
5,1,8,0,0,1.08239X$1,22.5*%
G01*
%ADD10C,0.254000*%


D10*
X0Y0D02*
X1494200Y0D01*
X1494200Y300600D01*
X0Y300600D01*
X0Y0D01*
X909620Y223552D02*
X909549Y222473D01*
X909408Y221401D01*
X909197Y220341D01*
X908918Y219297D01*
X908570Y218273D01*
X908156Y217275D01*
X907678Y216305D01*
X907138Y215369D01*
X906537Y214470D01*
X905879Y213613D01*
X905167Y212800D01*
X904402Y212036D01*
X903589Y211323D01*
X902732Y210665D01*
X901833Y210064D01*
X900897Y209524D01*
X899927Y209046D01*
X898929Y208632D01*
X897905Y208284D01*
X896861Y208005D01*
X895801Y207794D01*
X894729Y207653D01*
X893650Y207582D01*
X892570Y207582D01*
X891491Y207653D01*
X890419Y207794D01*
X889359Y208005D01*
X888315Y208284D01*
X887291Y208632D01*
X886293Y209046D01*
X885323Y209524D01*
X884387Y210064D01*
X883488Y210665D01*
X882631Y211323D01*
X881818Y212036D01*
X881054Y212800D01*
X880341Y213613D01*
X879683Y214470D01*
X879082Y215369D01*
X878542Y216305D01*
X878064Y217275D01*
X877650Y218273D01*
X877302Y219297D01*
X877023Y220341D01*
X876812Y221401D01*
X876671Y222473D01*
X876600Y223552D01*
X876600Y224632D01*
X876671Y225711D01*
X876812Y226783D01*
X877023Y227843D01*
X877302Y228887D01*
X877650Y229911D01*
X878064Y230909D01*
X878542Y231879D01*
X879082Y232815D01*
X879683Y233714D01*
X880341Y234571D01*
X881054Y235384D01*
X881818Y236149D01*
X882631Y236861D01*
X883488Y237519D01*
X884387Y238120D01*
X885323Y238660D01*
X886293Y239138D01*
X887291Y239552D01*
X888315Y239900D01*
X889359Y240179D01*
X890419Y240390D01*
X891491Y240531D01*
X892570Y240602D01*
X893650Y240602D01*
X894729Y240531D01*
X895801Y240390D01*
X896861Y240179D01*
X897905Y239900D01*
X898929Y239552D01*
X899927Y239138D01*
X900897Y238660D01*
X901833Y238120D01*
X902732Y237519D01*
X903589Y236861D01*
X904402Y236149D01*
X905167Y235384D01*
X905879Y234571D01*
X906537Y233714D01*
X907138Y232815D01*
X907678Y231879D01*
X908156Y230909D01*
X908570Y229911D01*
X908918Y228887D01*
X909197Y227843D01*
X909408Y226783D01*
X909549Y225711D01*
X909620Y224632D01*
X909620Y223552D01*
X801710Y223120D02*
X801639Y222041D01*
X801498Y220969D01*
X801287Y219909D01*
X801008Y218865D01*
X800660Y217841D01*
X800246Y216843D01*
X799768Y215873D01*
X799228Y214937D01*
X798627Y214038D01*
X797969Y213181D01*
X797257Y212368D01*
X796492Y211604D01*
X795679Y210891D01*
X794822Y210233D01*
X793923Y209632D01*
X792987Y209092D01*
X792017Y208614D01*
X791019Y208200D01*
X789995Y207852D01*
X788951Y207573D01*
X787891Y207362D01*
X786819Y207221D01*
X785740Y207150D01*
X784660Y207150D01*
X783581Y207221D01*
X782509Y207362D01*
X781449Y207573D01*
X780405Y207852D01*
X779381Y208200D01*
X778383Y208614D01*
X777413Y209092D01*
X776477Y209632D01*
X775578Y210233D01*
X774721Y210891D01*
X773908Y211604D01*
X773144Y212368D01*
X772431Y213181D01*
X771773Y214038D01*
X771172Y214937D01*
X770632Y215873D01*
X770154Y216843D01*
X769740Y217841D01*
X769392Y218865D01*
X769113Y219909D01*
X768902Y220969D01*
X768761Y222041D01*
X768690Y223120D01*
X768690Y224200D01*
X768761Y225279D01*
X768902Y226351D01*
X769113Y227411D01*
X769392Y228455D01*
X769740Y229479D01*
X770154Y230477D01*
X770632Y231447D01*
X771172Y232383D01*
X771773Y233282D01*
X772431Y234139D01*
X773144Y234952D01*
X773908Y235717D01*
X774721Y236429D01*
X775578Y237087D01*
X776477Y237688D01*
X777413Y238228D01*
X778383Y238706D01*
X779381Y239120D01*
X780405Y239468D01*
X781449Y239747D01*
X782509Y239958D01*
X783581Y240099D01*
X784660Y240170D01*
X785740Y240170D01*
X786819Y240099D01*
X787891Y239958D01*
X788951Y239747D01*
X789995Y239468D01*
X791019Y239120D01*
X792017Y238706D01*
X792987Y238228D01*
X793923Y237688D01*
X794822Y237087D01*
X795679Y236429D01*
X796492Y235717D01*
X797257Y234952D01*
X797969Y234139D01*
X798627Y233282D01*
X799228Y232383D01*
X799768Y231447D01*
X800246Y230477D01*
X800660Y229479D01*
X801008Y228455D01*
X801287Y227411D01*
X801498Y226351D01*
X801639Y225279D01*
X801710Y224200D01*
X801710Y223120D01*
X1433495Y255900D02*
X1434081Y255966D01*
X1434656Y256097D01*
X1435212Y256292D01*
X1435744Y256548D01*
X1436243Y256862D01*
X1436704Y257229D01*
X1437121Y257646D01*
X1437488Y258107D01*
X1437802Y258606D01*
X1438058Y259138D01*
X1438253Y259694D01*
X1438384Y260269D01*
X1438450Y260855D01*
X1438450Y261445D01*
X1438384Y262031D01*
X1438253Y262606D01*
X1438058Y263162D01*
X1437802Y263694D01*
X1437488Y264193D01*
X1437121Y264654D01*
X1436704Y265071D01*
X1436243Y265438D01*
X1435744Y265752D01*
X1435212Y266008D01*
X1434656Y266203D01*
X1434081Y266334D01*
X1433495Y266400D01*
X1432905Y266400D01*
X1432319Y266334D01*
X1431744Y266203D01*
X1431188Y266008D01*
X1430656Y265752D01*
X1430157Y265438D01*
X1429696Y265071D01*
X1429279Y264654D01*
X1428912Y264193D01*
X1428598Y263694D01*
X1428342Y263162D01*
X1428147Y262606D01*
X1428016Y262031D01*
X1427950Y261445D01*
X1427950Y260855D01*
X1428016Y260269D01*
X1428147Y259694D01*
X1428342Y259138D01*
X1428598Y258606D01*
X1428912Y258107D01*
X1429279Y257646D01*
X1429696Y257229D01*
X1430157Y256862D01*
X1430656Y256548D01*
X1431188Y256292D01*
X1431744Y256097D01*
X1432319Y255966D01*
X1432905Y255900D01*
X1433495Y255900D01*
X1433495Y207400D02*
X1434081Y207466D01*
X1434656Y207597D01*
X1435212Y207792D01*
X1435744Y208048D01*
X1436243Y208362D01*
X1436704Y208729D01*
X1437121Y209146D01*
X1437488Y209607D01*
X1437802Y210106D01*
X1438058Y210638D01*
X1438253Y211194D01*
X1438384Y211769D01*
X1438450Y212355D01*
X1438450Y212945D01*
X1438384Y213531D01*
X1438253Y214106D01*
X1438058Y214662D01*
X1437802Y215194D01*
X1437488Y215693D01*
X1437121Y216154D01*
X1436704Y216571D01*
X1436243Y216938D01*
X1435744Y217252D01*
X1435212Y217508D01*
X1434656Y217703D01*
X1434081Y217834D01*
X1433495Y217900D01*
X1432905Y217900D01*
X1432319Y217834D01*
X1431744Y217703D01*
X1431188Y217508D01*
X1430656Y217252D01*
X1430157Y216938D01*
X1429696Y216571D01*
X1429279Y216154D01*
X1428912Y215693D01*
X1428598Y215194D01*
X1428342Y214662D01*
X1428147Y214106D01*
X1428016Y213531D01*
X1427950Y212945D01*
X1427950Y212355D01*
X1428016Y211769D01*
X1428147Y211194D01*
X1428342Y210638D01*
X1428598Y210106D01*
X1428912Y209607D01*
X1429279Y209146D01*
X1429696Y208729D01*
X1430157Y208362D01*
X1430656Y208048D01*
X1431188Y207792D01*
X1431744Y207597D01*
X1432319Y207466D01*
X1432905Y207400D01*
X1433495Y207400D01*
M02*
