G04 EAGLE Gerber RS-274X export*
G75*
%MOMM*%
%FSLAX34Y34*%
%LPD*%
%INSilkscreen Top*%
%IPPOS*%
%AMOC8*
5,1,8,0,0,1.08239X$1,22.5*%
G01*
%ADD10C,0.152400*%
%ADD11C,0.127000*%
%ADD12C,0.050800*%
%ADD13R,0.762000X0.635000*%
%ADD14R,1.270000X2.794000*%
%ADD15C,0.177800*%
%ADD16C,0.101600*%
%ADD17C,0.203200*%
%ADD18C,0.330200*%


D10*
X365000Y20000D02*
X365000Y280000D01*
X5000Y280000D01*
X5000Y20000D01*
X365000Y20000D01*
X725000Y45000D02*
X725000Y265000D01*
X375000Y265000D01*
X375000Y45000D01*
X725000Y45000D01*
X27954Y258178D02*
X27954Y274434D01*
X32470Y274434D01*
X32603Y274432D01*
X32735Y274426D01*
X32867Y274416D01*
X32999Y274403D01*
X33131Y274385D01*
X33261Y274364D01*
X33392Y274339D01*
X33521Y274310D01*
X33649Y274277D01*
X33777Y274241D01*
X33903Y274201D01*
X34028Y274157D01*
X34152Y274109D01*
X34274Y274058D01*
X34395Y274003D01*
X34514Y273945D01*
X34632Y273883D01*
X34747Y273818D01*
X34861Y273749D01*
X34972Y273678D01*
X35081Y273602D01*
X35188Y273524D01*
X35293Y273443D01*
X35395Y273358D01*
X35495Y273271D01*
X35592Y273181D01*
X35687Y273088D01*
X35778Y272992D01*
X35867Y272894D01*
X35953Y272793D01*
X36036Y272689D01*
X36116Y272583D01*
X36192Y272475D01*
X36266Y272365D01*
X36336Y272252D01*
X36403Y272138D01*
X36466Y272021D01*
X36526Y271903D01*
X36583Y271783D01*
X36636Y271661D01*
X36685Y271538D01*
X36731Y271414D01*
X36773Y271288D01*
X36811Y271161D01*
X36846Y271033D01*
X36877Y270904D01*
X36904Y270775D01*
X36927Y270644D01*
X36947Y270513D01*
X36962Y270381D01*
X36974Y270249D01*
X36982Y270117D01*
X36986Y269984D01*
X36986Y269852D01*
X36982Y269719D01*
X36974Y269587D01*
X36962Y269455D01*
X36947Y269323D01*
X36927Y269192D01*
X36904Y269061D01*
X36877Y268932D01*
X36846Y268803D01*
X36811Y268675D01*
X36773Y268548D01*
X36731Y268422D01*
X36685Y268298D01*
X36636Y268175D01*
X36583Y268053D01*
X36526Y267933D01*
X36466Y267815D01*
X36403Y267698D01*
X36336Y267584D01*
X36266Y267471D01*
X36192Y267361D01*
X36116Y267253D01*
X36036Y267147D01*
X35953Y267043D01*
X35867Y266942D01*
X35778Y266844D01*
X35687Y266748D01*
X35592Y266655D01*
X35495Y266565D01*
X35395Y266478D01*
X35293Y266393D01*
X35188Y266312D01*
X35081Y266234D01*
X34972Y266158D01*
X34861Y266087D01*
X34747Y266018D01*
X34632Y265953D01*
X34514Y265891D01*
X34395Y265833D01*
X34274Y265778D01*
X34152Y265727D01*
X34028Y265679D01*
X33903Y265635D01*
X33777Y265595D01*
X33649Y265559D01*
X33521Y265526D01*
X33392Y265497D01*
X33261Y265472D01*
X33131Y265451D01*
X32999Y265433D01*
X32867Y265420D01*
X32735Y265410D01*
X32603Y265404D01*
X32470Y265402D01*
X32470Y265403D02*
X27954Y265403D01*
X42853Y262694D02*
X42853Y269918D01*
X42855Y270051D01*
X42861Y270183D01*
X42871Y270315D01*
X42884Y270447D01*
X42902Y270579D01*
X42923Y270709D01*
X42948Y270840D01*
X42977Y270969D01*
X43010Y271097D01*
X43046Y271225D01*
X43086Y271351D01*
X43130Y271476D01*
X43178Y271600D01*
X43229Y271722D01*
X43284Y271843D01*
X43342Y271962D01*
X43404Y272080D01*
X43469Y272195D01*
X43538Y272309D01*
X43609Y272420D01*
X43685Y272529D01*
X43763Y272636D01*
X43844Y272741D01*
X43929Y272843D01*
X44016Y272943D01*
X44106Y273040D01*
X44199Y273135D01*
X44295Y273226D01*
X44393Y273315D01*
X44494Y273401D01*
X44598Y273484D01*
X44704Y273564D01*
X44812Y273640D01*
X44922Y273714D01*
X45035Y273784D01*
X45149Y273851D01*
X45266Y273914D01*
X45384Y273974D01*
X45504Y274031D01*
X45626Y274084D01*
X45749Y274133D01*
X45873Y274179D01*
X45999Y274221D01*
X46126Y274259D01*
X46254Y274294D01*
X46383Y274325D01*
X46512Y274352D01*
X46643Y274375D01*
X46774Y274395D01*
X46906Y274410D01*
X47038Y274422D01*
X47170Y274430D01*
X47303Y274434D01*
X47435Y274434D01*
X47568Y274430D01*
X47700Y274422D01*
X47832Y274410D01*
X47964Y274395D01*
X48095Y274375D01*
X48226Y274352D01*
X48355Y274325D01*
X48484Y274294D01*
X48612Y274259D01*
X48739Y274221D01*
X48865Y274179D01*
X48989Y274133D01*
X49112Y274084D01*
X49234Y274031D01*
X49354Y273974D01*
X49472Y273914D01*
X49589Y273851D01*
X49703Y273784D01*
X49816Y273714D01*
X49926Y273640D01*
X50034Y273564D01*
X50140Y273484D01*
X50244Y273401D01*
X50345Y273315D01*
X50443Y273226D01*
X50539Y273135D01*
X50632Y273040D01*
X50722Y272943D01*
X50809Y272843D01*
X50894Y272741D01*
X50975Y272636D01*
X51053Y272529D01*
X51129Y272420D01*
X51200Y272309D01*
X51269Y272195D01*
X51334Y272080D01*
X51396Y271962D01*
X51454Y271843D01*
X51509Y271722D01*
X51560Y271600D01*
X51608Y271476D01*
X51652Y271351D01*
X51692Y271225D01*
X51728Y271097D01*
X51761Y270969D01*
X51790Y270840D01*
X51815Y270709D01*
X51836Y270579D01*
X51854Y270447D01*
X51867Y270315D01*
X51877Y270183D01*
X51883Y270051D01*
X51885Y269918D01*
X51884Y269918D02*
X51884Y262694D01*
X51885Y262694D02*
X51883Y262561D01*
X51877Y262429D01*
X51867Y262297D01*
X51854Y262165D01*
X51836Y262033D01*
X51815Y261903D01*
X51790Y261772D01*
X51761Y261643D01*
X51728Y261515D01*
X51692Y261387D01*
X51652Y261261D01*
X51608Y261136D01*
X51560Y261012D01*
X51509Y260890D01*
X51454Y260769D01*
X51396Y260650D01*
X51334Y260532D01*
X51269Y260417D01*
X51200Y260303D01*
X51129Y260192D01*
X51053Y260083D01*
X50975Y259976D01*
X50894Y259871D01*
X50809Y259769D01*
X50722Y259669D01*
X50632Y259572D01*
X50539Y259477D01*
X50443Y259386D01*
X50345Y259297D01*
X50244Y259211D01*
X50140Y259128D01*
X50034Y259048D01*
X49926Y258972D01*
X49816Y258898D01*
X49703Y258828D01*
X49589Y258761D01*
X49472Y258698D01*
X49354Y258638D01*
X49234Y258581D01*
X49112Y258528D01*
X48989Y258479D01*
X48865Y258433D01*
X48739Y258391D01*
X48612Y258353D01*
X48484Y258318D01*
X48355Y258287D01*
X48226Y258260D01*
X48095Y258237D01*
X47964Y258217D01*
X47832Y258202D01*
X47700Y258190D01*
X47568Y258182D01*
X47435Y258178D01*
X47303Y258178D01*
X47170Y258182D01*
X47038Y258190D01*
X46906Y258202D01*
X46774Y258217D01*
X46643Y258237D01*
X46512Y258260D01*
X46383Y258287D01*
X46254Y258318D01*
X46126Y258353D01*
X45999Y258391D01*
X45873Y258433D01*
X45749Y258479D01*
X45626Y258528D01*
X45504Y258581D01*
X45384Y258638D01*
X45266Y258698D01*
X45149Y258761D01*
X45035Y258828D01*
X44922Y258898D01*
X44812Y258972D01*
X44704Y259048D01*
X44598Y259128D01*
X44494Y259211D01*
X44393Y259297D01*
X44295Y259386D01*
X44199Y259477D01*
X44106Y259572D01*
X44016Y259669D01*
X43929Y259769D01*
X43844Y259871D01*
X43763Y259976D01*
X43685Y260083D01*
X43609Y260192D01*
X43538Y260303D01*
X43469Y260417D01*
X43404Y260532D01*
X43342Y260650D01*
X43284Y260769D01*
X43229Y260890D01*
X43178Y261012D01*
X43130Y261136D01*
X43086Y261261D01*
X43046Y261387D01*
X43010Y261515D01*
X42977Y261643D01*
X42948Y261772D01*
X42923Y261903D01*
X42902Y262033D01*
X42884Y262165D01*
X42871Y262297D01*
X42861Y262429D01*
X42855Y262561D01*
X42853Y262694D01*
X61958Y258178D02*
X61958Y274434D01*
X66473Y274434D02*
X57442Y274434D01*
X72764Y267209D02*
X77279Y267209D01*
X77279Y267210D02*
X77412Y267208D01*
X77544Y267202D01*
X77676Y267192D01*
X77808Y267179D01*
X77940Y267161D01*
X78070Y267140D01*
X78201Y267115D01*
X78330Y267086D01*
X78458Y267053D01*
X78586Y267017D01*
X78712Y266977D01*
X78837Y266933D01*
X78961Y266885D01*
X79083Y266834D01*
X79204Y266779D01*
X79323Y266721D01*
X79441Y266659D01*
X79556Y266594D01*
X79670Y266525D01*
X79781Y266454D01*
X79890Y266378D01*
X79997Y266300D01*
X80102Y266219D01*
X80204Y266134D01*
X80304Y266047D01*
X80401Y265957D01*
X80496Y265864D01*
X80587Y265768D01*
X80676Y265670D01*
X80762Y265569D01*
X80845Y265465D01*
X80925Y265359D01*
X81001Y265251D01*
X81075Y265141D01*
X81145Y265028D01*
X81212Y264914D01*
X81275Y264797D01*
X81335Y264679D01*
X81392Y264559D01*
X81445Y264437D01*
X81494Y264314D01*
X81540Y264190D01*
X81582Y264064D01*
X81620Y263937D01*
X81655Y263809D01*
X81686Y263680D01*
X81713Y263551D01*
X81736Y263420D01*
X81756Y263289D01*
X81771Y263157D01*
X81783Y263025D01*
X81791Y262893D01*
X81795Y262760D01*
X81795Y262628D01*
X81791Y262495D01*
X81783Y262363D01*
X81771Y262231D01*
X81756Y262099D01*
X81736Y261968D01*
X81713Y261837D01*
X81686Y261708D01*
X81655Y261579D01*
X81620Y261451D01*
X81582Y261324D01*
X81540Y261198D01*
X81494Y261074D01*
X81445Y260951D01*
X81392Y260829D01*
X81335Y260709D01*
X81275Y260591D01*
X81212Y260474D01*
X81145Y260360D01*
X81075Y260247D01*
X81001Y260137D01*
X80925Y260029D01*
X80845Y259923D01*
X80762Y259819D01*
X80676Y259718D01*
X80587Y259620D01*
X80496Y259524D01*
X80401Y259431D01*
X80304Y259341D01*
X80204Y259254D01*
X80102Y259169D01*
X79997Y259088D01*
X79890Y259010D01*
X79781Y258934D01*
X79670Y258863D01*
X79556Y258794D01*
X79441Y258729D01*
X79323Y258667D01*
X79204Y258609D01*
X79083Y258554D01*
X78961Y258503D01*
X78837Y258455D01*
X78712Y258411D01*
X78586Y258371D01*
X78458Y258335D01*
X78330Y258302D01*
X78201Y258273D01*
X78070Y258248D01*
X77940Y258227D01*
X77808Y258209D01*
X77676Y258196D01*
X77544Y258186D01*
X77412Y258180D01*
X77279Y258178D01*
X72764Y258178D01*
X72764Y274434D01*
X77279Y274434D01*
X77398Y274432D01*
X77518Y274426D01*
X77637Y274416D01*
X77755Y274402D01*
X77874Y274385D01*
X77991Y274363D01*
X78108Y274338D01*
X78223Y274308D01*
X78338Y274275D01*
X78452Y274238D01*
X78564Y274198D01*
X78675Y274153D01*
X78784Y274105D01*
X78892Y274054D01*
X78998Y273999D01*
X79102Y273940D01*
X79204Y273878D01*
X79304Y273813D01*
X79402Y273744D01*
X79498Y273672D01*
X79591Y273597D01*
X79681Y273520D01*
X79769Y273439D01*
X79854Y273355D01*
X79936Y273268D01*
X80016Y273179D01*
X80092Y273087D01*
X80166Y272993D01*
X80236Y272896D01*
X80303Y272798D01*
X80367Y272697D01*
X80427Y272593D01*
X80484Y272488D01*
X80537Y272381D01*
X80587Y272273D01*
X80633Y272163D01*
X80675Y272051D01*
X80714Y271938D01*
X80749Y271824D01*
X80780Y271709D01*
X80808Y271592D01*
X80831Y271475D01*
X80851Y271358D01*
X80867Y271239D01*
X80879Y271120D01*
X80887Y271001D01*
X80891Y270882D01*
X80891Y270762D01*
X80887Y270643D01*
X80879Y270524D01*
X80867Y270405D01*
X80851Y270286D01*
X80831Y270169D01*
X80808Y270052D01*
X80780Y269935D01*
X80749Y269820D01*
X80714Y269706D01*
X80675Y269593D01*
X80633Y269481D01*
X80587Y269371D01*
X80537Y269263D01*
X80484Y269156D01*
X80427Y269051D01*
X80367Y268947D01*
X80303Y268846D01*
X80236Y268748D01*
X80166Y268651D01*
X80092Y268557D01*
X80016Y268465D01*
X79936Y268376D01*
X79854Y268289D01*
X79769Y268205D01*
X79681Y268124D01*
X79591Y268047D01*
X79498Y267972D01*
X79402Y267900D01*
X79304Y267831D01*
X79204Y267766D01*
X79102Y267704D01*
X78998Y267645D01*
X78892Y267590D01*
X78784Y267539D01*
X78675Y267491D01*
X78564Y267446D01*
X78452Y267406D01*
X78338Y267369D01*
X78223Y267336D01*
X78108Y267306D01*
X77991Y267281D01*
X77874Y267259D01*
X77755Y267242D01*
X77637Y267228D01*
X77518Y267218D01*
X77398Y267212D01*
X77279Y267210D01*
X87663Y269918D02*
X87663Y262694D01*
X87662Y269918D02*
X87664Y270051D01*
X87670Y270183D01*
X87680Y270315D01*
X87693Y270447D01*
X87711Y270579D01*
X87732Y270709D01*
X87757Y270840D01*
X87786Y270969D01*
X87819Y271097D01*
X87855Y271225D01*
X87895Y271351D01*
X87939Y271476D01*
X87987Y271600D01*
X88038Y271722D01*
X88093Y271843D01*
X88151Y271962D01*
X88213Y272080D01*
X88278Y272195D01*
X88347Y272309D01*
X88418Y272420D01*
X88494Y272529D01*
X88572Y272636D01*
X88653Y272741D01*
X88738Y272843D01*
X88825Y272943D01*
X88915Y273040D01*
X89008Y273135D01*
X89104Y273226D01*
X89202Y273315D01*
X89303Y273401D01*
X89407Y273484D01*
X89513Y273564D01*
X89621Y273640D01*
X89731Y273714D01*
X89844Y273784D01*
X89958Y273851D01*
X90075Y273914D01*
X90193Y273974D01*
X90313Y274031D01*
X90435Y274084D01*
X90558Y274133D01*
X90682Y274179D01*
X90808Y274221D01*
X90935Y274259D01*
X91063Y274294D01*
X91192Y274325D01*
X91321Y274352D01*
X91452Y274375D01*
X91583Y274395D01*
X91715Y274410D01*
X91847Y274422D01*
X91979Y274430D01*
X92112Y274434D01*
X92244Y274434D01*
X92377Y274430D01*
X92509Y274422D01*
X92641Y274410D01*
X92773Y274395D01*
X92904Y274375D01*
X93035Y274352D01*
X93164Y274325D01*
X93293Y274294D01*
X93421Y274259D01*
X93548Y274221D01*
X93674Y274179D01*
X93798Y274133D01*
X93921Y274084D01*
X94043Y274031D01*
X94163Y273974D01*
X94281Y273914D01*
X94398Y273851D01*
X94512Y273784D01*
X94625Y273714D01*
X94735Y273640D01*
X94843Y273564D01*
X94949Y273484D01*
X95053Y273401D01*
X95154Y273315D01*
X95252Y273226D01*
X95348Y273135D01*
X95441Y273040D01*
X95531Y272943D01*
X95618Y272843D01*
X95703Y272741D01*
X95784Y272636D01*
X95862Y272529D01*
X95938Y272420D01*
X96009Y272309D01*
X96078Y272195D01*
X96143Y272080D01*
X96205Y271962D01*
X96263Y271843D01*
X96318Y271722D01*
X96369Y271600D01*
X96417Y271476D01*
X96461Y271351D01*
X96501Y271225D01*
X96537Y271097D01*
X96570Y270969D01*
X96599Y270840D01*
X96624Y270709D01*
X96645Y270579D01*
X96663Y270447D01*
X96676Y270315D01*
X96686Y270183D01*
X96692Y270051D01*
X96694Y269918D01*
X96694Y262694D01*
X96692Y262561D01*
X96686Y262429D01*
X96676Y262297D01*
X96663Y262165D01*
X96645Y262033D01*
X96624Y261903D01*
X96599Y261772D01*
X96570Y261643D01*
X96537Y261515D01*
X96501Y261387D01*
X96461Y261261D01*
X96417Y261136D01*
X96369Y261012D01*
X96318Y260890D01*
X96263Y260769D01*
X96205Y260650D01*
X96143Y260532D01*
X96078Y260417D01*
X96009Y260303D01*
X95938Y260192D01*
X95862Y260083D01*
X95784Y259976D01*
X95703Y259871D01*
X95618Y259769D01*
X95531Y259669D01*
X95441Y259572D01*
X95348Y259477D01*
X95252Y259386D01*
X95154Y259297D01*
X95053Y259211D01*
X94949Y259128D01*
X94843Y259048D01*
X94735Y258972D01*
X94625Y258898D01*
X94512Y258828D01*
X94398Y258761D01*
X94281Y258698D01*
X94163Y258638D01*
X94043Y258581D01*
X93921Y258528D01*
X93798Y258479D01*
X93674Y258433D01*
X93548Y258391D01*
X93421Y258353D01*
X93293Y258318D01*
X93164Y258287D01*
X93035Y258260D01*
X92904Y258237D01*
X92773Y258217D01*
X92641Y258202D01*
X92509Y258190D01*
X92377Y258182D01*
X92244Y258178D01*
X92112Y258178D01*
X91979Y258182D01*
X91847Y258190D01*
X91715Y258202D01*
X91583Y258217D01*
X91452Y258237D01*
X91321Y258260D01*
X91192Y258287D01*
X91063Y258318D01*
X90935Y258353D01*
X90808Y258391D01*
X90682Y258433D01*
X90558Y258479D01*
X90435Y258528D01*
X90313Y258581D01*
X90193Y258638D01*
X90075Y258698D01*
X89958Y258761D01*
X89844Y258828D01*
X89731Y258898D01*
X89621Y258972D01*
X89513Y259048D01*
X89407Y259128D01*
X89303Y259211D01*
X89202Y259297D01*
X89104Y259386D01*
X89008Y259477D01*
X88915Y259572D01*
X88825Y259669D01*
X88738Y259769D01*
X88653Y259871D01*
X88572Y259976D01*
X88494Y260083D01*
X88418Y260192D01*
X88347Y260303D01*
X88278Y260417D01*
X88213Y260532D01*
X88151Y260650D01*
X88093Y260769D01*
X88038Y260890D01*
X87987Y261012D01*
X87939Y261136D01*
X87895Y261261D01*
X87855Y261387D01*
X87819Y261515D01*
X87786Y261643D01*
X87757Y261772D01*
X87732Y261903D01*
X87711Y262033D01*
X87693Y262165D01*
X87680Y262297D01*
X87670Y262429D01*
X87664Y262561D01*
X87662Y262694D01*
X106767Y258178D02*
X106767Y274434D01*
X102252Y274434D02*
X111283Y274434D01*
X120454Y274434D02*
X116841Y261790D01*
X125872Y261790D01*
X123163Y265403D02*
X123163Y258178D01*
X131847Y258178D02*
X131847Y259081D01*
X132750Y259081D01*
X132750Y258178D01*
X131847Y258178D01*
X141677Y258178D02*
X138065Y269015D01*
X145290Y269015D02*
X141677Y258178D01*
X151230Y267209D02*
X156648Y267209D01*
X156766Y267207D01*
X156884Y267201D01*
X157002Y267192D01*
X157119Y267178D01*
X157236Y267161D01*
X157353Y267140D01*
X157468Y267115D01*
X157583Y267086D01*
X157697Y267053D01*
X157809Y267017D01*
X157920Y266977D01*
X158030Y266934D01*
X158139Y266887D01*
X158246Y266837D01*
X158351Y266782D01*
X158454Y266725D01*
X158555Y266664D01*
X158655Y266600D01*
X158752Y266533D01*
X158847Y266463D01*
X158939Y266389D01*
X159030Y266313D01*
X159117Y266233D01*
X159202Y266151D01*
X159284Y266066D01*
X159364Y265979D01*
X159440Y265888D01*
X159514Y265796D01*
X159584Y265701D01*
X159651Y265604D01*
X159715Y265504D01*
X159776Y265403D01*
X159833Y265300D01*
X159888Y265195D01*
X159938Y265088D01*
X159985Y264979D01*
X160028Y264869D01*
X160068Y264758D01*
X160104Y264646D01*
X160137Y264532D01*
X160166Y264417D01*
X160191Y264302D01*
X160212Y264185D01*
X160229Y264068D01*
X160243Y263951D01*
X160252Y263833D01*
X160258Y263715D01*
X160260Y263597D01*
X160261Y263597D02*
X160261Y262694D01*
X160259Y262561D01*
X160253Y262429D01*
X160243Y262297D01*
X160230Y262165D01*
X160212Y262033D01*
X160191Y261903D01*
X160166Y261772D01*
X160137Y261643D01*
X160104Y261515D01*
X160068Y261387D01*
X160028Y261261D01*
X159984Y261136D01*
X159936Y261012D01*
X159885Y260890D01*
X159830Y260769D01*
X159772Y260650D01*
X159710Y260532D01*
X159645Y260417D01*
X159576Y260303D01*
X159505Y260192D01*
X159429Y260083D01*
X159351Y259976D01*
X159270Y259871D01*
X159185Y259769D01*
X159098Y259669D01*
X159008Y259572D01*
X158915Y259477D01*
X158819Y259386D01*
X158721Y259297D01*
X158620Y259211D01*
X158516Y259128D01*
X158410Y259048D01*
X158302Y258972D01*
X158192Y258898D01*
X158079Y258828D01*
X157965Y258761D01*
X157848Y258698D01*
X157730Y258638D01*
X157610Y258581D01*
X157488Y258528D01*
X157365Y258479D01*
X157241Y258433D01*
X157115Y258391D01*
X156988Y258353D01*
X156860Y258318D01*
X156731Y258287D01*
X156602Y258260D01*
X156471Y258237D01*
X156340Y258217D01*
X156208Y258202D01*
X156076Y258190D01*
X155944Y258182D01*
X155811Y258178D01*
X155679Y258178D01*
X155546Y258182D01*
X155414Y258190D01*
X155282Y258202D01*
X155150Y258217D01*
X155019Y258237D01*
X154888Y258260D01*
X154759Y258287D01*
X154630Y258318D01*
X154502Y258353D01*
X154375Y258391D01*
X154249Y258433D01*
X154125Y258479D01*
X154002Y258528D01*
X153880Y258581D01*
X153760Y258638D01*
X153642Y258698D01*
X153525Y258761D01*
X153411Y258828D01*
X153298Y258898D01*
X153188Y258972D01*
X153080Y259048D01*
X152974Y259128D01*
X152870Y259211D01*
X152769Y259297D01*
X152671Y259386D01*
X152575Y259477D01*
X152482Y259572D01*
X152392Y259669D01*
X152305Y259769D01*
X152220Y259871D01*
X152139Y259976D01*
X152061Y260083D01*
X151985Y260192D01*
X151914Y260303D01*
X151845Y260417D01*
X151780Y260532D01*
X151718Y260650D01*
X151660Y260769D01*
X151605Y260890D01*
X151554Y261012D01*
X151506Y261136D01*
X151462Y261261D01*
X151422Y261387D01*
X151386Y261515D01*
X151353Y261643D01*
X151324Y261772D01*
X151299Y261903D01*
X151278Y262033D01*
X151260Y262165D01*
X151247Y262297D01*
X151237Y262429D01*
X151231Y262561D01*
X151229Y262694D01*
X151230Y262694D02*
X151230Y267209D01*
X151232Y267386D01*
X151239Y267564D01*
X151250Y267741D01*
X151265Y267917D01*
X151284Y268093D01*
X151308Y268269D01*
X151336Y268444D01*
X151369Y268619D01*
X151406Y268792D01*
X151447Y268965D01*
X151492Y269136D01*
X151541Y269306D01*
X151595Y269475D01*
X151652Y269643D01*
X151714Y269809D01*
X151780Y269974D01*
X151850Y270137D01*
X151924Y270298D01*
X152001Y270457D01*
X152083Y270615D01*
X152169Y270770D01*
X152258Y270923D01*
X152351Y271074D01*
X152448Y271223D01*
X152548Y271369D01*
X152652Y271513D01*
X152759Y271654D01*
X152870Y271792D01*
X152984Y271928D01*
X153102Y272061D01*
X153222Y272191D01*
X153346Y272318D01*
X153473Y272442D01*
X153603Y272562D01*
X153736Y272680D01*
X153871Y272794D01*
X154010Y272905D01*
X154151Y273012D01*
X154295Y273116D01*
X154441Y273216D01*
X154590Y273313D01*
X154741Y273406D01*
X154894Y273495D01*
X155049Y273581D01*
X155207Y273663D01*
X155366Y273740D01*
X155527Y273814D01*
X155690Y273884D01*
X155855Y273950D01*
X156021Y274012D01*
X156189Y274069D01*
X156358Y274123D01*
X156528Y274172D01*
X156699Y274217D01*
X156872Y274258D01*
X157045Y274295D01*
X157220Y274328D01*
X157395Y274356D01*
X157571Y274380D01*
X157747Y274399D01*
X157923Y274414D01*
X158100Y274425D01*
X158278Y274432D01*
X158455Y274434D01*
X298076Y115964D02*
X298076Y103264D01*
X298076Y115964D02*
X304426Y122314D01*
X298076Y128664D01*
X298076Y141364D01*
X304426Y147714D01*
X298076Y103264D02*
X304426Y96914D01*
X304426Y147714D02*
X298076Y154064D01*
X298076Y166764D01*
X304426Y173114D01*
X298076Y179464D02*
X298076Y192164D01*
X298076Y179464D02*
X304426Y173114D01*
X298076Y192164D02*
X304426Y198514D01*
X342526Y198514D01*
X342526Y122314D02*
X348876Y115964D01*
X348876Y141364D02*
X342526Y147714D01*
X348876Y141364D02*
X348876Y128664D01*
X342526Y122314D01*
X342526Y96914D02*
X304426Y96914D01*
X342526Y96914D02*
X348876Y103264D01*
X348876Y115964D01*
X348876Y166764D02*
X342526Y173114D01*
X348876Y166764D02*
X348876Y154064D01*
X342526Y147714D01*
X342526Y173114D02*
X348876Y179464D01*
X348876Y192164D01*
X342526Y198514D01*
D11*
X353321Y108344D02*
X355861Y105169D01*
X353321Y108344D02*
X364751Y108344D01*
X364751Y105169D02*
X364751Y111519D01*
X290456Y186449D02*
X290345Y186451D01*
X290235Y186457D01*
X290124Y186466D01*
X290014Y186480D01*
X289905Y186497D01*
X289796Y186518D01*
X289688Y186543D01*
X289581Y186572D01*
X289475Y186604D01*
X289370Y186640D01*
X289267Y186680D01*
X289165Y186723D01*
X289064Y186770D01*
X288965Y186821D01*
X288869Y186874D01*
X288774Y186931D01*
X288681Y186992D01*
X288590Y187055D01*
X288501Y187122D01*
X288415Y187192D01*
X288332Y187265D01*
X288250Y187340D01*
X288172Y187418D01*
X288097Y187500D01*
X288024Y187583D01*
X287954Y187669D01*
X287887Y187758D01*
X287824Y187849D01*
X287763Y187942D01*
X287706Y188037D01*
X287653Y188133D01*
X287602Y188232D01*
X287555Y188333D01*
X287512Y188435D01*
X287472Y188538D01*
X287436Y188643D01*
X287404Y188749D01*
X287375Y188856D01*
X287350Y188964D01*
X287329Y189073D01*
X287312Y189182D01*
X287298Y189292D01*
X287289Y189403D01*
X287283Y189513D01*
X287281Y189624D01*
X287283Y189735D01*
X287289Y189845D01*
X287298Y189956D01*
X287312Y190066D01*
X287329Y190175D01*
X287350Y190284D01*
X287375Y190392D01*
X287404Y190499D01*
X287436Y190605D01*
X287472Y190710D01*
X287512Y190813D01*
X287555Y190915D01*
X287602Y191016D01*
X287653Y191115D01*
X287706Y191212D01*
X287763Y191306D01*
X287824Y191399D01*
X287887Y191490D01*
X287954Y191579D01*
X288024Y191665D01*
X288097Y191748D01*
X288172Y191830D01*
X288250Y191908D01*
X288332Y191983D01*
X288415Y192056D01*
X288501Y192126D01*
X288590Y192193D01*
X288681Y192256D01*
X288774Y192317D01*
X288869Y192374D01*
X288965Y192427D01*
X289064Y192478D01*
X289165Y192525D01*
X289267Y192568D01*
X289370Y192608D01*
X289475Y192644D01*
X289581Y192676D01*
X289688Y192705D01*
X289796Y192730D01*
X289905Y192751D01*
X290014Y192768D01*
X290124Y192782D01*
X290235Y192791D01*
X290345Y192797D01*
X290456Y192799D01*
X290567Y192797D01*
X290677Y192791D01*
X290788Y192782D01*
X290898Y192768D01*
X291007Y192751D01*
X291116Y192730D01*
X291224Y192705D01*
X291331Y192676D01*
X291437Y192644D01*
X291542Y192608D01*
X291645Y192568D01*
X291747Y192525D01*
X291848Y192478D01*
X291947Y192427D01*
X292044Y192374D01*
X292138Y192317D01*
X292231Y192256D01*
X292322Y192193D01*
X292411Y192126D01*
X292497Y192056D01*
X292580Y191983D01*
X292662Y191908D01*
X292740Y191830D01*
X292815Y191748D01*
X292888Y191665D01*
X292958Y191579D01*
X293025Y191490D01*
X293088Y191399D01*
X293149Y191306D01*
X293206Y191211D01*
X293259Y191115D01*
X293310Y191016D01*
X293357Y190915D01*
X293400Y190813D01*
X293440Y190710D01*
X293476Y190605D01*
X293508Y190499D01*
X293537Y190392D01*
X293562Y190284D01*
X293583Y190175D01*
X293600Y190066D01*
X293614Y189956D01*
X293623Y189845D01*
X293629Y189735D01*
X293631Y189624D01*
X293629Y189513D01*
X293623Y189403D01*
X293614Y189292D01*
X293600Y189182D01*
X293583Y189073D01*
X293562Y188964D01*
X293537Y188856D01*
X293508Y188749D01*
X293476Y188643D01*
X293440Y188538D01*
X293400Y188435D01*
X293357Y188333D01*
X293310Y188232D01*
X293259Y188133D01*
X293206Y188036D01*
X293149Y187942D01*
X293088Y187849D01*
X293025Y187758D01*
X292958Y187669D01*
X292888Y187583D01*
X292815Y187500D01*
X292740Y187418D01*
X292662Y187340D01*
X292580Y187265D01*
X292497Y187192D01*
X292411Y187122D01*
X292322Y187055D01*
X292231Y186992D01*
X292138Y186931D01*
X292044Y186874D01*
X291947Y186821D01*
X291848Y186770D01*
X291747Y186723D01*
X291645Y186680D01*
X291542Y186640D01*
X291437Y186604D01*
X291331Y186572D01*
X291224Y186543D01*
X291116Y186518D01*
X291007Y186497D01*
X290898Y186480D01*
X290788Y186466D01*
X290677Y186457D01*
X290567Y186451D01*
X290456Y186449D01*
X284741Y187084D02*
X284641Y187086D01*
X284542Y187092D01*
X284442Y187102D01*
X284344Y187115D01*
X284245Y187133D01*
X284148Y187154D01*
X284052Y187179D01*
X283956Y187208D01*
X283862Y187241D01*
X283769Y187277D01*
X283678Y187317D01*
X283588Y187361D01*
X283500Y187408D01*
X283414Y187458D01*
X283330Y187512D01*
X283248Y187569D01*
X283169Y187629D01*
X283091Y187693D01*
X283017Y187759D01*
X282945Y187828D01*
X282876Y187900D01*
X282810Y187974D01*
X282746Y188052D01*
X282686Y188131D01*
X282629Y188213D01*
X282575Y188297D01*
X282525Y188383D01*
X282478Y188471D01*
X282434Y188561D01*
X282394Y188652D01*
X282358Y188745D01*
X282325Y188839D01*
X282296Y188935D01*
X282271Y189031D01*
X282250Y189128D01*
X282232Y189227D01*
X282219Y189325D01*
X282209Y189425D01*
X282203Y189524D01*
X282201Y189624D01*
X282203Y189724D01*
X282209Y189823D01*
X282219Y189923D01*
X282232Y190021D01*
X282250Y190120D01*
X282271Y190217D01*
X282296Y190313D01*
X282325Y190409D01*
X282358Y190503D01*
X282394Y190596D01*
X282434Y190687D01*
X282478Y190777D01*
X282525Y190865D01*
X282575Y190951D01*
X282629Y191035D01*
X282686Y191117D01*
X282746Y191196D01*
X282810Y191274D01*
X282876Y191348D01*
X282945Y191420D01*
X283017Y191489D01*
X283091Y191555D01*
X283169Y191619D01*
X283248Y191679D01*
X283330Y191736D01*
X283414Y191790D01*
X283500Y191840D01*
X283588Y191887D01*
X283678Y191931D01*
X283769Y191971D01*
X283862Y192007D01*
X283956Y192040D01*
X284052Y192069D01*
X284148Y192094D01*
X284245Y192115D01*
X284344Y192133D01*
X284442Y192146D01*
X284542Y192156D01*
X284641Y192162D01*
X284741Y192164D01*
X284841Y192162D01*
X284940Y192156D01*
X285040Y192146D01*
X285138Y192133D01*
X285237Y192115D01*
X285334Y192094D01*
X285430Y192069D01*
X285526Y192040D01*
X285620Y192007D01*
X285713Y191971D01*
X285804Y191931D01*
X285894Y191887D01*
X285982Y191840D01*
X286068Y191790D01*
X286152Y191736D01*
X286234Y191679D01*
X286313Y191619D01*
X286391Y191555D01*
X286465Y191489D01*
X286537Y191420D01*
X286606Y191348D01*
X286672Y191274D01*
X286736Y191196D01*
X286796Y191117D01*
X286853Y191035D01*
X286907Y190951D01*
X286957Y190865D01*
X287004Y190777D01*
X287048Y190687D01*
X287088Y190596D01*
X287124Y190503D01*
X287157Y190409D01*
X287186Y190313D01*
X287211Y190217D01*
X287232Y190120D01*
X287250Y190021D01*
X287263Y189923D01*
X287273Y189823D01*
X287279Y189724D01*
X287281Y189624D01*
X287279Y189524D01*
X287273Y189425D01*
X287263Y189325D01*
X287250Y189227D01*
X287232Y189128D01*
X287211Y189031D01*
X287186Y188935D01*
X287157Y188839D01*
X287124Y188745D01*
X287088Y188652D01*
X287048Y188561D01*
X287004Y188471D01*
X286957Y188383D01*
X286907Y188297D01*
X286853Y188213D01*
X286796Y188131D01*
X286736Y188052D01*
X286672Y187974D01*
X286606Y187900D01*
X286537Y187828D01*
X286465Y187759D01*
X286391Y187693D01*
X286313Y187629D01*
X286234Y187569D01*
X286152Y187512D01*
X286068Y187458D01*
X285982Y187408D01*
X285894Y187361D01*
X285804Y187317D01*
X285713Y187277D01*
X285620Y187241D01*
X285526Y187208D01*
X285430Y187179D01*
X285334Y187154D01*
X285237Y187133D01*
X285138Y187115D01*
X285040Y187102D01*
X284940Y187092D01*
X284841Y187086D01*
X284741Y187084D01*
X284164Y87863D02*
X286069Y87863D01*
X286069Y81513D01*
X282259Y81513D01*
X282159Y81515D01*
X282060Y81521D01*
X281960Y81531D01*
X281862Y81544D01*
X281763Y81562D01*
X281666Y81583D01*
X281570Y81608D01*
X281474Y81637D01*
X281380Y81670D01*
X281287Y81706D01*
X281196Y81746D01*
X281106Y81790D01*
X281018Y81837D01*
X280932Y81887D01*
X280848Y81941D01*
X280766Y81998D01*
X280687Y82058D01*
X280609Y82122D01*
X280535Y82188D01*
X280463Y82257D01*
X280394Y82329D01*
X280328Y82403D01*
X280264Y82481D01*
X280204Y82560D01*
X280147Y82642D01*
X280093Y82726D01*
X280043Y82812D01*
X279996Y82900D01*
X279952Y82990D01*
X279912Y83081D01*
X279876Y83174D01*
X279843Y83268D01*
X279814Y83364D01*
X279789Y83460D01*
X279768Y83557D01*
X279750Y83656D01*
X279737Y83754D01*
X279727Y83854D01*
X279721Y83953D01*
X279719Y84053D01*
X279719Y90403D01*
X279721Y90503D01*
X279727Y90602D01*
X279737Y90702D01*
X279750Y90800D01*
X279768Y90899D01*
X279789Y90996D01*
X279814Y91092D01*
X279843Y91188D01*
X279876Y91282D01*
X279912Y91375D01*
X279952Y91466D01*
X279996Y91556D01*
X280043Y91644D01*
X280093Y91730D01*
X280147Y91814D01*
X280204Y91896D01*
X280264Y91975D01*
X280328Y92053D01*
X280394Y92127D01*
X280463Y92199D01*
X280535Y92268D01*
X280609Y92334D01*
X280687Y92398D01*
X280766Y92458D01*
X280848Y92515D01*
X280932Y92569D01*
X281018Y92619D01*
X281106Y92666D01*
X281196Y92710D01*
X281287Y92750D01*
X281380Y92786D01*
X281474Y92819D01*
X281570Y92848D01*
X281666Y92873D01*
X281763Y92894D01*
X281862Y92912D01*
X281960Y92925D01*
X282060Y92935D01*
X282159Y92941D01*
X282259Y92943D01*
X286069Y92943D01*
X292102Y92943D02*
X292102Y81513D01*
X292102Y92943D02*
X295277Y92943D01*
X295388Y92941D01*
X295498Y92935D01*
X295609Y92926D01*
X295719Y92912D01*
X295828Y92895D01*
X295937Y92874D01*
X296045Y92849D01*
X296152Y92820D01*
X296258Y92788D01*
X296363Y92752D01*
X296466Y92712D01*
X296568Y92669D01*
X296669Y92622D01*
X296768Y92571D01*
X296865Y92518D01*
X296959Y92461D01*
X297052Y92400D01*
X297143Y92337D01*
X297232Y92270D01*
X297318Y92200D01*
X297401Y92127D01*
X297483Y92052D01*
X297561Y91974D01*
X297636Y91892D01*
X297709Y91809D01*
X297779Y91723D01*
X297846Y91634D01*
X297909Y91543D01*
X297970Y91450D01*
X298027Y91355D01*
X298080Y91259D01*
X298131Y91160D01*
X298178Y91059D01*
X298221Y90957D01*
X298261Y90854D01*
X298297Y90749D01*
X298329Y90643D01*
X298358Y90536D01*
X298383Y90428D01*
X298404Y90319D01*
X298421Y90210D01*
X298435Y90100D01*
X298444Y89989D01*
X298450Y89879D01*
X298452Y89768D01*
X298450Y89657D01*
X298444Y89547D01*
X298435Y89436D01*
X298421Y89326D01*
X298404Y89217D01*
X298383Y89108D01*
X298358Y89000D01*
X298329Y88893D01*
X298297Y88787D01*
X298261Y88682D01*
X298221Y88579D01*
X298178Y88477D01*
X298131Y88376D01*
X298080Y88277D01*
X298027Y88180D01*
X297970Y88086D01*
X297909Y87993D01*
X297846Y87902D01*
X297779Y87813D01*
X297709Y87727D01*
X297636Y87644D01*
X297561Y87562D01*
X297483Y87484D01*
X297401Y87409D01*
X297318Y87336D01*
X297232Y87266D01*
X297143Y87199D01*
X297052Y87136D01*
X296959Y87075D01*
X296865Y87018D01*
X296768Y86965D01*
X296669Y86914D01*
X296568Y86867D01*
X296466Y86824D01*
X296363Y86784D01*
X296258Y86748D01*
X296152Y86716D01*
X296045Y86687D01*
X295937Y86662D01*
X295828Y86641D01*
X295719Y86624D01*
X295609Y86610D01*
X295498Y86601D01*
X295388Y86595D01*
X295277Y86593D01*
X292102Y86593D01*
X306389Y81513D02*
X306489Y81515D01*
X306588Y81521D01*
X306688Y81531D01*
X306786Y81544D01*
X306885Y81562D01*
X306982Y81583D01*
X307078Y81608D01*
X307174Y81637D01*
X307268Y81670D01*
X307361Y81706D01*
X307452Y81746D01*
X307542Y81790D01*
X307630Y81837D01*
X307716Y81887D01*
X307800Y81941D01*
X307882Y81998D01*
X307961Y82058D01*
X308039Y82122D01*
X308113Y82188D01*
X308185Y82257D01*
X308254Y82329D01*
X308320Y82403D01*
X308384Y82481D01*
X308444Y82560D01*
X308501Y82642D01*
X308555Y82726D01*
X308605Y82812D01*
X308652Y82900D01*
X308696Y82990D01*
X308736Y83081D01*
X308772Y83174D01*
X308805Y83268D01*
X308834Y83364D01*
X308859Y83460D01*
X308880Y83557D01*
X308898Y83656D01*
X308911Y83754D01*
X308921Y83854D01*
X308927Y83953D01*
X308929Y84053D01*
X306389Y81513D02*
X306248Y81515D01*
X306107Y81520D01*
X305966Y81530D01*
X305825Y81543D01*
X305685Y81559D01*
X305545Y81580D01*
X305406Y81604D01*
X305267Y81632D01*
X305130Y81663D01*
X304993Y81698D01*
X304857Y81736D01*
X304722Y81778D01*
X304589Y81824D01*
X304456Y81873D01*
X304325Y81926D01*
X304196Y81982D01*
X304067Y82041D01*
X303941Y82104D01*
X303816Y82170D01*
X303693Y82239D01*
X303572Y82312D01*
X303453Y82388D01*
X303335Y82467D01*
X303220Y82548D01*
X303108Y82633D01*
X302997Y82721D01*
X302889Y82812D01*
X302783Y82905D01*
X302680Y83002D01*
X302579Y83101D01*
X302897Y90403D02*
X302899Y90503D01*
X302905Y90602D01*
X302915Y90702D01*
X302928Y90800D01*
X302946Y90899D01*
X302967Y90996D01*
X302992Y91092D01*
X303021Y91188D01*
X303054Y91282D01*
X303090Y91375D01*
X303130Y91466D01*
X303174Y91556D01*
X303221Y91644D01*
X303271Y91730D01*
X303325Y91814D01*
X303382Y91896D01*
X303442Y91975D01*
X303506Y92053D01*
X303572Y92127D01*
X303641Y92199D01*
X303713Y92268D01*
X303787Y92334D01*
X303865Y92398D01*
X303944Y92458D01*
X304026Y92515D01*
X304110Y92569D01*
X304196Y92619D01*
X304284Y92666D01*
X304374Y92710D01*
X304465Y92750D01*
X304558Y92786D01*
X304652Y92819D01*
X304748Y92848D01*
X304844Y92873D01*
X304941Y92894D01*
X305040Y92912D01*
X305138Y92925D01*
X305238Y92935D01*
X305337Y92941D01*
X305437Y92943D01*
X305437Y92944D02*
X305570Y92942D01*
X305703Y92937D01*
X305836Y92927D01*
X305969Y92914D01*
X306101Y92897D01*
X306233Y92877D01*
X306364Y92853D01*
X306494Y92825D01*
X306624Y92794D01*
X306752Y92759D01*
X306880Y92720D01*
X307006Y92678D01*
X307131Y92632D01*
X307255Y92583D01*
X307378Y92531D01*
X307499Y92475D01*
X307618Y92415D01*
X307736Y92353D01*
X307851Y92287D01*
X307965Y92218D01*
X308077Y92145D01*
X308187Y92070D01*
X308295Y91991D01*
X304166Y88180D02*
X304082Y88232D01*
X303999Y88287D01*
X303919Y88346D01*
X303841Y88407D01*
X303766Y88471D01*
X303693Y88539D01*
X303622Y88609D01*
X303555Y88681D01*
X303490Y88756D01*
X303428Y88834D01*
X303369Y88914D01*
X303313Y88996D01*
X303261Y89080D01*
X303212Y89166D01*
X303166Y89254D01*
X303123Y89344D01*
X303084Y89435D01*
X303049Y89528D01*
X303017Y89622D01*
X302989Y89717D01*
X302964Y89813D01*
X302944Y89910D01*
X302926Y90008D01*
X302913Y90106D01*
X302904Y90205D01*
X302898Y90304D01*
X302896Y90403D01*
X307659Y86276D02*
X307743Y86224D01*
X307826Y86169D01*
X307906Y86110D01*
X307984Y86049D01*
X308059Y85985D01*
X308132Y85917D01*
X308203Y85847D01*
X308270Y85775D01*
X308335Y85700D01*
X308397Y85622D01*
X308456Y85542D01*
X308512Y85460D01*
X308564Y85376D01*
X308613Y85290D01*
X308659Y85202D01*
X308702Y85112D01*
X308741Y85021D01*
X308776Y84928D01*
X308808Y84834D01*
X308836Y84739D01*
X308861Y84643D01*
X308881Y84546D01*
X308899Y84448D01*
X308912Y84350D01*
X308921Y84251D01*
X308927Y84152D01*
X308929Y84053D01*
X307659Y86276D02*
X304167Y88181D01*
X313120Y80243D02*
X318200Y80243D01*
X325364Y84053D02*
X325364Y92943D01*
X325364Y84053D02*
X325362Y83953D01*
X325356Y83854D01*
X325346Y83754D01*
X325333Y83656D01*
X325315Y83557D01*
X325294Y83460D01*
X325269Y83364D01*
X325240Y83268D01*
X325207Y83174D01*
X325171Y83081D01*
X325131Y82990D01*
X325087Y82900D01*
X325040Y82812D01*
X324990Y82726D01*
X324936Y82642D01*
X324879Y82560D01*
X324819Y82481D01*
X324755Y82403D01*
X324689Y82329D01*
X324620Y82257D01*
X324548Y82188D01*
X324474Y82122D01*
X324396Y82058D01*
X324317Y81998D01*
X324235Y81941D01*
X324151Y81887D01*
X324065Y81837D01*
X323977Y81790D01*
X323887Y81746D01*
X323796Y81706D01*
X323703Y81670D01*
X323609Y81637D01*
X323513Y81608D01*
X323417Y81583D01*
X323320Y81562D01*
X323221Y81544D01*
X323123Y81531D01*
X323023Y81521D01*
X322924Y81515D01*
X322824Y81513D01*
X321554Y81513D01*
X331281Y81513D02*
X331281Y92943D01*
X335091Y86593D01*
X338901Y92943D01*
X338901Y81513D01*
X345060Y81513D02*
X345060Y92943D01*
X348235Y92943D01*
X348346Y92941D01*
X348456Y92935D01*
X348567Y92926D01*
X348677Y92912D01*
X348786Y92895D01*
X348895Y92874D01*
X349003Y92849D01*
X349110Y92820D01*
X349216Y92788D01*
X349321Y92752D01*
X349424Y92712D01*
X349526Y92669D01*
X349627Y92622D01*
X349726Y92571D01*
X349823Y92518D01*
X349917Y92461D01*
X350010Y92400D01*
X350101Y92337D01*
X350190Y92270D01*
X350276Y92200D01*
X350359Y92127D01*
X350441Y92052D01*
X350519Y91974D01*
X350594Y91892D01*
X350667Y91809D01*
X350737Y91723D01*
X350804Y91634D01*
X350867Y91543D01*
X350928Y91450D01*
X350985Y91355D01*
X351038Y91259D01*
X351089Y91160D01*
X351136Y91059D01*
X351179Y90957D01*
X351219Y90854D01*
X351255Y90749D01*
X351287Y90643D01*
X351316Y90536D01*
X351341Y90428D01*
X351362Y90319D01*
X351379Y90210D01*
X351393Y90100D01*
X351402Y89989D01*
X351408Y89879D01*
X351410Y89768D01*
X351408Y89657D01*
X351402Y89547D01*
X351393Y89436D01*
X351379Y89326D01*
X351362Y89217D01*
X351341Y89108D01*
X351316Y89000D01*
X351287Y88893D01*
X351255Y88787D01*
X351219Y88682D01*
X351179Y88579D01*
X351136Y88477D01*
X351089Y88376D01*
X351038Y88277D01*
X350985Y88180D01*
X350928Y88086D01*
X350867Y87993D01*
X350804Y87902D01*
X350737Y87813D01*
X350667Y87727D01*
X350594Y87644D01*
X350519Y87562D01*
X350441Y87484D01*
X350359Y87409D01*
X350276Y87336D01*
X350190Y87266D01*
X350101Y87199D01*
X350010Y87136D01*
X349917Y87075D01*
X349823Y87018D01*
X349726Y86965D01*
X349627Y86914D01*
X349526Y86867D01*
X349424Y86824D01*
X349321Y86784D01*
X349216Y86748D01*
X349110Y86716D01*
X349003Y86687D01*
X348895Y86662D01*
X348786Y86641D01*
X348677Y86624D01*
X348567Y86610D01*
X348456Y86601D01*
X348346Y86595D01*
X348235Y86593D01*
X345060Y86593D01*
X841040Y99632D02*
X945180Y99632D01*
X945180Y258382D02*
X841040Y258382D01*
X945180Y224092D02*
X945180Y99632D01*
X945180Y224092D02*
X936290Y224092D01*
X936290Y239332D01*
X945180Y239332D01*
X945180Y258382D01*
X841040Y224092D02*
X841040Y99632D01*
X841040Y224092D02*
X849930Y224092D01*
X849930Y239332D01*
X841040Y239332D01*
X841040Y258382D01*
D12*
X847390Y105982D02*
X938830Y105982D01*
X938830Y188532D01*
X847390Y188532D01*
X847390Y105982D01*
D11*
X875076Y224092D02*
X875081Y224535D01*
X875098Y224977D01*
X875125Y225419D01*
X875163Y225860D01*
X875212Y226300D01*
X875271Y226738D01*
X875342Y227175D01*
X875423Y227610D01*
X875514Y228043D01*
X875616Y228474D01*
X875729Y228902D01*
X875853Y229327D01*
X875986Y229749D01*
X876130Y230167D01*
X876284Y230582D01*
X876449Y230993D01*
X876623Y231400D01*
X876807Y231803D01*
X877002Y232200D01*
X877205Y232593D01*
X877419Y232981D01*
X877642Y233363D01*
X877874Y233740D01*
X878115Y234111D01*
X878366Y234476D01*
X878625Y234835D01*
X878893Y235187D01*
X879170Y235533D01*
X879454Y235871D01*
X879748Y236203D01*
X880049Y236527D01*
X880358Y236844D01*
X880675Y237153D01*
X880999Y237454D01*
X881331Y237748D01*
X881669Y238032D01*
X882015Y238309D01*
X882367Y238577D01*
X882726Y238836D01*
X883091Y239087D01*
X883462Y239328D01*
X883839Y239560D01*
X884221Y239783D01*
X884609Y239997D01*
X885002Y240200D01*
X885399Y240395D01*
X885802Y240579D01*
X886209Y240753D01*
X886620Y240918D01*
X887035Y241072D01*
X887453Y241216D01*
X887875Y241349D01*
X888300Y241473D01*
X888728Y241586D01*
X889159Y241688D01*
X889592Y241779D01*
X890027Y241860D01*
X890464Y241931D01*
X890902Y241990D01*
X891342Y242039D01*
X891783Y242077D01*
X892225Y242104D01*
X892667Y242121D01*
X893110Y242126D01*
X893553Y242121D01*
X893995Y242104D01*
X894437Y242077D01*
X894878Y242039D01*
X895318Y241990D01*
X895756Y241931D01*
X896193Y241860D01*
X896628Y241779D01*
X897061Y241688D01*
X897492Y241586D01*
X897920Y241473D01*
X898345Y241349D01*
X898767Y241216D01*
X899185Y241072D01*
X899600Y240918D01*
X900011Y240753D01*
X900418Y240579D01*
X900821Y240395D01*
X901218Y240200D01*
X901611Y239997D01*
X901999Y239783D01*
X902381Y239560D01*
X902758Y239328D01*
X903129Y239087D01*
X903494Y238836D01*
X903853Y238577D01*
X904205Y238309D01*
X904551Y238032D01*
X904889Y237748D01*
X905221Y237454D01*
X905545Y237153D01*
X905862Y236844D01*
X906171Y236527D01*
X906472Y236203D01*
X906766Y235871D01*
X907050Y235533D01*
X907327Y235187D01*
X907595Y234835D01*
X907854Y234476D01*
X908105Y234111D01*
X908346Y233740D01*
X908578Y233363D01*
X908801Y232981D01*
X909015Y232593D01*
X909218Y232200D01*
X909413Y231803D01*
X909597Y231400D01*
X909771Y230993D01*
X909936Y230582D01*
X910090Y230167D01*
X910234Y229749D01*
X910367Y229327D01*
X910491Y228902D01*
X910604Y228474D01*
X910706Y228043D01*
X910797Y227610D01*
X910878Y227175D01*
X910949Y226738D01*
X911008Y226300D01*
X911057Y225860D01*
X911095Y225419D01*
X911122Y224977D01*
X911139Y224535D01*
X911144Y224092D01*
X911139Y223649D01*
X911122Y223207D01*
X911095Y222765D01*
X911057Y222324D01*
X911008Y221884D01*
X910949Y221446D01*
X910878Y221009D01*
X910797Y220574D01*
X910706Y220141D01*
X910604Y219710D01*
X910491Y219282D01*
X910367Y218857D01*
X910234Y218435D01*
X910090Y218017D01*
X909936Y217602D01*
X909771Y217191D01*
X909597Y216784D01*
X909413Y216381D01*
X909218Y215984D01*
X909015Y215591D01*
X908801Y215203D01*
X908578Y214821D01*
X908346Y214444D01*
X908105Y214073D01*
X907854Y213708D01*
X907595Y213349D01*
X907327Y212997D01*
X907050Y212651D01*
X906766Y212313D01*
X906472Y211981D01*
X906171Y211657D01*
X905862Y211340D01*
X905545Y211031D01*
X905221Y210730D01*
X904889Y210436D01*
X904551Y210152D01*
X904205Y209875D01*
X903853Y209607D01*
X903494Y209348D01*
X903129Y209097D01*
X902758Y208856D01*
X902381Y208624D01*
X901999Y208401D01*
X901611Y208187D01*
X901218Y207984D01*
X900821Y207789D01*
X900418Y207605D01*
X900011Y207431D01*
X899600Y207266D01*
X899185Y207112D01*
X898767Y206968D01*
X898345Y206835D01*
X897920Y206711D01*
X897492Y206598D01*
X897061Y206496D01*
X896628Y206405D01*
X896193Y206324D01*
X895756Y206253D01*
X895318Y206194D01*
X894878Y206145D01*
X894437Y206107D01*
X893995Y206080D01*
X893553Y206063D01*
X893110Y206058D01*
X892667Y206063D01*
X892225Y206080D01*
X891783Y206107D01*
X891342Y206145D01*
X890902Y206194D01*
X890464Y206253D01*
X890027Y206324D01*
X889592Y206405D01*
X889159Y206496D01*
X888728Y206598D01*
X888300Y206711D01*
X887875Y206835D01*
X887453Y206968D01*
X887035Y207112D01*
X886620Y207266D01*
X886209Y207431D01*
X885802Y207605D01*
X885399Y207789D01*
X885002Y207984D01*
X884609Y208187D01*
X884221Y208401D01*
X883839Y208624D01*
X883462Y208856D01*
X883091Y209097D01*
X882726Y209348D01*
X882367Y209607D01*
X882015Y209875D01*
X881669Y210152D01*
X881331Y210436D01*
X880999Y210730D01*
X880675Y211031D01*
X880358Y211340D01*
X880049Y211657D01*
X879748Y211981D01*
X879454Y212313D01*
X879170Y212651D01*
X878893Y212997D01*
X878625Y213349D01*
X878366Y213708D01*
X878115Y214073D01*
X877874Y214444D01*
X877642Y214821D01*
X877419Y215203D01*
X877205Y215591D01*
X877002Y215984D01*
X876807Y216381D01*
X876623Y216784D01*
X876449Y217191D01*
X876284Y217602D01*
X876130Y218017D01*
X875986Y218435D01*
X875853Y218857D01*
X875729Y219282D01*
X875616Y219710D01*
X875514Y220141D01*
X875423Y220574D01*
X875342Y221009D01*
X875271Y221446D01*
X875212Y221884D01*
X875163Y222324D01*
X875125Y222765D01*
X875098Y223207D01*
X875081Y223649D01*
X875076Y224092D01*
X852174Y200343D02*
X849295Y191707D01*
X855052Y191707D02*
X852174Y200343D01*
X854333Y193866D02*
X850015Y193866D01*
X858690Y198424D02*
X861089Y200343D01*
X861089Y191707D01*
X858690Y191707D02*
X863488Y191707D01*
X867606Y199383D02*
X867606Y200343D01*
X872403Y200343D01*
X870004Y191707D01*
X875961Y191707D02*
X876441Y191707D01*
X875961Y191707D02*
X875961Y192187D01*
X876441Y192187D01*
X876441Y191707D01*
X875722Y189788D01*
X880087Y191707D02*
X882966Y191707D01*
X883052Y191709D01*
X883138Y191715D01*
X883224Y191724D01*
X883309Y191738D01*
X883393Y191755D01*
X883477Y191776D01*
X883559Y191801D01*
X883640Y191829D01*
X883720Y191861D01*
X883799Y191897D01*
X883875Y191936D01*
X883950Y191979D01*
X884023Y192024D01*
X884094Y192074D01*
X884162Y192126D01*
X884229Y192181D01*
X884292Y192239D01*
X884353Y192300D01*
X884411Y192363D01*
X884466Y192430D01*
X884519Y192498D01*
X884568Y192569D01*
X884613Y192642D01*
X884656Y192717D01*
X884695Y192793D01*
X884731Y192872D01*
X884763Y192952D01*
X884791Y193033D01*
X884816Y193116D01*
X884837Y193199D01*
X884854Y193283D01*
X884868Y193368D01*
X884877Y193454D01*
X884883Y193540D01*
X884885Y193626D01*
X884885Y194586D01*
X884883Y194672D01*
X884877Y194758D01*
X884868Y194844D01*
X884854Y194929D01*
X884837Y195013D01*
X884816Y195097D01*
X884791Y195179D01*
X884763Y195260D01*
X884731Y195340D01*
X884695Y195419D01*
X884656Y195495D01*
X884613Y195570D01*
X884568Y195643D01*
X884519Y195714D01*
X884466Y195782D01*
X884411Y195849D01*
X884353Y195912D01*
X884292Y195973D01*
X884229Y196031D01*
X884162Y196086D01*
X884094Y196139D01*
X884023Y196188D01*
X883950Y196233D01*
X883875Y196276D01*
X883799Y196315D01*
X883720Y196351D01*
X883640Y196383D01*
X883559Y196411D01*
X883477Y196436D01*
X883393Y196457D01*
X883309Y196474D01*
X883224Y196488D01*
X883138Y196497D01*
X883052Y196503D01*
X882966Y196505D01*
X880087Y196505D01*
X880087Y200343D01*
X884885Y200343D01*
X889414Y197464D02*
X889414Y191707D01*
X889414Y197464D02*
X893732Y197464D01*
X893807Y197462D01*
X893882Y197456D01*
X893957Y197446D01*
X894031Y197433D01*
X894104Y197415D01*
X894177Y197394D01*
X894248Y197368D01*
X894317Y197340D01*
X894385Y197307D01*
X894452Y197271D01*
X894516Y197232D01*
X894578Y197189D01*
X894638Y197143D01*
X894695Y197094D01*
X894750Y197043D01*
X894801Y196988D01*
X894850Y196931D01*
X894896Y196871D01*
X894939Y196809D01*
X894978Y196745D01*
X895014Y196678D01*
X895047Y196610D01*
X895075Y196541D01*
X895101Y196470D01*
X895122Y196397D01*
X895140Y196324D01*
X895153Y196250D01*
X895163Y196175D01*
X895169Y196100D01*
X895171Y196025D01*
X895171Y191707D01*
X892293Y191707D02*
X892293Y197464D01*
X900113Y197464D02*
X900113Y191707D01*
X900113Y197464D02*
X904431Y197464D01*
X904506Y197462D01*
X904581Y197456D01*
X904656Y197446D01*
X904730Y197433D01*
X904803Y197415D01*
X904876Y197394D01*
X904947Y197368D01*
X905016Y197340D01*
X905084Y197307D01*
X905151Y197271D01*
X905215Y197232D01*
X905277Y197189D01*
X905337Y197143D01*
X905394Y197094D01*
X905449Y197043D01*
X905500Y196988D01*
X905549Y196931D01*
X905595Y196871D01*
X905638Y196809D01*
X905677Y196745D01*
X905713Y196678D01*
X905746Y196610D01*
X905774Y196541D01*
X905800Y196470D01*
X905821Y196397D01*
X905839Y196324D01*
X905852Y196250D01*
X905862Y196175D01*
X905868Y196100D01*
X905870Y196025D01*
X905870Y191707D01*
X902991Y191707D02*
X902991Y197464D01*
D13*
X918510Y68517D03*
X893110Y68517D03*
X867710Y68517D03*
D14*
X867710Y85662D03*
X893110Y85662D03*
X918510Y85662D03*
D15*
X855899Y169736D02*
X855899Y176848D01*
X855901Y176980D01*
X855907Y177111D01*
X855917Y177243D01*
X855930Y177374D01*
X855948Y177504D01*
X855969Y177634D01*
X855994Y177764D01*
X856023Y177892D01*
X856056Y178020D01*
X856093Y178146D01*
X856133Y178272D01*
X856177Y178396D01*
X856225Y178519D01*
X856276Y178640D01*
X856331Y178760D01*
X856389Y178878D01*
X856451Y178994D01*
X856517Y179108D01*
X856585Y179221D01*
X856657Y179331D01*
X856732Y179439D01*
X856811Y179545D01*
X856892Y179649D01*
X856977Y179750D01*
X857064Y179848D01*
X857155Y179944D01*
X857248Y180037D01*
X857344Y180128D01*
X857442Y180215D01*
X857543Y180300D01*
X857647Y180381D01*
X857753Y180460D01*
X857861Y180535D01*
X857971Y180607D01*
X858084Y180675D01*
X858198Y180741D01*
X858314Y180803D01*
X858432Y180861D01*
X858552Y180916D01*
X858673Y180967D01*
X858796Y181015D01*
X858920Y181059D01*
X859046Y181099D01*
X859172Y181136D01*
X859300Y181169D01*
X859428Y181198D01*
X859558Y181223D01*
X859688Y181244D01*
X859818Y181262D01*
X859949Y181275D01*
X860081Y181285D01*
X860212Y181291D01*
X860344Y181293D01*
X860476Y181291D01*
X860607Y181285D01*
X860739Y181275D01*
X860870Y181262D01*
X861000Y181244D01*
X861130Y181223D01*
X861260Y181198D01*
X861388Y181169D01*
X861516Y181136D01*
X861642Y181099D01*
X861768Y181059D01*
X861892Y181015D01*
X862015Y180967D01*
X862136Y180916D01*
X862256Y180861D01*
X862374Y180803D01*
X862490Y180741D01*
X862604Y180675D01*
X862717Y180607D01*
X862827Y180535D01*
X862935Y180460D01*
X863041Y180381D01*
X863145Y180300D01*
X863246Y180215D01*
X863344Y180128D01*
X863440Y180037D01*
X863533Y179944D01*
X863624Y179848D01*
X863711Y179750D01*
X863796Y179649D01*
X863877Y179545D01*
X863956Y179439D01*
X864031Y179331D01*
X864103Y179221D01*
X864171Y179108D01*
X864237Y178994D01*
X864299Y178878D01*
X864357Y178760D01*
X864412Y178640D01*
X864463Y178519D01*
X864511Y178396D01*
X864555Y178272D01*
X864595Y178146D01*
X864632Y178020D01*
X864665Y177892D01*
X864694Y177764D01*
X864719Y177634D01*
X864740Y177504D01*
X864758Y177374D01*
X864771Y177243D01*
X864781Y177111D01*
X864787Y176980D01*
X864789Y176848D01*
X864789Y169736D01*
X864787Y169604D01*
X864781Y169473D01*
X864771Y169341D01*
X864758Y169210D01*
X864740Y169080D01*
X864719Y168950D01*
X864694Y168820D01*
X864665Y168692D01*
X864632Y168564D01*
X864595Y168438D01*
X864555Y168312D01*
X864511Y168188D01*
X864463Y168065D01*
X864412Y167944D01*
X864357Y167824D01*
X864299Y167706D01*
X864237Y167590D01*
X864171Y167476D01*
X864103Y167363D01*
X864031Y167253D01*
X863956Y167145D01*
X863877Y167039D01*
X863796Y166935D01*
X863711Y166834D01*
X863624Y166736D01*
X863533Y166640D01*
X863440Y166547D01*
X863344Y166456D01*
X863246Y166369D01*
X863145Y166284D01*
X863041Y166203D01*
X862935Y166124D01*
X862827Y166049D01*
X862717Y165977D01*
X862604Y165909D01*
X862490Y165843D01*
X862374Y165781D01*
X862256Y165723D01*
X862136Y165668D01*
X862015Y165617D01*
X861892Y165569D01*
X861768Y165525D01*
X861642Y165485D01*
X861516Y165448D01*
X861388Y165415D01*
X861260Y165386D01*
X861130Y165361D01*
X861000Y165340D01*
X860870Y165322D01*
X860739Y165309D01*
X860607Y165299D01*
X860476Y165293D01*
X860344Y165291D01*
X860212Y165293D01*
X860081Y165299D01*
X859949Y165309D01*
X859818Y165322D01*
X859688Y165340D01*
X859558Y165361D01*
X859428Y165386D01*
X859300Y165415D01*
X859172Y165448D01*
X859046Y165485D01*
X858920Y165525D01*
X858796Y165569D01*
X858673Y165617D01*
X858552Y165668D01*
X858432Y165723D01*
X858314Y165781D01*
X858198Y165843D01*
X858084Y165909D01*
X857971Y165977D01*
X857861Y166049D01*
X857753Y166124D01*
X857647Y166203D01*
X857543Y166284D01*
X857442Y166369D01*
X857344Y166456D01*
X857248Y166547D01*
X857155Y166640D01*
X857064Y166736D01*
X856977Y166834D01*
X856892Y166935D01*
X856811Y167039D01*
X856732Y167145D01*
X856657Y167253D01*
X856585Y167363D01*
X856517Y167476D01*
X856451Y167590D01*
X856389Y167706D01*
X856331Y167824D01*
X856276Y167944D01*
X856225Y168065D01*
X856177Y168188D01*
X856133Y168312D01*
X856093Y168438D01*
X856056Y168564D01*
X856023Y168692D01*
X855994Y168820D01*
X855969Y168950D01*
X855948Y169080D01*
X855930Y169210D01*
X855917Y169341D01*
X855907Y169473D01*
X855901Y169604D01*
X855899Y169736D01*
X863011Y168847D02*
X866567Y165291D01*
X871130Y177737D02*
X875575Y181293D01*
X875575Y165291D01*
X871130Y165291D02*
X880020Y165291D01*
D11*
X837270Y99200D02*
X733130Y99200D01*
X733130Y257950D02*
X837270Y257950D01*
X837270Y223660D02*
X837270Y99200D01*
X837270Y223660D02*
X828380Y223660D01*
X828380Y238900D01*
X837270Y238900D01*
X837270Y257950D01*
X733130Y223660D02*
X733130Y99200D01*
X733130Y223660D02*
X742020Y223660D01*
X742020Y238900D01*
X733130Y238900D01*
X733130Y257950D01*
D12*
X739480Y105550D02*
X830920Y105550D01*
X830920Y188100D01*
X739480Y188100D01*
X739480Y105550D01*
D11*
X767166Y223660D02*
X767171Y224103D01*
X767188Y224545D01*
X767215Y224987D01*
X767253Y225428D01*
X767302Y225868D01*
X767361Y226306D01*
X767432Y226743D01*
X767513Y227178D01*
X767604Y227611D01*
X767706Y228042D01*
X767819Y228470D01*
X767943Y228895D01*
X768076Y229317D01*
X768220Y229735D01*
X768374Y230150D01*
X768539Y230561D01*
X768713Y230968D01*
X768897Y231371D01*
X769092Y231768D01*
X769295Y232161D01*
X769509Y232549D01*
X769732Y232931D01*
X769964Y233308D01*
X770205Y233679D01*
X770456Y234044D01*
X770715Y234403D01*
X770983Y234755D01*
X771260Y235101D01*
X771544Y235439D01*
X771838Y235771D01*
X772139Y236095D01*
X772448Y236412D01*
X772765Y236721D01*
X773089Y237022D01*
X773421Y237316D01*
X773759Y237600D01*
X774105Y237877D01*
X774457Y238145D01*
X774816Y238404D01*
X775181Y238655D01*
X775552Y238896D01*
X775929Y239128D01*
X776311Y239351D01*
X776699Y239565D01*
X777092Y239768D01*
X777489Y239963D01*
X777892Y240147D01*
X778299Y240321D01*
X778710Y240486D01*
X779125Y240640D01*
X779543Y240784D01*
X779965Y240917D01*
X780390Y241041D01*
X780818Y241154D01*
X781249Y241256D01*
X781682Y241347D01*
X782117Y241428D01*
X782554Y241499D01*
X782992Y241558D01*
X783432Y241607D01*
X783873Y241645D01*
X784315Y241672D01*
X784757Y241689D01*
X785200Y241694D01*
X785643Y241689D01*
X786085Y241672D01*
X786527Y241645D01*
X786968Y241607D01*
X787408Y241558D01*
X787846Y241499D01*
X788283Y241428D01*
X788718Y241347D01*
X789151Y241256D01*
X789582Y241154D01*
X790010Y241041D01*
X790435Y240917D01*
X790857Y240784D01*
X791275Y240640D01*
X791690Y240486D01*
X792101Y240321D01*
X792508Y240147D01*
X792911Y239963D01*
X793308Y239768D01*
X793701Y239565D01*
X794089Y239351D01*
X794471Y239128D01*
X794848Y238896D01*
X795219Y238655D01*
X795584Y238404D01*
X795943Y238145D01*
X796295Y237877D01*
X796641Y237600D01*
X796979Y237316D01*
X797311Y237022D01*
X797635Y236721D01*
X797952Y236412D01*
X798261Y236095D01*
X798562Y235771D01*
X798856Y235439D01*
X799140Y235101D01*
X799417Y234755D01*
X799685Y234403D01*
X799944Y234044D01*
X800195Y233679D01*
X800436Y233308D01*
X800668Y232931D01*
X800891Y232549D01*
X801105Y232161D01*
X801308Y231768D01*
X801503Y231371D01*
X801687Y230968D01*
X801861Y230561D01*
X802026Y230150D01*
X802180Y229735D01*
X802324Y229317D01*
X802457Y228895D01*
X802581Y228470D01*
X802694Y228042D01*
X802796Y227611D01*
X802887Y227178D01*
X802968Y226743D01*
X803039Y226306D01*
X803098Y225868D01*
X803147Y225428D01*
X803185Y224987D01*
X803212Y224545D01*
X803229Y224103D01*
X803234Y223660D01*
X803229Y223217D01*
X803212Y222775D01*
X803185Y222333D01*
X803147Y221892D01*
X803098Y221452D01*
X803039Y221014D01*
X802968Y220577D01*
X802887Y220142D01*
X802796Y219709D01*
X802694Y219278D01*
X802581Y218850D01*
X802457Y218425D01*
X802324Y218003D01*
X802180Y217585D01*
X802026Y217170D01*
X801861Y216759D01*
X801687Y216352D01*
X801503Y215949D01*
X801308Y215552D01*
X801105Y215159D01*
X800891Y214771D01*
X800668Y214389D01*
X800436Y214012D01*
X800195Y213641D01*
X799944Y213276D01*
X799685Y212917D01*
X799417Y212565D01*
X799140Y212219D01*
X798856Y211881D01*
X798562Y211549D01*
X798261Y211225D01*
X797952Y210908D01*
X797635Y210599D01*
X797311Y210298D01*
X796979Y210004D01*
X796641Y209720D01*
X796295Y209443D01*
X795943Y209175D01*
X795584Y208916D01*
X795219Y208665D01*
X794848Y208424D01*
X794471Y208192D01*
X794089Y207969D01*
X793701Y207755D01*
X793308Y207552D01*
X792911Y207357D01*
X792508Y207173D01*
X792101Y206999D01*
X791690Y206834D01*
X791275Y206680D01*
X790857Y206536D01*
X790435Y206403D01*
X790010Y206279D01*
X789582Y206166D01*
X789151Y206064D01*
X788718Y205973D01*
X788283Y205892D01*
X787846Y205821D01*
X787408Y205762D01*
X786968Y205713D01*
X786527Y205675D01*
X786085Y205648D01*
X785643Y205631D01*
X785200Y205626D01*
X784757Y205631D01*
X784315Y205648D01*
X783873Y205675D01*
X783432Y205713D01*
X782992Y205762D01*
X782554Y205821D01*
X782117Y205892D01*
X781682Y205973D01*
X781249Y206064D01*
X780818Y206166D01*
X780390Y206279D01*
X779965Y206403D01*
X779543Y206536D01*
X779125Y206680D01*
X778710Y206834D01*
X778299Y206999D01*
X777892Y207173D01*
X777489Y207357D01*
X777092Y207552D01*
X776699Y207755D01*
X776311Y207969D01*
X775929Y208192D01*
X775552Y208424D01*
X775181Y208665D01*
X774816Y208916D01*
X774457Y209175D01*
X774105Y209443D01*
X773759Y209720D01*
X773421Y210004D01*
X773089Y210298D01*
X772765Y210599D01*
X772448Y210908D01*
X772139Y211225D01*
X771838Y211549D01*
X771544Y211881D01*
X771260Y212219D01*
X770983Y212565D01*
X770715Y212917D01*
X770456Y213276D01*
X770205Y213641D01*
X769964Y214012D01*
X769732Y214389D01*
X769509Y214771D01*
X769295Y215159D01*
X769092Y215552D01*
X768897Y215949D01*
X768713Y216352D01*
X768539Y216759D01*
X768374Y217170D01*
X768220Y217585D01*
X768076Y218003D01*
X767943Y218425D01*
X767819Y218850D01*
X767706Y219278D01*
X767604Y219709D01*
X767513Y220142D01*
X767432Y220577D01*
X767361Y221014D01*
X767302Y221452D01*
X767253Y221892D01*
X767215Y222333D01*
X767188Y222775D01*
X767171Y223217D01*
X767166Y223660D01*
X744264Y199911D02*
X741385Y191275D01*
X747142Y191275D02*
X744264Y199911D01*
X746423Y193434D02*
X742105Y193434D01*
X750780Y197992D02*
X753179Y199911D01*
X753179Y191275D01*
X750780Y191275D02*
X755578Y191275D01*
X759696Y198951D02*
X759696Y199911D01*
X764493Y199911D01*
X762094Y191275D01*
X768051Y191275D02*
X768531Y191275D01*
X768051Y191275D02*
X768051Y191755D01*
X768531Y191755D01*
X768531Y191275D01*
X767812Y189356D01*
X772177Y191275D02*
X775056Y191275D01*
X775142Y191277D01*
X775228Y191283D01*
X775314Y191292D01*
X775399Y191306D01*
X775483Y191323D01*
X775567Y191344D01*
X775649Y191369D01*
X775730Y191397D01*
X775810Y191429D01*
X775889Y191465D01*
X775965Y191504D01*
X776040Y191547D01*
X776113Y191592D01*
X776184Y191642D01*
X776252Y191694D01*
X776319Y191749D01*
X776382Y191807D01*
X776443Y191868D01*
X776501Y191931D01*
X776556Y191998D01*
X776609Y192066D01*
X776658Y192137D01*
X776703Y192210D01*
X776746Y192285D01*
X776785Y192361D01*
X776821Y192440D01*
X776853Y192520D01*
X776881Y192601D01*
X776906Y192684D01*
X776927Y192767D01*
X776944Y192851D01*
X776958Y192936D01*
X776967Y193022D01*
X776973Y193108D01*
X776975Y193194D01*
X776975Y194154D01*
X776973Y194240D01*
X776967Y194326D01*
X776958Y194412D01*
X776944Y194497D01*
X776927Y194581D01*
X776906Y194665D01*
X776881Y194747D01*
X776853Y194828D01*
X776821Y194908D01*
X776785Y194987D01*
X776746Y195063D01*
X776703Y195138D01*
X776658Y195211D01*
X776609Y195282D01*
X776556Y195350D01*
X776501Y195417D01*
X776443Y195480D01*
X776382Y195541D01*
X776319Y195599D01*
X776252Y195654D01*
X776184Y195707D01*
X776113Y195756D01*
X776040Y195801D01*
X775965Y195844D01*
X775889Y195883D01*
X775810Y195919D01*
X775730Y195951D01*
X775649Y195979D01*
X775567Y196004D01*
X775483Y196025D01*
X775399Y196042D01*
X775314Y196056D01*
X775228Y196065D01*
X775142Y196071D01*
X775056Y196073D01*
X772177Y196073D01*
X772177Y199911D01*
X776975Y199911D01*
X781504Y197032D02*
X781504Y191275D01*
X781504Y197032D02*
X785822Y197032D01*
X785897Y197030D01*
X785972Y197024D01*
X786047Y197014D01*
X786121Y197001D01*
X786194Y196983D01*
X786267Y196962D01*
X786338Y196936D01*
X786407Y196908D01*
X786475Y196875D01*
X786542Y196839D01*
X786606Y196800D01*
X786668Y196757D01*
X786728Y196711D01*
X786785Y196662D01*
X786840Y196611D01*
X786891Y196556D01*
X786940Y196499D01*
X786986Y196439D01*
X787029Y196377D01*
X787068Y196313D01*
X787104Y196246D01*
X787137Y196178D01*
X787165Y196109D01*
X787191Y196038D01*
X787212Y195965D01*
X787230Y195892D01*
X787243Y195818D01*
X787253Y195743D01*
X787259Y195668D01*
X787261Y195593D01*
X787261Y191275D01*
X784383Y191275D02*
X784383Y197032D01*
X792203Y197032D02*
X792203Y191275D01*
X792203Y197032D02*
X796521Y197032D01*
X796596Y197030D01*
X796671Y197024D01*
X796746Y197014D01*
X796820Y197001D01*
X796893Y196983D01*
X796966Y196962D01*
X797037Y196936D01*
X797106Y196908D01*
X797174Y196875D01*
X797241Y196839D01*
X797305Y196800D01*
X797367Y196757D01*
X797427Y196711D01*
X797484Y196662D01*
X797539Y196611D01*
X797590Y196556D01*
X797639Y196499D01*
X797685Y196439D01*
X797728Y196377D01*
X797767Y196313D01*
X797803Y196246D01*
X797836Y196178D01*
X797864Y196109D01*
X797890Y196038D01*
X797911Y195965D01*
X797929Y195892D01*
X797942Y195818D01*
X797952Y195743D01*
X797958Y195668D01*
X797960Y195593D01*
X797960Y191275D01*
X795081Y191275D02*
X795081Y197032D01*
D13*
X810600Y68085D03*
X785200Y68085D03*
X759800Y68085D03*
D14*
X759800Y85230D03*
X785200Y85230D03*
X810600Y85230D03*
D15*
X732989Y164304D02*
X732989Y171416D01*
X732991Y171548D01*
X732997Y171679D01*
X733007Y171811D01*
X733020Y171942D01*
X733038Y172072D01*
X733059Y172202D01*
X733084Y172332D01*
X733113Y172460D01*
X733146Y172588D01*
X733183Y172714D01*
X733223Y172840D01*
X733267Y172964D01*
X733315Y173087D01*
X733366Y173208D01*
X733421Y173328D01*
X733479Y173446D01*
X733541Y173562D01*
X733607Y173676D01*
X733675Y173789D01*
X733747Y173899D01*
X733822Y174007D01*
X733901Y174113D01*
X733982Y174217D01*
X734067Y174318D01*
X734154Y174416D01*
X734245Y174512D01*
X734338Y174605D01*
X734434Y174696D01*
X734532Y174783D01*
X734633Y174868D01*
X734737Y174949D01*
X734843Y175028D01*
X734951Y175103D01*
X735061Y175175D01*
X735174Y175243D01*
X735288Y175309D01*
X735404Y175371D01*
X735522Y175429D01*
X735642Y175484D01*
X735763Y175535D01*
X735886Y175583D01*
X736010Y175627D01*
X736136Y175667D01*
X736262Y175704D01*
X736390Y175737D01*
X736518Y175766D01*
X736648Y175791D01*
X736778Y175812D01*
X736908Y175830D01*
X737039Y175843D01*
X737171Y175853D01*
X737302Y175859D01*
X737434Y175861D01*
X737566Y175859D01*
X737697Y175853D01*
X737829Y175843D01*
X737960Y175830D01*
X738090Y175812D01*
X738220Y175791D01*
X738350Y175766D01*
X738478Y175737D01*
X738606Y175704D01*
X738732Y175667D01*
X738858Y175627D01*
X738982Y175583D01*
X739105Y175535D01*
X739226Y175484D01*
X739346Y175429D01*
X739464Y175371D01*
X739580Y175309D01*
X739694Y175243D01*
X739807Y175175D01*
X739917Y175103D01*
X740025Y175028D01*
X740131Y174949D01*
X740235Y174868D01*
X740336Y174783D01*
X740434Y174696D01*
X740530Y174605D01*
X740623Y174512D01*
X740714Y174416D01*
X740801Y174318D01*
X740886Y174217D01*
X740967Y174113D01*
X741046Y174007D01*
X741121Y173899D01*
X741193Y173789D01*
X741261Y173676D01*
X741327Y173562D01*
X741389Y173446D01*
X741447Y173328D01*
X741502Y173208D01*
X741553Y173087D01*
X741601Y172964D01*
X741645Y172840D01*
X741685Y172714D01*
X741722Y172588D01*
X741755Y172460D01*
X741784Y172332D01*
X741809Y172202D01*
X741830Y172072D01*
X741848Y171942D01*
X741861Y171811D01*
X741871Y171679D01*
X741877Y171548D01*
X741879Y171416D01*
X741879Y164304D01*
X741877Y164172D01*
X741871Y164041D01*
X741861Y163909D01*
X741848Y163778D01*
X741830Y163648D01*
X741809Y163518D01*
X741784Y163388D01*
X741755Y163260D01*
X741722Y163132D01*
X741685Y163006D01*
X741645Y162880D01*
X741601Y162756D01*
X741553Y162633D01*
X741502Y162512D01*
X741447Y162392D01*
X741389Y162274D01*
X741327Y162158D01*
X741261Y162044D01*
X741193Y161931D01*
X741121Y161821D01*
X741046Y161713D01*
X740967Y161607D01*
X740886Y161503D01*
X740801Y161402D01*
X740714Y161304D01*
X740623Y161208D01*
X740530Y161115D01*
X740434Y161024D01*
X740336Y160937D01*
X740235Y160852D01*
X740131Y160771D01*
X740025Y160692D01*
X739917Y160617D01*
X739807Y160545D01*
X739694Y160477D01*
X739580Y160411D01*
X739464Y160349D01*
X739346Y160291D01*
X739226Y160236D01*
X739105Y160185D01*
X738982Y160137D01*
X738858Y160093D01*
X738732Y160053D01*
X738606Y160016D01*
X738478Y159983D01*
X738350Y159954D01*
X738220Y159929D01*
X738090Y159908D01*
X737960Y159890D01*
X737829Y159877D01*
X737697Y159867D01*
X737566Y159861D01*
X737434Y159859D01*
X737302Y159861D01*
X737171Y159867D01*
X737039Y159877D01*
X736908Y159890D01*
X736778Y159908D01*
X736648Y159929D01*
X736518Y159954D01*
X736390Y159983D01*
X736262Y160016D01*
X736136Y160053D01*
X736010Y160093D01*
X735886Y160137D01*
X735763Y160185D01*
X735642Y160236D01*
X735522Y160291D01*
X735404Y160349D01*
X735288Y160411D01*
X735174Y160477D01*
X735061Y160545D01*
X734951Y160617D01*
X734843Y160692D01*
X734737Y160771D01*
X734633Y160852D01*
X734532Y160937D01*
X734434Y161024D01*
X734338Y161115D01*
X734245Y161208D01*
X734154Y161304D01*
X734067Y161402D01*
X733982Y161503D01*
X733901Y161607D01*
X733822Y161713D01*
X733747Y161821D01*
X733675Y161931D01*
X733607Y162044D01*
X733541Y162158D01*
X733479Y162274D01*
X733421Y162392D01*
X733366Y162512D01*
X733315Y162633D01*
X733267Y162756D01*
X733223Y162880D01*
X733183Y163006D01*
X733146Y163132D01*
X733113Y163260D01*
X733084Y163388D01*
X733059Y163518D01*
X733038Y163648D01*
X733020Y163778D01*
X733007Y163909D01*
X732997Y164041D01*
X732991Y164172D01*
X732989Y164304D01*
X740101Y163415D02*
X743657Y159859D01*
X757111Y171861D02*
X757109Y171987D01*
X757103Y172112D01*
X757093Y172238D01*
X757079Y172362D01*
X757062Y172487D01*
X757040Y172611D01*
X757015Y172734D01*
X756985Y172856D01*
X756952Y172977D01*
X756915Y173097D01*
X756874Y173216D01*
X756830Y173334D01*
X756782Y173450D01*
X756730Y173565D01*
X756675Y173677D01*
X756616Y173788D01*
X756554Y173898D01*
X756488Y174005D01*
X756419Y174110D01*
X756347Y174213D01*
X756271Y174313D01*
X756193Y174411D01*
X756111Y174507D01*
X756027Y174600D01*
X755939Y174690D01*
X755849Y174778D01*
X755756Y174862D01*
X755660Y174944D01*
X755562Y175022D01*
X755462Y175098D01*
X755359Y175170D01*
X755254Y175239D01*
X755147Y175305D01*
X755037Y175367D01*
X754926Y175426D01*
X754814Y175481D01*
X754699Y175533D01*
X754583Y175581D01*
X754465Y175625D01*
X754346Y175666D01*
X754226Y175703D01*
X754105Y175736D01*
X753983Y175766D01*
X753860Y175791D01*
X753736Y175813D01*
X753611Y175830D01*
X753487Y175844D01*
X753361Y175854D01*
X753236Y175860D01*
X753110Y175862D01*
X753110Y175861D02*
X752969Y175859D01*
X752829Y175853D01*
X752689Y175844D01*
X752549Y175830D01*
X752410Y175813D01*
X752271Y175792D01*
X752132Y175767D01*
X751995Y175739D01*
X751858Y175706D01*
X751722Y175670D01*
X751587Y175630D01*
X751454Y175587D01*
X751321Y175540D01*
X751190Y175489D01*
X751061Y175435D01*
X750933Y175377D01*
X750806Y175316D01*
X750681Y175251D01*
X750559Y175183D01*
X750438Y175112D01*
X750318Y175037D01*
X750202Y174959D01*
X750087Y174878D01*
X749974Y174794D01*
X749864Y174706D01*
X749756Y174616D01*
X749651Y174523D01*
X749549Y174427D01*
X749449Y174328D01*
X749351Y174227D01*
X749257Y174123D01*
X749165Y174016D01*
X749077Y173907D01*
X748991Y173796D01*
X748909Y173682D01*
X748829Y173566D01*
X748753Y173448D01*
X748680Y173328D01*
X748611Y173206D01*
X748544Y173082D01*
X748481Y172956D01*
X748422Y172829D01*
X748366Y172700D01*
X748314Y172570D01*
X748265Y172438D01*
X748220Y172305D01*
X755776Y168749D02*
X755868Y168840D01*
X755958Y168933D01*
X756044Y169028D01*
X756128Y169126D01*
X756208Y169227D01*
X756286Y169330D01*
X756360Y169435D01*
X756431Y169543D01*
X756499Y169652D01*
X756563Y169764D01*
X756625Y169877D01*
X756682Y169992D01*
X756737Y170109D01*
X756788Y170228D01*
X756835Y170348D01*
X756878Y170469D01*
X756918Y170591D01*
X756954Y170715D01*
X756987Y170840D01*
X757016Y170965D01*
X757041Y171092D01*
X757062Y171219D01*
X757079Y171347D01*
X757093Y171475D01*
X757102Y171603D01*
X757108Y171732D01*
X757110Y171861D01*
X755777Y168749D02*
X748220Y159859D01*
X757110Y159859D01*
D11*
X1247600Y264850D02*
X1247600Y285150D01*
X1204400Y285150D01*
X1204400Y264850D01*
X1247600Y264850D01*
X1247600Y275000D02*
X1253360Y275000D01*
X1204400Y275000D02*
X1198640Y275000D01*
D16*
X1217124Y280046D02*
X1217124Y268362D01*
X1217124Y280046D02*
X1220370Y280046D01*
X1220483Y280044D01*
X1220596Y280038D01*
X1220709Y280028D01*
X1220822Y280014D01*
X1220934Y279997D01*
X1221045Y279975D01*
X1221155Y279950D01*
X1221265Y279920D01*
X1221373Y279887D01*
X1221480Y279850D01*
X1221586Y279810D01*
X1221690Y279765D01*
X1221793Y279717D01*
X1221894Y279666D01*
X1221993Y279611D01*
X1222090Y279553D01*
X1222185Y279491D01*
X1222278Y279426D01*
X1222368Y279358D01*
X1222456Y279287D01*
X1222542Y279212D01*
X1222625Y279135D01*
X1222705Y279055D01*
X1222782Y278972D01*
X1222857Y278886D01*
X1222928Y278798D01*
X1222996Y278708D01*
X1223061Y278615D01*
X1223123Y278520D01*
X1223181Y278423D01*
X1223236Y278324D01*
X1223287Y278223D01*
X1223335Y278120D01*
X1223380Y278016D01*
X1223420Y277910D01*
X1223457Y277803D01*
X1223490Y277695D01*
X1223520Y277585D01*
X1223545Y277475D01*
X1223567Y277364D01*
X1223584Y277252D01*
X1223598Y277139D01*
X1223608Y277026D01*
X1223614Y276913D01*
X1223616Y276800D01*
X1223614Y276687D01*
X1223608Y276574D01*
X1223598Y276461D01*
X1223584Y276348D01*
X1223567Y276236D01*
X1223545Y276125D01*
X1223520Y276015D01*
X1223490Y275905D01*
X1223457Y275797D01*
X1223420Y275690D01*
X1223380Y275584D01*
X1223335Y275480D01*
X1223287Y275377D01*
X1223236Y275276D01*
X1223181Y275177D01*
X1223123Y275080D01*
X1223061Y274985D01*
X1222996Y274892D01*
X1222928Y274802D01*
X1222857Y274714D01*
X1222782Y274628D01*
X1222705Y274545D01*
X1222625Y274465D01*
X1222542Y274388D01*
X1222456Y274313D01*
X1222368Y274242D01*
X1222278Y274174D01*
X1222185Y274109D01*
X1222090Y274047D01*
X1221993Y273989D01*
X1221894Y273934D01*
X1221793Y273883D01*
X1221690Y273835D01*
X1221586Y273790D01*
X1221480Y273750D01*
X1221373Y273713D01*
X1221265Y273680D01*
X1221155Y273650D01*
X1221045Y273625D01*
X1220934Y273603D01*
X1220822Y273586D01*
X1220709Y273572D01*
X1220596Y273562D01*
X1220483Y273556D01*
X1220370Y273554D01*
X1220370Y273555D02*
X1217124Y273555D01*
X1221019Y273555D02*
X1223615Y268362D01*
X1228481Y268362D02*
X1231726Y268362D01*
X1231839Y268364D01*
X1231952Y268370D01*
X1232065Y268380D01*
X1232178Y268394D01*
X1232290Y268411D01*
X1232401Y268433D01*
X1232511Y268458D01*
X1232621Y268488D01*
X1232729Y268521D01*
X1232836Y268558D01*
X1232942Y268598D01*
X1233046Y268643D01*
X1233149Y268691D01*
X1233250Y268742D01*
X1233349Y268797D01*
X1233446Y268855D01*
X1233541Y268917D01*
X1233634Y268982D01*
X1233724Y269050D01*
X1233812Y269121D01*
X1233898Y269196D01*
X1233981Y269273D01*
X1234061Y269353D01*
X1234138Y269436D01*
X1234213Y269522D01*
X1234284Y269610D01*
X1234352Y269700D01*
X1234417Y269793D01*
X1234479Y269888D01*
X1234537Y269985D01*
X1234592Y270084D01*
X1234643Y270185D01*
X1234691Y270288D01*
X1234736Y270392D01*
X1234776Y270498D01*
X1234813Y270605D01*
X1234846Y270713D01*
X1234876Y270823D01*
X1234901Y270933D01*
X1234923Y271044D01*
X1234940Y271156D01*
X1234954Y271269D01*
X1234964Y271382D01*
X1234970Y271495D01*
X1234972Y271608D01*
X1234970Y271721D01*
X1234964Y271834D01*
X1234954Y271947D01*
X1234940Y272060D01*
X1234923Y272172D01*
X1234901Y272283D01*
X1234876Y272393D01*
X1234846Y272503D01*
X1234813Y272611D01*
X1234776Y272718D01*
X1234736Y272824D01*
X1234691Y272928D01*
X1234643Y273031D01*
X1234592Y273132D01*
X1234537Y273231D01*
X1234479Y273328D01*
X1234417Y273423D01*
X1234352Y273516D01*
X1234284Y273606D01*
X1234213Y273694D01*
X1234138Y273780D01*
X1234061Y273863D01*
X1233981Y273943D01*
X1233898Y274020D01*
X1233812Y274095D01*
X1233724Y274166D01*
X1233634Y274234D01*
X1233541Y274299D01*
X1233446Y274361D01*
X1233349Y274419D01*
X1233250Y274474D01*
X1233149Y274525D01*
X1233046Y274573D01*
X1232942Y274618D01*
X1232836Y274658D01*
X1232729Y274695D01*
X1232621Y274728D01*
X1232511Y274758D01*
X1232401Y274783D01*
X1232290Y274805D01*
X1232178Y274822D01*
X1232065Y274836D01*
X1231952Y274846D01*
X1231839Y274852D01*
X1231726Y274854D01*
X1232375Y280046D02*
X1228481Y280046D01*
X1232375Y280046D02*
X1232476Y280044D01*
X1232576Y280038D01*
X1232676Y280028D01*
X1232776Y280015D01*
X1232875Y279997D01*
X1232974Y279976D01*
X1233071Y279951D01*
X1233168Y279922D01*
X1233263Y279889D01*
X1233357Y279853D01*
X1233449Y279813D01*
X1233540Y279770D01*
X1233629Y279723D01*
X1233716Y279673D01*
X1233802Y279619D01*
X1233885Y279562D01*
X1233965Y279502D01*
X1234044Y279439D01*
X1234120Y279372D01*
X1234193Y279303D01*
X1234263Y279231D01*
X1234331Y279157D01*
X1234396Y279080D01*
X1234457Y279000D01*
X1234516Y278918D01*
X1234571Y278834D01*
X1234623Y278748D01*
X1234672Y278660D01*
X1234717Y278570D01*
X1234759Y278478D01*
X1234797Y278385D01*
X1234831Y278290D01*
X1234862Y278195D01*
X1234889Y278098D01*
X1234912Y278000D01*
X1234932Y277901D01*
X1234947Y277801D01*
X1234959Y277701D01*
X1234967Y277601D01*
X1234971Y277500D01*
X1234971Y277400D01*
X1234967Y277299D01*
X1234959Y277199D01*
X1234947Y277099D01*
X1234932Y276999D01*
X1234912Y276900D01*
X1234889Y276802D01*
X1234862Y276705D01*
X1234831Y276610D01*
X1234797Y276515D01*
X1234759Y276422D01*
X1234717Y276330D01*
X1234672Y276240D01*
X1234623Y276152D01*
X1234571Y276066D01*
X1234516Y275982D01*
X1234457Y275900D01*
X1234396Y275820D01*
X1234331Y275743D01*
X1234263Y275669D01*
X1234193Y275597D01*
X1234120Y275528D01*
X1234044Y275461D01*
X1233965Y275398D01*
X1233885Y275338D01*
X1233802Y275281D01*
X1233716Y275227D01*
X1233629Y275177D01*
X1233540Y275130D01*
X1233449Y275087D01*
X1233357Y275047D01*
X1233263Y275011D01*
X1233168Y274978D01*
X1233071Y274949D01*
X1232974Y274924D01*
X1232875Y274903D01*
X1232776Y274885D01*
X1232676Y274872D01*
X1232576Y274862D01*
X1232476Y274856D01*
X1232375Y274854D01*
X1232375Y274853D02*
X1229779Y274853D01*
D17*
X607700Y135150D02*
X607700Y122450D01*
X601350Y116100D01*
X588650Y116100D02*
X582300Y122450D01*
X601350Y116100D02*
X607700Y109750D01*
X607700Y97050D01*
X601350Y90700D01*
X588650Y90700D02*
X582300Y97050D01*
X582300Y109750D01*
X588650Y116100D01*
X607700Y160550D02*
X601350Y166900D01*
X607700Y160550D02*
X607700Y147850D01*
X601350Y141500D01*
X588650Y141500D02*
X582300Y147850D01*
X582300Y160550D01*
X588650Y166900D01*
X601350Y141500D02*
X607700Y135150D01*
X588650Y141500D02*
X582300Y135150D01*
X582300Y122450D01*
X607700Y198650D02*
X607700Y211350D01*
X607700Y198650D02*
X601350Y192300D01*
X588650Y192300D02*
X582300Y198650D01*
X601350Y192300D02*
X607700Y185950D01*
X607700Y173250D01*
X601350Y166900D01*
X588650Y166900D02*
X582300Y173250D01*
X582300Y185950D01*
X588650Y192300D01*
X588650Y217700D02*
X601350Y217700D01*
X607700Y211350D01*
X588650Y217700D02*
X582300Y211350D01*
X582300Y198650D01*
X588650Y90700D02*
X601350Y90700D01*
D18*
X439771Y39803D02*
X439771Y26341D01*
X439771Y39803D02*
X443510Y39803D01*
X443631Y39801D01*
X443752Y39795D01*
X443873Y39785D01*
X443993Y39772D01*
X444113Y39754D01*
X444232Y39733D01*
X444350Y39707D01*
X444468Y39678D01*
X444585Y39645D01*
X444700Y39609D01*
X444814Y39568D01*
X444927Y39524D01*
X445038Y39476D01*
X445148Y39425D01*
X445256Y39370D01*
X445362Y39312D01*
X445466Y39250D01*
X445568Y39185D01*
X445668Y39117D01*
X445766Y39046D01*
X445861Y38971D01*
X445954Y38893D01*
X446045Y38813D01*
X446132Y38729D01*
X446217Y38643D01*
X446299Y38554D01*
X446379Y38462D01*
X446455Y38368D01*
X446528Y38272D01*
X446598Y38173D01*
X446664Y38072D01*
X446728Y37968D01*
X446788Y37863D01*
X446844Y37756D01*
X446897Y37647D01*
X446947Y37537D01*
X446993Y37425D01*
X447035Y37311D01*
X447073Y37196D01*
X447108Y37080D01*
X447139Y36963D01*
X447166Y36845D01*
X447190Y36727D01*
X447209Y36607D01*
X447225Y36487D01*
X447237Y36366D01*
X447245Y36246D01*
X447249Y36125D01*
X447249Y36003D01*
X447245Y35882D01*
X447237Y35762D01*
X447225Y35641D01*
X447209Y35521D01*
X447190Y35401D01*
X447166Y35283D01*
X447139Y35165D01*
X447108Y35048D01*
X447073Y34932D01*
X447035Y34817D01*
X446993Y34703D01*
X446947Y34591D01*
X446897Y34481D01*
X446844Y34372D01*
X446788Y34265D01*
X446728Y34160D01*
X446664Y34056D01*
X446598Y33955D01*
X446528Y33856D01*
X446455Y33760D01*
X446379Y33666D01*
X446299Y33574D01*
X446217Y33485D01*
X446132Y33399D01*
X446045Y33315D01*
X445954Y33235D01*
X445861Y33157D01*
X445766Y33082D01*
X445668Y33011D01*
X445568Y32943D01*
X445466Y32878D01*
X445362Y32816D01*
X445256Y32758D01*
X445148Y32703D01*
X445038Y32652D01*
X444927Y32604D01*
X444814Y32560D01*
X444700Y32519D01*
X444585Y32483D01*
X444468Y32450D01*
X444350Y32421D01*
X444232Y32395D01*
X444113Y32374D01*
X443993Y32356D01*
X443873Y32343D01*
X443752Y32333D01*
X443631Y32327D01*
X443510Y32325D01*
X443510Y32324D02*
X439771Y32324D01*
X444258Y32324D02*
X447250Y26341D01*
X457226Y26341D02*
X457226Y39803D01*
X460965Y39803D02*
X453486Y39803D01*
X470282Y26341D02*
X473274Y26341D01*
X470282Y26341D02*
X470175Y26343D01*
X470069Y26349D01*
X469962Y26358D01*
X469856Y26371D01*
X469751Y26389D01*
X469646Y26409D01*
X469542Y26434D01*
X469439Y26462D01*
X469337Y26494D01*
X469236Y26530D01*
X469137Y26569D01*
X469039Y26611D01*
X468943Y26657D01*
X468848Y26707D01*
X468755Y26760D01*
X468664Y26816D01*
X468576Y26875D01*
X468489Y26938D01*
X468405Y27003D01*
X468323Y27072D01*
X468243Y27143D01*
X468166Y27217D01*
X468092Y27294D01*
X468021Y27374D01*
X467952Y27456D01*
X467887Y27540D01*
X467824Y27627D01*
X467765Y27715D01*
X467709Y27806D01*
X467656Y27899D01*
X467606Y27994D01*
X467560Y28090D01*
X467518Y28188D01*
X467479Y28287D01*
X467443Y28388D01*
X467411Y28490D01*
X467383Y28593D01*
X467358Y28697D01*
X467338Y28802D01*
X467320Y28907D01*
X467307Y29013D01*
X467298Y29120D01*
X467292Y29226D01*
X467290Y29333D01*
X467291Y29333D02*
X467291Y36811D01*
X467290Y36811D02*
X467292Y36920D01*
X467298Y37029D01*
X467308Y37138D01*
X467322Y37247D01*
X467340Y37354D01*
X467362Y37462D01*
X467387Y37568D01*
X467417Y37673D01*
X467450Y37777D01*
X467487Y37880D01*
X467528Y37981D01*
X467573Y38081D01*
X467621Y38179D01*
X467673Y38275D01*
X467728Y38370D01*
X467787Y38462D01*
X467849Y38552D01*
X467914Y38640D01*
X467982Y38725D01*
X468054Y38808D01*
X468128Y38888D01*
X468205Y38965D01*
X468285Y39039D01*
X468368Y39111D01*
X468453Y39179D01*
X468541Y39244D01*
X468631Y39306D01*
X468723Y39365D01*
X468818Y39420D01*
X468914Y39472D01*
X469012Y39520D01*
X469112Y39565D01*
X469213Y39606D01*
X469316Y39643D01*
X469420Y39676D01*
X469525Y39706D01*
X469631Y39731D01*
X469739Y39753D01*
X469846Y39771D01*
X469955Y39785D01*
X470064Y39795D01*
X470173Y39801D01*
X470282Y39803D01*
X473274Y39803D01*
X479010Y24845D02*
X484993Y24845D01*
X492380Y26341D02*
X492380Y39803D01*
X496868Y32324D01*
X501355Y39803D01*
X501355Y26341D01*
X509481Y30080D02*
X509481Y36064D01*
X509483Y36185D01*
X509489Y36306D01*
X509499Y36427D01*
X509512Y36547D01*
X509530Y36667D01*
X509551Y36786D01*
X509577Y36904D01*
X509606Y37022D01*
X509639Y37139D01*
X509675Y37254D01*
X509716Y37368D01*
X509760Y37481D01*
X509808Y37592D01*
X509859Y37702D01*
X509914Y37810D01*
X509972Y37916D01*
X510034Y38020D01*
X510099Y38122D01*
X510167Y38222D01*
X510238Y38320D01*
X510313Y38415D01*
X510391Y38508D01*
X510471Y38599D01*
X510555Y38686D01*
X510641Y38771D01*
X510730Y38853D01*
X510822Y38933D01*
X510916Y39009D01*
X511012Y39082D01*
X511111Y39152D01*
X511212Y39218D01*
X511316Y39282D01*
X511421Y39342D01*
X511528Y39398D01*
X511637Y39451D01*
X511747Y39501D01*
X511859Y39547D01*
X511973Y39589D01*
X512088Y39627D01*
X512204Y39662D01*
X512321Y39693D01*
X512439Y39720D01*
X512557Y39744D01*
X512677Y39763D01*
X512797Y39779D01*
X512918Y39791D01*
X513038Y39799D01*
X513159Y39803D01*
X513281Y39803D01*
X513402Y39799D01*
X513522Y39791D01*
X513643Y39779D01*
X513763Y39763D01*
X513883Y39744D01*
X514001Y39720D01*
X514119Y39693D01*
X514236Y39662D01*
X514352Y39627D01*
X514467Y39589D01*
X514581Y39547D01*
X514693Y39501D01*
X514803Y39451D01*
X514912Y39398D01*
X515019Y39342D01*
X515124Y39282D01*
X515228Y39218D01*
X515329Y39152D01*
X515428Y39082D01*
X515524Y39009D01*
X515618Y38933D01*
X515710Y38853D01*
X515799Y38771D01*
X515885Y38686D01*
X515969Y38599D01*
X516049Y38508D01*
X516127Y38415D01*
X516202Y38320D01*
X516273Y38222D01*
X516341Y38122D01*
X516406Y38020D01*
X516468Y37916D01*
X516526Y37810D01*
X516581Y37702D01*
X516632Y37592D01*
X516680Y37481D01*
X516724Y37368D01*
X516765Y37254D01*
X516801Y37139D01*
X516834Y37022D01*
X516863Y36904D01*
X516889Y36786D01*
X516910Y36667D01*
X516928Y36547D01*
X516941Y36427D01*
X516951Y36306D01*
X516957Y36185D01*
X516959Y36064D01*
X516960Y36064D02*
X516960Y30080D01*
X516959Y30080D02*
X516957Y29959D01*
X516951Y29838D01*
X516941Y29717D01*
X516928Y29597D01*
X516910Y29477D01*
X516889Y29358D01*
X516863Y29240D01*
X516834Y29122D01*
X516801Y29005D01*
X516765Y28890D01*
X516724Y28776D01*
X516680Y28663D01*
X516632Y28552D01*
X516581Y28442D01*
X516526Y28334D01*
X516468Y28228D01*
X516406Y28124D01*
X516341Y28022D01*
X516273Y27922D01*
X516202Y27824D01*
X516127Y27729D01*
X516049Y27636D01*
X515969Y27545D01*
X515885Y27458D01*
X515799Y27373D01*
X515710Y27291D01*
X515618Y27211D01*
X515524Y27135D01*
X515428Y27062D01*
X515329Y26992D01*
X515228Y26926D01*
X515124Y26862D01*
X515019Y26802D01*
X514912Y26746D01*
X514803Y26693D01*
X514693Y26643D01*
X514581Y26597D01*
X514467Y26555D01*
X514352Y26517D01*
X514236Y26482D01*
X514119Y26451D01*
X514001Y26424D01*
X513883Y26400D01*
X513763Y26381D01*
X513643Y26365D01*
X513522Y26353D01*
X513402Y26345D01*
X513281Y26341D01*
X513159Y26341D01*
X513038Y26345D01*
X512918Y26353D01*
X512797Y26365D01*
X512677Y26381D01*
X512557Y26400D01*
X512439Y26424D01*
X512321Y26451D01*
X512204Y26482D01*
X512088Y26517D01*
X511973Y26555D01*
X511859Y26597D01*
X511747Y26643D01*
X511637Y26693D01*
X511528Y26746D01*
X511421Y26802D01*
X511316Y26862D01*
X511212Y26926D01*
X511111Y26992D01*
X511012Y27062D01*
X510916Y27135D01*
X510822Y27211D01*
X510730Y27291D01*
X510641Y27373D01*
X510555Y27458D01*
X510471Y27545D01*
X510391Y27636D01*
X510313Y27729D01*
X510238Y27824D01*
X510167Y27922D01*
X510099Y28022D01*
X510034Y28124D01*
X509972Y28228D01*
X509914Y28334D01*
X509859Y28442D01*
X509808Y28552D01*
X509760Y28663D01*
X509716Y28776D01*
X509675Y28890D01*
X509639Y29005D01*
X509606Y29122D01*
X509577Y29240D01*
X509551Y29358D01*
X509530Y29477D01*
X509512Y29597D01*
X509499Y29717D01*
X509489Y29838D01*
X509483Y29959D01*
X509481Y30080D01*
X524842Y26341D02*
X524842Y39803D01*
X528581Y39803D01*
X528701Y39801D01*
X528821Y39795D01*
X528940Y39786D01*
X529059Y39772D01*
X529178Y39755D01*
X529296Y39734D01*
X529413Y39709D01*
X529529Y39681D01*
X529645Y39648D01*
X529759Y39613D01*
X529872Y39573D01*
X529984Y39530D01*
X530094Y39483D01*
X530203Y39433D01*
X530310Y39379D01*
X530416Y39322D01*
X530519Y39261D01*
X530621Y39198D01*
X530720Y39131D01*
X530817Y39060D01*
X530912Y38987D01*
X531005Y38911D01*
X531095Y38832D01*
X531182Y38750D01*
X531267Y38665D01*
X531349Y38578D01*
X531428Y38488D01*
X531504Y38395D01*
X531577Y38300D01*
X531648Y38203D01*
X531715Y38104D01*
X531778Y38002D01*
X531839Y37899D01*
X531896Y37793D01*
X531950Y37686D01*
X532000Y37577D01*
X532047Y37467D01*
X532090Y37355D01*
X532130Y37242D01*
X532165Y37128D01*
X532198Y37012D01*
X532226Y36896D01*
X532251Y36779D01*
X532272Y36661D01*
X532289Y36542D01*
X532303Y36423D01*
X532312Y36304D01*
X532318Y36184D01*
X532320Y36064D01*
X532321Y36064D02*
X532321Y30080D01*
X532320Y30080D02*
X532318Y29960D01*
X532312Y29840D01*
X532303Y29721D01*
X532289Y29602D01*
X532272Y29483D01*
X532251Y29365D01*
X532226Y29248D01*
X532198Y29132D01*
X532165Y29016D01*
X532130Y28902D01*
X532090Y28789D01*
X532047Y28677D01*
X532000Y28567D01*
X531950Y28458D01*
X531896Y28351D01*
X531839Y28245D01*
X531778Y28142D01*
X531715Y28040D01*
X531648Y27941D01*
X531577Y27844D01*
X531504Y27749D01*
X531428Y27656D01*
X531349Y27566D01*
X531267Y27479D01*
X531182Y27394D01*
X531095Y27312D01*
X531005Y27233D01*
X530912Y27157D01*
X530817Y27084D01*
X530720Y27013D01*
X530621Y26946D01*
X530519Y26883D01*
X530416Y26822D01*
X530310Y26765D01*
X530203Y26711D01*
X530094Y26661D01*
X529984Y26614D01*
X529872Y26571D01*
X529759Y26531D01*
X529645Y26496D01*
X529529Y26463D01*
X529413Y26435D01*
X529296Y26410D01*
X529178Y26389D01*
X529059Y26372D01*
X528940Y26358D01*
X528821Y26349D01*
X528701Y26343D01*
X528581Y26341D01*
X524842Y26341D01*
X540699Y30080D02*
X540699Y39803D01*
X540699Y30080D02*
X540701Y29959D01*
X540707Y29838D01*
X540717Y29717D01*
X540730Y29597D01*
X540748Y29477D01*
X540769Y29358D01*
X540795Y29240D01*
X540824Y29122D01*
X540857Y29005D01*
X540893Y28890D01*
X540934Y28776D01*
X540978Y28663D01*
X541026Y28552D01*
X541077Y28442D01*
X541132Y28334D01*
X541190Y28228D01*
X541252Y28124D01*
X541317Y28022D01*
X541385Y27922D01*
X541456Y27824D01*
X541531Y27729D01*
X541609Y27636D01*
X541689Y27545D01*
X541773Y27458D01*
X541859Y27373D01*
X541948Y27291D01*
X542040Y27211D01*
X542134Y27135D01*
X542230Y27062D01*
X542329Y26992D01*
X542430Y26926D01*
X542534Y26862D01*
X542639Y26802D01*
X542746Y26746D01*
X542855Y26693D01*
X542965Y26643D01*
X543077Y26597D01*
X543191Y26555D01*
X543306Y26517D01*
X543422Y26482D01*
X543539Y26451D01*
X543657Y26424D01*
X543775Y26400D01*
X543895Y26381D01*
X544015Y26365D01*
X544136Y26353D01*
X544256Y26345D01*
X544377Y26341D01*
X544499Y26341D01*
X544620Y26345D01*
X544740Y26353D01*
X544861Y26365D01*
X544981Y26381D01*
X545101Y26400D01*
X545219Y26424D01*
X545337Y26451D01*
X545454Y26482D01*
X545570Y26517D01*
X545685Y26555D01*
X545799Y26597D01*
X545911Y26643D01*
X546021Y26693D01*
X546130Y26746D01*
X546237Y26802D01*
X546342Y26862D01*
X546446Y26926D01*
X546547Y26992D01*
X546646Y27062D01*
X546742Y27135D01*
X546836Y27211D01*
X546928Y27291D01*
X547017Y27373D01*
X547103Y27458D01*
X547187Y27545D01*
X547267Y27636D01*
X547345Y27729D01*
X547420Y27824D01*
X547491Y27922D01*
X547559Y28022D01*
X547624Y28124D01*
X547686Y28228D01*
X547744Y28334D01*
X547799Y28442D01*
X547850Y28552D01*
X547898Y28663D01*
X547942Y28776D01*
X547983Y28890D01*
X548019Y29005D01*
X548052Y29122D01*
X548081Y29240D01*
X548107Y29358D01*
X548128Y29477D01*
X548146Y29597D01*
X548159Y29717D01*
X548169Y29838D01*
X548175Y29959D01*
X548177Y30080D01*
X548178Y30080D02*
X548178Y39803D01*
X556606Y39803D02*
X556606Y26341D01*
X562589Y26341D01*
X569490Y26341D02*
X575473Y26341D01*
X569490Y26341D02*
X569490Y39803D01*
X575473Y39803D01*
X573977Y33820D02*
X569490Y33820D01*
D17*
X995222Y38000D02*
X995222Y43080D01*
X995222Y58320D02*
X995222Y170080D01*
X995222Y185320D02*
X995222Y215800D01*
X1350822Y215800D01*
X1350822Y58320D01*
X1350822Y43080D02*
X1350822Y38000D01*
X1345742Y38000D01*
X1330502Y38000D02*
X1000302Y38000D01*
X995222Y38000D01*
X1330502Y215800D02*
X1345742Y215800D01*
X1350822Y208180D01*
X1350822Y198020D01*
X1330502Y215800D02*
X1325422Y208180D01*
X1325422Y198020D02*
X1330502Y190400D01*
X1345742Y190400D01*
X1350822Y198020D01*
X1325422Y208180D02*
X1320342Y215800D01*
X1325422Y198020D02*
X1320342Y190400D01*
X1320342Y215800D02*
X1305102Y215800D01*
X1300022Y208180D01*
X1300022Y198020D02*
X1305102Y190400D01*
X1320342Y190400D01*
X1300022Y208180D02*
X1294942Y215800D01*
X1300022Y198020D02*
X1294942Y190400D01*
X1294942Y215800D02*
X1279702Y215800D01*
X1274622Y208180D01*
X1274622Y198020D02*
X1279702Y190400D01*
X1294942Y190400D01*
X1274622Y208180D02*
X1269542Y215800D01*
X1274622Y198020D02*
X1269542Y190400D01*
X1269542Y215800D02*
X1254302Y215800D01*
X1249222Y208180D01*
X1249222Y198020D02*
X1254302Y190400D01*
X1269542Y190400D01*
X1249222Y208180D02*
X1244142Y215800D01*
X1249222Y198020D02*
X1244142Y190400D01*
X1244142Y215800D02*
X1228902Y215800D01*
X1223822Y208180D01*
X1223822Y198020D02*
X1228902Y190400D01*
X1244142Y190400D01*
X1223822Y208180D02*
X1218742Y215800D01*
X1223822Y198020D02*
X1218742Y190400D01*
X1218742Y215800D02*
X1203502Y215800D01*
X1198422Y208180D01*
X1198422Y198020D02*
X1203502Y190400D01*
X1218742Y190400D01*
X1198422Y208180D02*
X1193342Y215800D01*
X1198422Y198020D02*
X1193342Y190400D01*
X1193342Y215800D02*
X1178102Y215800D01*
X1173022Y208180D01*
X1173022Y198020D02*
X1178102Y190400D01*
D11*
X1193342Y190400D01*
D17*
X1173022Y208180D02*
X1167942Y215800D01*
X1173022Y198020D02*
X1167942Y190400D01*
X1167942Y215800D02*
X1152702Y215800D01*
X1147622Y208180D01*
X1147622Y198020D02*
X1152702Y190400D01*
X1167942Y190400D01*
X1147622Y208180D02*
X1142542Y215800D01*
X1147622Y198020D02*
X1142542Y190400D01*
X1142542Y215800D02*
X1127302Y215800D01*
X1122222Y208180D01*
X1122222Y198020D02*
X1127302Y190400D01*
X1142542Y190400D01*
X1122222Y208180D02*
X1117142Y215800D01*
X1122222Y198020D02*
X1117142Y190400D01*
X1117142Y215800D02*
X1101902Y215800D01*
X1096822Y208180D01*
X1096822Y198020D02*
X1101902Y190400D01*
X1117142Y190400D01*
X1096822Y208180D02*
X1091742Y215800D01*
X1096822Y198020D02*
X1091742Y190400D01*
X1091742Y215800D02*
X1076502Y215800D01*
X1071422Y208180D01*
X1071422Y198020D02*
X1076502Y190400D01*
X1091742Y190400D01*
X1071422Y208180D02*
X1066342Y215800D01*
X1071422Y198020D02*
X1066342Y190400D01*
X1066342Y215800D02*
X1051102Y215800D01*
X1046022Y208180D01*
X1046022Y198020D02*
X1051102Y190400D01*
X1066342Y190400D01*
X1046022Y208180D02*
X1040942Y215800D01*
X1046022Y198020D02*
X1040942Y190400D01*
X1040942Y215800D02*
X1025702Y215800D01*
X1020622Y208180D01*
X1020622Y198020D02*
X1025702Y190400D01*
X1040942Y190400D01*
X1020622Y208180D02*
X1015542Y215800D01*
X1020622Y198020D02*
X1015542Y190400D01*
X1015542Y215800D02*
X1000302Y215800D01*
X995222Y208180D01*
X995222Y198020D02*
X1000302Y190400D01*
X995222Y198020D02*
X995222Y208180D01*
X995222Y185320D02*
X995222Y170080D01*
X1002842Y165000D01*
X1013002Y165000D02*
X1020622Y170080D01*
X1020622Y185320D01*
X1002842Y165000D02*
X995222Y159920D01*
X1013002Y165000D02*
X1020622Y159920D01*
X1020622Y185320D02*
X1015542Y190400D01*
X1000302Y190400D02*
X995222Y185320D01*
X1000302Y190400D02*
X1015542Y190400D01*
X995222Y159920D02*
X995222Y144680D01*
X1002842Y139600D01*
X1013002Y139600D02*
X1020622Y144680D01*
X1020622Y159920D01*
X1002842Y139600D02*
X995222Y134520D01*
X1013002Y139600D02*
X1020622Y134520D01*
X995222Y134520D02*
X995222Y119280D01*
X1002842Y114200D01*
X1013002Y114200D02*
X1020622Y119280D01*
X1020622Y134520D01*
X1002842Y114200D02*
X995222Y109120D01*
X1013002Y114200D02*
X1020622Y109120D01*
X995222Y109120D02*
X995222Y93880D01*
X1002842Y88800D01*
X1013002Y88800D02*
X1020622Y93880D01*
X1020622Y109120D01*
X1002842Y88800D02*
X995222Y83720D01*
X1013002Y88800D02*
X1020622Y83720D01*
X995222Y83720D02*
X995222Y68480D01*
X1000302Y63400D01*
X1015542Y63400D02*
X1020622Y68480D01*
X1020622Y83720D01*
X1025702Y63400D02*
X1040942Y63400D01*
X1025702Y63400D02*
X1020622Y55780D01*
X1020622Y45620D02*
X1025702Y38000D01*
D11*
X1040942Y38000D01*
D17*
X1020622Y55780D02*
X1015542Y63400D01*
X1020622Y45620D02*
X1015542Y38000D01*
X1051102Y63400D02*
X1066342Y63400D01*
X1051102Y63400D02*
X1046022Y55780D01*
X1046022Y45620D02*
X1051102Y38000D01*
D11*
X1066342Y38000D01*
D17*
X1046022Y55780D02*
X1040942Y63400D01*
X1046022Y45620D02*
X1040942Y38000D01*
X1076502Y63400D02*
X1091742Y63400D01*
X1076502Y63400D02*
X1071422Y55780D01*
X1071422Y45620D02*
X1076502Y38000D01*
D11*
X1091742Y38000D01*
D17*
X1071422Y55780D02*
X1066342Y63400D01*
X1071422Y45620D02*
X1066342Y38000D01*
X1101902Y63400D02*
X1117142Y63400D01*
X1101902Y63400D02*
X1096822Y55780D01*
X1096822Y45620D02*
X1101902Y38000D01*
D11*
X1117142Y38000D01*
D17*
X1096822Y55780D02*
X1091742Y63400D01*
X1096822Y45620D02*
X1091742Y38000D01*
X1127302Y63400D02*
X1142542Y63400D01*
X1127302Y63400D02*
X1122222Y55780D01*
X1122222Y45620D02*
X1127302Y38000D01*
D11*
X1142542Y38000D01*
D17*
X1122222Y55780D02*
X1117142Y63400D01*
X1122222Y45620D02*
X1117142Y38000D01*
X1152702Y63400D02*
X1167942Y63400D01*
X1152702Y63400D02*
X1147622Y55780D01*
X1147622Y45620D02*
X1152702Y38000D01*
D11*
X1167942Y38000D01*
D17*
X1147622Y55780D02*
X1142542Y63400D01*
X1147622Y45620D02*
X1142542Y38000D01*
X1178102Y63400D02*
X1193342Y63400D01*
X1178102Y63400D02*
X1173022Y55780D01*
X1173022Y45620D02*
X1178102Y38000D01*
D11*
X1193342Y38000D01*
D17*
X1173022Y55780D02*
X1167942Y63400D01*
X1173022Y45620D02*
X1167942Y38000D01*
X1203502Y63400D02*
X1218742Y63400D01*
X1203502Y63400D02*
X1198422Y55780D01*
X1198422Y45620D02*
X1203502Y38000D01*
D11*
X1218742Y38000D01*
D17*
X1198422Y55780D02*
X1193342Y63400D01*
X1198422Y45620D02*
X1193342Y38000D01*
X1228902Y63400D02*
X1244142Y63400D01*
X1228902Y63400D02*
X1223822Y55780D01*
X1223822Y45620D02*
X1228902Y38000D01*
D11*
X1244142Y38000D01*
D17*
X1223822Y55780D02*
X1218742Y63400D01*
X1223822Y45620D02*
X1218742Y38000D01*
X1254302Y63400D02*
X1269542Y63400D01*
X1254302Y63400D02*
X1249222Y55780D01*
X1249222Y45620D02*
X1254302Y38000D01*
D11*
X1269542Y38000D01*
D17*
X1249222Y55780D02*
X1244142Y63400D01*
X1249222Y45620D02*
X1244142Y38000D01*
X1279702Y63400D02*
X1294942Y63400D01*
X1279702Y63400D02*
X1274622Y55780D01*
X1274622Y45620D02*
X1279702Y38000D01*
D11*
X1294942Y38000D01*
D17*
X1274622Y55780D02*
X1269542Y63400D01*
X1274622Y45620D02*
X1269542Y38000D01*
X1305102Y63400D02*
X1320342Y63400D01*
X1305102Y63400D02*
X1300022Y55780D01*
X1300022Y45620D02*
X1305102Y38000D01*
X1320342Y38000D01*
X1300022Y55780D02*
X1294942Y63400D01*
X1300022Y45620D02*
X1294942Y38000D01*
X1330502Y63400D02*
X1345742Y63400D01*
X1330502Y63400D02*
X1325422Y55780D01*
X1325422Y45620D02*
X1330502Y38000D01*
X1345742Y38000D01*
X1325422Y55780D02*
X1320342Y63400D01*
X1325422Y45620D02*
X1320342Y38000D01*
X1015542Y63400D02*
X1000302Y63400D01*
X995222Y43080D02*
X1000302Y38000D01*
X995222Y43080D02*
X995222Y58320D01*
X1000302Y63400D01*
X1345742Y63400D02*
X1350822Y58320D01*
X1350822Y43080D01*
X1345742Y38000D01*
D10*
X1114426Y287714D02*
X1101726Y287714D01*
X1114426Y287714D02*
X1120776Y281364D01*
X1120776Y268664D01*
X1114426Y262314D01*
X1120776Y281364D02*
X1127126Y287714D01*
X1139826Y287714D01*
X1146176Y281364D01*
X1146176Y268664D01*
X1139826Y262314D01*
X1127126Y262314D01*
X1120776Y268664D01*
X1095376Y268664D02*
X1095376Y281364D01*
X1101726Y287714D01*
X1095376Y268664D02*
X1101726Y262314D01*
X1114426Y262314D01*
X1146176Y281364D02*
X1152526Y287714D01*
X1165226Y287714D01*
X1171576Y281364D01*
X1171576Y268664D01*
X1165226Y262314D01*
X1152526Y262314D01*
X1146176Y268664D01*
D11*
X1073186Y258129D02*
X1073186Y246699D01*
X1070011Y258129D02*
X1076361Y258129D01*
X1081085Y246699D02*
X1086165Y246699D01*
X1081085Y246699D02*
X1081085Y258129D01*
X1086165Y258129D01*
X1084895Y253049D02*
X1081085Y253049D01*
X1091093Y258129D02*
X1091093Y246699D01*
X1094903Y251779D02*
X1091093Y258129D01*
X1094903Y251779D02*
X1098713Y258129D01*
X1098713Y246699D01*
X1104872Y246699D02*
X1104872Y258129D01*
X1108047Y258129D01*
X1108158Y258127D01*
X1108268Y258121D01*
X1108379Y258112D01*
X1108489Y258098D01*
X1108598Y258081D01*
X1108707Y258060D01*
X1108815Y258035D01*
X1108922Y258006D01*
X1109028Y257974D01*
X1109133Y257938D01*
X1109236Y257898D01*
X1109338Y257855D01*
X1109439Y257808D01*
X1109538Y257757D01*
X1109635Y257704D01*
X1109729Y257647D01*
X1109822Y257586D01*
X1109913Y257523D01*
X1110002Y257456D01*
X1110088Y257386D01*
X1110171Y257313D01*
X1110253Y257238D01*
X1110331Y257160D01*
X1110406Y257078D01*
X1110479Y256995D01*
X1110549Y256909D01*
X1110616Y256820D01*
X1110679Y256729D01*
X1110740Y256636D01*
X1110797Y256541D01*
X1110850Y256445D01*
X1110901Y256346D01*
X1110948Y256245D01*
X1110991Y256143D01*
X1111031Y256040D01*
X1111067Y255935D01*
X1111099Y255829D01*
X1111128Y255722D01*
X1111153Y255614D01*
X1111174Y255505D01*
X1111191Y255396D01*
X1111205Y255286D01*
X1111214Y255175D01*
X1111220Y255065D01*
X1111222Y254954D01*
X1111220Y254843D01*
X1111214Y254733D01*
X1111205Y254622D01*
X1111191Y254512D01*
X1111174Y254403D01*
X1111153Y254294D01*
X1111128Y254186D01*
X1111099Y254079D01*
X1111067Y253973D01*
X1111031Y253868D01*
X1110991Y253765D01*
X1110948Y253663D01*
X1110901Y253562D01*
X1110850Y253463D01*
X1110797Y253366D01*
X1110740Y253272D01*
X1110679Y253179D01*
X1110616Y253088D01*
X1110549Y252999D01*
X1110479Y252913D01*
X1110406Y252830D01*
X1110331Y252748D01*
X1110253Y252670D01*
X1110171Y252595D01*
X1110088Y252522D01*
X1110002Y252452D01*
X1109913Y252385D01*
X1109822Y252322D01*
X1109729Y252261D01*
X1109635Y252204D01*
X1109538Y252151D01*
X1109439Y252100D01*
X1109338Y252053D01*
X1109236Y252010D01*
X1109133Y251970D01*
X1109028Y251934D01*
X1108922Y251902D01*
X1108815Y251873D01*
X1108707Y251848D01*
X1108598Y251827D01*
X1108489Y251810D01*
X1108379Y251796D01*
X1108268Y251787D01*
X1108158Y251781D01*
X1108047Y251779D01*
X1104872Y251779D01*
X1115223Y245429D02*
X1120303Y245429D01*
X1128304Y246699D02*
X1128404Y246701D01*
X1128503Y246707D01*
X1128603Y246717D01*
X1128701Y246730D01*
X1128800Y246748D01*
X1128897Y246769D01*
X1128993Y246794D01*
X1129089Y246823D01*
X1129183Y246856D01*
X1129276Y246892D01*
X1129367Y246932D01*
X1129457Y246976D01*
X1129545Y247023D01*
X1129631Y247073D01*
X1129715Y247127D01*
X1129797Y247184D01*
X1129876Y247244D01*
X1129954Y247308D01*
X1130028Y247374D01*
X1130100Y247443D01*
X1130169Y247515D01*
X1130235Y247589D01*
X1130299Y247667D01*
X1130359Y247746D01*
X1130416Y247828D01*
X1130470Y247912D01*
X1130520Y247998D01*
X1130567Y248086D01*
X1130611Y248176D01*
X1130651Y248267D01*
X1130687Y248360D01*
X1130720Y248454D01*
X1130749Y248550D01*
X1130774Y248646D01*
X1130795Y248743D01*
X1130813Y248842D01*
X1130826Y248940D01*
X1130836Y249040D01*
X1130842Y249139D01*
X1130844Y249239D01*
X1128304Y246699D02*
X1128163Y246701D01*
X1128022Y246706D01*
X1127881Y246716D01*
X1127740Y246729D01*
X1127600Y246745D01*
X1127460Y246766D01*
X1127321Y246790D01*
X1127182Y246818D01*
X1127045Y246849D01*
X1126908Y246884D01*
X1126772Y246922D01*
X1126637Y246964D01*
X1126504Y247010D01*
X1126371Y247059D01*
X1126240Y247112D01*
X1126111Y247168D01*
X1125982Y247227D01*
X1125856Y247290D01*
X1125731Y247356D01*
X1125608Y247425D01*
X1125487Y247498D01*
X1125368Y247574D01*
X1125250Y247653D01*
X1125135Y247734D01*
X1125023Y247819D01*
X1124912Y247907D01*
X1124804Y247998D01*
X1124698Y248091D01*
X1124595Y248188D01*
X1124494Y248287D01*
X1124811Y255589D02*
X1124813Y255689D01*
X1124819Y255788D01*
X1124829Y255888D01*
X1124842Y255986D01*
X1124860Y256085D01*
X1124881Y256182D01*
X1124906Y256278D01*
X1124935Y256374D01*
X1124968Y256468D01*
X1125004Y256561D01*
X1125044Y256652D01*
X1125088Y256742D01*
X1125135Y256830D01*
X1125185Y256916D01*
X1125239Y257000D01*
X1125296Y257082D01*
X1125356Y257161D01*
X1125420Y257239D01*
X1125486Y257313D01*
X1125555Y257385D01*
X1125627Y257454D01*
X1125701Y257520D01*
X1125779Y257584D01*
X1125858Y257644D01*
X1125940Y257701D01*
X1126024Y257755D01*
X1126110Y257805D01*
X1126198Y257852D01*
X1126288Y257896D01*
X1126379Y257936D01*
X1126472Y257972D01*
X1126566Y258005D01*
X1126662Y258034D01*
X1126758Y258059D01*
X1126855Y258080D01*
X1126954Y258098D01*
X1127052Y258111D01*
X1127152Y258121D01*
X1127251Y258127D01*
X1127351Y258129D01*
X1127351Y258130D02*
X1127484Y258128D01*
X1127617Y258123D01*
X1127750Y258113D01*
X1127883Y258100D01*
X1128015Y258083D01*
X1128147Y258063D01*
X1128278Y258039D01*
X1128408Y258011D01*
X1128538Y257980D01*
X1128666Y257945D01*
X1128794Y257906D01*
X1128920Y257864D01*
X1129045Y257818D01*
X1129169Y257769D01*
X1129292Y257717D01*
X1129413Y257661D01*
X1129532Y257601D01*
X1129650Y257539D01*
X1129765Y257473D01*
X1129879Y257404D01*
X1129991Y257331D01*
X1130101Y257256D01*
X1130209Y257177D01*
X1126081Y253366D02*
X1125997Y253418D01*
X1125914Y253473D01*
X1125834Y253532D01*
X1125756Y253593D01*
X1125681Y253657D01*
X1125608Y253725D01*
X1125537Y253795D01*
X1125470Y253867D01*
X1125405Y253942D01*
X1125343Y254020D01*
X1125284Y254100D01*
X1125228Y254182D01*
X1125176Y254266D01*
X1125127Y254352D01*
X1125081Y254440D01*
X1125038Y254530D01*
X1124999Y254621D01*
X1124964Y254714D01*
X1124932Y254808D01*
X1124904Y254903D01*
X1124879Y254999D01*
X1124859Y255096D01*
X1124841Y255194D01*
X1124828Y255292D01*
X1124819Y255391D01*
X1124813Y255490D01*
X1124811Y255589D01*
X1129574Y251462D02*
X1129658Y251410D01*
X1129741Y251355D01*
X1129821Y251296D01*
X1129899Y251235D01*
X1129974Y251171D01*
X1130047Y251103D01*
X1130118Y251033D01*
X1130185Y250961D01*
X1130250Y250886D01*
X1130312Y250808D01*
X1130371Y250728D01*
X1130427Y250646D01*
X1130479Y250562D01*
X1130528Y250476D01*
X1130574Y250388D01*
X1130617Y250298D01*
X1130656Y250207D01*
X1130691Y250114D01*
X1130723Y250020D01*
X1130751Y249925D01*
X1130776Y249829D01*
X1130796Y249732D01*
X1130814Y249634D01*
X1130827Y249536D01*
X1130836Y249437D01*
X1130842Y249338D01*
X1130844Y249239D01*
X1129574Y251462D02*
X1126081Y253367D01*
X1135949Y246699D02*
X1141029Y246699D01*
X1135949Y246699D02*
X1135949Y258129D01*
X1141029Y258129D01*
X1139759Y253049D02*
X1135949Y253049D01*
X1145830Y258129D02*
X1145830Y246699D01*
X1152180Y246699D02*
X1145830Y258129D01*
X1152180Y258129D02*
X1152180Y246699D01*
X1161070Y246699D02*
X1161170Y246701D01*
X1161269Y246707D01*
X1161369Y246717D01*
X1161467Y246730D01*
X1161566Y246748D01*
X1161663Y246769D01*
X1161759Y246794D01*
X1161855Y246823D01*
X1161949Y246856D01*
X1162042Y246892D01*
X1162133Y246932D01*
X1162223Y246976D01*
X1162311Y247023D01*
X1162397Y247073D01*
X1162481Y247127D01*
X1162563Y247184D01*
X1162642Y247244D01*
X1162720Y247308D01*
X1162794Y247374D01*
X1162866Y247443D01*
X1162935Y247515D01*
X1163001Y247589D01*
X1163065Y247667D01*
X1163125Y247746D01*
X1163182Y247828D01*
X1163236Y247912D01*
X1163286Y247998D01*
X1163333Y248086D01*
X1163377Y248176D01*
X1163417Y248267D01*
X1163453Y248360D01*
X1163486Y248454D01*
X1163515Y248550D01*
X1163540Y248646D01*
X1163561Y248743D01*
X1163579Y248842D01*
X1163592Y248940D01*
X1163602Y249040D01*
X1163608Y249139D01*
X1163610Y249239D01*
X1161070Y246699D02*
X1160929Y246701D01*
X1160788Y246706D01*
X1160647Y246716D01*
X1160506Y246729D01*
X1160366Y246745D01*
X1160226Y246766D01*
X1160087Y246790D01*
X1159948Y246818D01*
X1159811Y246849D01*
X1159674Y246884D01*
X1159538Y246922D01*
X1159403Y246964D01*
X1159270Y247010D01*
X1159137Y247059D01*
X1159006Y247112D01*
X1158877Y247168D01*
X1158748Y247227D01*
X1158622Y247290D01*
X1158497Y247356D01*
X1158374Y247425D01*
X1158253Y247498D01*
X1158134Y247574D01*
X1158016Y247653D01*
X1157901Y247734D01*
X1157789Y247819D01*
X1157678Y247907D01*
X1157570Y247998D01*
X1157464Y248091D01*
X1157361Y248188D01*
X1157260Y248287D01*
X1157577Y255589D02*
X1157579Y255689D01*
X1157585Y255788D01*
X1157595Y255888D01*
X1157608Y255986D01*
X1157626Y256085D01*
X1157647Y256182D01*
X1157672Y256278D01*
X1157701Y256374D01*
X1157734Y256468D01*
X1157770Y256561D01*
X1157810Y256652D01*
X1157854Y256742D01*
X1157901Y256830D01*
X1157951Y256916D01*
X1158005Y257000D01*
X1158062Y257082D01*
X1158122Y257161D01*
X1158186Y257239D01*
X1158252Y257313D01*
X1158321Y257385D01*
X1158393Y257454D01*
X1158467Y257520D01*
X1158545Y257584D01*
X1158624Y257644D01*
X1158706Y257701D01*
X1158790Y257755D01*
X1158876Y257805D01*
X1158964Y257852D01*
X1159054Y257896D01*
X1159145Y257936D01*
X1159238Y257972D01*
X1159332Y258005D01*
X1159428Y258034D01*
X1159524Y258059D01*
X1159621Y258080D01*
X1159720Y258098D01*
X1159818Y258111D01*
X1159918Y258121D01*
X1160017Y258127D01*
X1160117Y258129D01*
X1160117Y258130D02*
X1160250Y258128D01*
X1160383Y258123D01*
X1160516Y258113D01*
X1160649Y258100D01*
X1160781Y258083D01*
X1160913Y258063D01*
X1161044Y258039D01*
X1161174Y258011D01*
X1161304Y257980D01*
X1161432Y257945D01*
X1161560Y257906D01*
X1161686Y257864D01*
X1161811Y257818D01*
X1161935Y257769D01*
X1162058Y257717D01*
X1162179Y257661D01*
X1162298Y257601D01*
X1162416Y257539D01*
X1162531Y257473D01*
X1162645Y257404D01*
X1162757Y257331D01*
X1162867Y257256D01*
X1162975Y257177D01*
X1158847Y253366D02*
X1158763Y253418D01*
X1158680Y253473D01*
X1158600Y253532D01*
X1158522Y253593D01*
X1158447Y253657D01*
X1158374Y253725D01*
X1158303Y253795D01*
X1158236Y253867D01*
X1158171Y253942D01*
X1158109Y254020D01*
X1158050Y254100D01*
X1157994Y254182D01*
X1157942Y254266D01*
X1157893Y254352D01*
X1157847Y254440D01*
X1157804Y254530D01*
X1157765Y254621D01*
X1157730Y254714D01*
X1157698Y254808D01*
X1157670Y254903D01*
X1157645Y254999D01*
X1157625Y255096D01*
X1157607Y255194D01*
X1157594Y255292D01*
X1157585Y255391D01*
X1157579Y255490D01*
X1157577Y255589D01*
X1162340Y251462D02*
X1162424Y251410D01*
X1162507Y251355D01*
X1162587Y251296D01*
X1162665Y251235D01*
X1162740Y251171D01*
X1162813Y251103D01*
X1162884Y251033D01*
X1162951Y250961D01*
X1163016Y250886D01*
X1163078Y250808D01*
X1163137Y250728D01*
X1163193Y250646D01*
X1163245Y250562D01*
X1163294Y250476D01*
X1163340Y250388D01*
X1163383Y250298D01*
X1163422Y250207D01*
X1163457Y250114D01*
X1163489Y250020D01*
X1163517Y249925D01*
X1163542Y249829D01*
X1163562Y249732D01*
X1163580Y249634D01*
X1163593Y249536D01*
X1163602Y249437D01*
X1163608Y249338D01*
X1163610Y249239D01*
X1162340Y251462D02*
X1158847Y253367D01*
X1168309Y254954D02*
X1168309Y249874D01*
X1168309Y254954D02*
X1168311Y255065D01*
X1168317Y255175D01*
X1168326Y255286D01*
X1168340Y255396D01*
X1168357Y255505D01*
X1168378Y255614D01*
X1168403Y255722D01*
X1168432Y255829D01*
X1168464Y255935D01*
X1168500Y256040D01*
X1168540Y256143D01*
X1168583Y256245D01*
X1168630Y256346D01*
X1168681Y256445D01*
X1168734Y256542D01*
X1168791Y256636D01*
X1168852Y256729D01*
X1168915Y256820D01*
X1168982Y256909D01*
X1169052Y256995D01*
X1169125Y257078D01*
X1169200Y257160D01*
X1169278Y257238D01*
X1169360Y257313D01*
X1169443Y257386D01*
X1169529Y257456D01*
X1169618Y257523D01*
X1169709Y257586D01*
X1169802Y257647D01*
X1169897Y257704D01*
X1169993Y257757D01*
X1170092Y257808D01*
X1170193Y257855D01*
X1170295Y257898D01*
X1170398Y257938D01*
X1170503Y257974D01*
X1170609Y258006D01*
X1170716Y258035D01*
X1170824Y258060D01*
X1170933Y258081D01*
X1171042Y258098D01*
X1171152Y258112D01*
X1171263Y258121D01*
X1171373Y258127D01*
X1171484Y258129D01*
X1171595Y258127D01*
X1171705Y258121D01*
X1171816Y258112D01*
X1171926Y258098D01*
X1172035Y258081D01*
X1172144Y258060D01*
X1172252Y258035D01*
X1172359Y258006D01*
X1172465Y257974D01*
X1172570Y257938D01*
X1172673Y257898D01*
X1172775Y257855D01*
X1172876Y257808D01*
X1172975Y257757D01*
X1173072Y257704D01*
X1173166Y257647D01*
X1173259Y257586D01*
X1173350Y257523D01*
X1173439Y257456D01*
X1173525Y257386D01*
X1173608Y257313D01*
X1173690Y257238D01*
X1173768Y257160D01*
X1173843Y257078D01*
X1173916Y256995D01*
X1173986Y256909D01*
X1174053Y256820D01*
X1174116Y256729D01*
X1174177Y256636D01*
X1174234Y256542D01*
X1174287Y256445D01*
X1174338Y256346D01*
X1174385Y256245D01*
X1174428Y256143D01*
X1174468Y256040D01*
X1174504Y255935D01*
X1174536Y255829D01*
X1174565Y255722D01*
X1174590Y255614D01*
X1174611Y255505D01*
X1174628Y255396D01*
X1174642Y255286D01*
X1174651Y255175D01*
X1174657Y255065D01*
X1174659Y254954D01*
X1174659Y249874D01*
X1174657Y249763D01*
X1174651Y249653D01*
X1174642Y249542D01*
X1174628Y249432D01*
X1174611Y249323D01*
X1174590Y249214D01*
X1174565Y249106D01*
X1174536Y248999D01*
X1174504Y248893D01*
X1174468Y248788D01*
X1174428Y248685D01*
X1174385Y248583D01*
X1174338Y248482D01*
X1174287Y248383D01*
X1174234Y248286D01*
X1174177Y248192D01*
X1174116Y248099D01*
X1174053Y248008D01*
X1173986Y247919D01*
X1173916Y247833D01*
X1173843Y247750D01*
X1173768Y247668D01*
X1173690Y247590D01*
X1173608Y247515D01*
X1173525Y247442D01*
X1173439Y247372D01*
X1173350Y247305D01*
X1173259Y247242D01*
X1173166Y247181D01*
X1173072Y247124D01*
X1172975Y247071D01*
X1172876Y247020D01*
X1172775Y246973D01*
X1172673Y246930D01*
X1172570Y246890D01*
X1172465Y246854D01*
X1172359Y246822D01*
X1172252Y246793D01*
X1172144Y246768D01*
X1172035Y246747D01*
X1171926Y246730D01*
X1171816Y246716D01*
X1171705Y246707D01*
X1171595Y246701D01*
X1171484Y246699D01*
X1171373Y246701D01*
X1171263Y246707D01*
X1171152Y246716D01*
X1171042Y246730D01*
X1170933Y246747D01*
X1170824Y246768D01*
X1170716Y246793D01*
X1170609Y246822D01*
X1170503Y246854D01*
X1170398Y246890D01*
X1170295Y246930D01*
X1170193Y246973D01*
X1170092Y247020D01*
X1169993Y247071D01*
X1169897Y247124D01*
X1169802Y247181D01*
X1169709Y247242D01*
X1169618Y247305D01*
X1169529Y247372D01*
X1169443Y247442D01*
X1169360Y247515D01*
X1169278Y247590D01*
X1169200Y247668D01*
X1169125Y247750D01*
X1169052Y247833D01*
X1168982Y247919D01*
X1168915Y248008D01*
X1168852Y248099D01*
X1168791Y248192D01*
X1168734Y248287D01*
X1168681Y248383D01*
X1168630Y248482D01*
X1168583Y248583D01*
X1168540Y248685D01*
X1168500Y248788D01*
X1168464Y248893D01*
X1168432Y248999D01*
X1168403Y249106D01*
X1168378Y249214D01*
X1168357Y249323D01*
X1168340Y249432D01*
X1168326Y249542D01*
X1168317Y249653D01*
X1168311Y249763D01*
X1168309Y249874D01*
X1180203Y246699D02*
X1180203Y258129D01*
X1183378Y258129D01*
X1183489Y258127D01*
X1183599Y258121D01*
X1183710Y258112D01*
X1183820Y258098D01*
X1183929Y258081D01*
X1184038Y258060D01*
X1184146Y258035D01*
X1184253Y258006D01*
X1184359Y257974D01*
X1184464Y257938D01*
X1184567Y257898D01*
X1184669Y257855D01*
X1184770Y257808D01*
X1184869Y257757D01*
X1184966Y257704D01*
X1185060Y257647D01*
X1185153Y257586D01*
X1185244Y257523D01*
X1185333Y257456D01*
X1185419Y257386D01*
X1185502Y257313D01*
X1185584Y257238D01*
X1185662Y257160D01*
X1185737Y257078D01*
X1185810Y256995D01*
X1185880Y256909D01*
X1185947Y256820D01*
X1186010Y256729D01*
X1186071Y256636D01*
X1186128Y256541D01*
X1186181Y256445D01*
X1186232Y256346D01*
X1186279Y256245D01*
X1186322Y256143D01*
X1186362Y256040D01*
X1186398Y255935D01*
X1186430Y255829D01*
X1186459Y255722D01*
X1186484Y255614D01*
X1186505Y255505D01*
X1186522Y255396D01*
X1186536Y255286D01*
X1186545Y255175D01*
X1186551Y255065D01*
X1186553Y254954D01*
X1186551Y254843D01*
X1186545Y254733D01*
X1186536Y254622D01*
X1186522Y254512D01*
X1186505Y254403D01*
X1186484Y254294D01*
X1186459Y254186D01*
X1186430Y254079D01*
X1186398Y253973D01*
X1186362Y253868D01*
X1186322Y253765D01*
X1186279Y253663D01*
X1186232Y253562D01*
X1186181Y253463D01*
X1186128Y253366D01*
X1186071Y253272D01*
X1186010Y253179D01*
X1185947Y253088D01*
X1185880Y252999D01*
X1185810Y252913D01*
X1185737Y252830D01*
X1185662Y252748D01*
X1185584Y252670D01*
X1185502Y252595D01*
X1185419Y252522D01*
X1185333Y252452D01*
X1185244Y252385D01*
X1185153Y252322D01*
X1185060Y252261D01*
X1184966Y252204D01*
X1184869Y252151D01*
X1184770Y252100D01*
X1184669Y252053D01*
X1184567Y252010D01*
X1184464Y251970D01*
X1184359Y251934D01*
X1184253Y251902D01*
X1184146Y251873D01*
X1184038Y251848D01*
X1183929Y251827D01*
X1183820Y251810D01*
X1183710Y251796D01*
X1183599Y251787D01*
X1183489Y251781D01*
X1183378Y251779D01*
X1180203Y251779D01*
X1184013Y251779D02*
X1186553Y246699D01*
X1110650Y107408D02*
X1090350Y107408D01*
X1110650Y107408D02*
X1110650Y150608D01*
X1090350Y150608D01*
X1090350Y107408D01*
X1100500Y107408D02*
X1100500Y101648D01*
X1100500Y150608D02*
X1100500Y156368D01*
D16*
X1103492Y120084D02*
X1091808Y120084D01*
X1091808Y123330D01*
X1091810Y123443D01*
X1091816Y123556D01*
X1091826Y123669D01*
X1091840Y123782D01*
X1091857Y123894D01*
X1091879Y124005D01*
X1091904Y124115D01*
X1091934Y124225D01*
X1091967Y124333D01*
X1092004Y124440D01*
X1092044Y124546D01*
X1092089Y124650D01*
X1092137Y124753D01*
X1092188Y124854D01*
X1092243Y124953D01*
X1092301Y125050D01*
X1092363Y125145D01*
X1092428Y125238D01*
X1092496Y125328D01*
X1092567Y125416D01*
X1092642Y125502D01*
X1092719Y125585D01*
X1092799Y125665D01*
X1092882Y125742D01*
X1092968Y125817D01*
X1093056Y125888D01*
X1093146Y125956D01*
X1093239Y126021D01*
X1093334Y126083D01*
X1093431Y126141D01*
X1093530Y126196D01*
X1093631Y126247D01*
X1093734Y126295D01*
X1093838Y126340D01*
X1093944Y126380D01*
X1094051Y126417D01*
X1094159Y126450D01*
X1094269Y126480D01*
X1094379Y126505D01*
X1094490Y126527D01*
X1094602Y126544D01*
X1094715Y126558D01*
X1094828Y126568D01*
X1094941Y126574D01*
X1095054Y126576D01*
X1095167Y126574D01*
X1095280Y126568D01*
X1095393Y126558D01*
X1095506Y126544D01*
X1095618Y126527D01*
X1095729Y126505D01*
X1095839Y126480D01*
X1095949Y126450D01*
X1096057Y126417D01*
X1096164Y126380D01*
X1096270Y126340D01*
X1096374Y126295D01*
X1096477Y126247D01*
X1096578Y126196D01*
X1096677Y126141D01*
X1096774Y126083D01*
X1096869Y126021D01*
X1096962Y125956D01*
X1097052Y125888D01*
X1097140Y125817D01*
X1097226Y125742D01*
X1097309Y125665D01*
X1097389Y125585D01*
X1097466Y125502D01*
X1097541Y125416D01*
X1097612Y125328D01*
X1097680Y125238D01*
X1097745Y125145D01*
X1097807Y125050D01*
X1097865Y124953D01*
X1097920Y124854D01*
X1097971Y124753D01*
X1098019Y124650D01*
X1098064Y124546D01*
X1098104Y124440D01*
X1098141Y124333D01*
X1098174Y124225D01*
X1098204Y124115D01*
X1098229Y124005D01*
X1098251Y123894D01*
X1098268Y123782D01*
X1098282Y123669D01*
X1098292Y123556D01*
X1098298Y123443D01*
X1098300Y123330D01*
X1098299Y123330D02*
X1098299Y120084D01*
X1098299Y123979D02*
X1103492Y126575D01*
X1093106Y131441D02*
X1091808Y131441D01*
X1091808Y137932D01*
X1103492Y134686D01*
D10*
X43350Y156700D02*
X30650Y156700D01*
X43350Y156700D02*
X49700Y150350D01*
X49700Y137650D01*
X43350Y131300D01*
X24300Y137650D02*
X24300Y150350D01*
X30650Y156700D01*
X24300Y137650D02*
X30650Y131300D01*
X43350Y131300D01*
D11*
X16173Y128353D02*
X18713Y116923D01*
X21253Y124543D01*
X23793Y116923D01*
X26333Y128353D01*
X37001Y119463D02*
X36999Y119363D01*
X36993Y119264D01*
X36983Y119164D01*
X36970Y119066D01*
X36952Y118967D01*
X36931Y118870D01*
X36906Y118774D01*
X36877Y118678D01*
X36844Y118584D01*
X36808Y118491D01*
X36768Y118400D01*
X36724Y118310D01*
X36677Y118222D01*
X36627Y118136D01*
X36573Y118052D01*
X36516Y117970D01*
X36456Y117891D01*
X36392Y117813D01*
X36326Y117739D01*
X36257Y117667D01*
X36185Y117598D01*
X36111Y117532D01*
X36033Y117468D01*
X35954Y117408D01*
X35872Y117351D01*
X35788Y117297D01*
X35702Y117247D01*
X35614Y117200D01*
X35524Y117156D01*
X35433Y117116D01*
X35340Y117080D01*
X35246Y117047D01*
X35150Y117018D01*
X35054Y116993D01*
X34957Y116972D01*
X34858Y116954D01*
X34760Y116941D01*
X34660Y116931D01*
X34561Y116925D01*
X34461Y116923D01*
X34320Y116925D01*
X34179Y116930D01*
X34038Y116940D01*
X33897Y116953D01*
X33757Y116969D01*
X33617Y116990D01*
X33478Y117014D01*
X33339Y117042D01*
X33202Y117073D01*
X33065Y117108D01*
X32929Y117146D01*
X32794Y117188D01*
X32661Y117234D01*
X32528Y117283D01*
X32397Y117336D01*
X32268Y117392D01*
X32139Y117451D01*
X32013Y117514D01*
X31888Y117580D01*
X31765Y117649D01*
X31644Y117722D01*
X31525Y117798D01*
X31407Y117877D01*
X31292Y117958D01*
X31180Y118043D01*
X31069Y118131D01*
X30961Y118222D01*
X30855Y118315D01*
X30752Y118412D01*
X30651Y118511D01*
X30969Y125813D02*
X30971Y125913D01*
X30977Y126012D01*
X30987Y126112D01*
X31000Y126210D01*
X31018Y126309D01*
X31039Y126406D01*
X31064Y126502D01*
X31093Y126598D01*
X31126Y126692D01*
X31162Y126785D01*
X31202Y126876D01*
X31246Y126966D01*
X31293Y127054D01*
X31343Y127140D01*
X31397Y127224D01*
X31454Y127306D01*
X31514Y127385D01*
X31578Y127463D01*
X31644Y127537D01*
X31713Y127609D01*
X31785Y127678D01*
X31859Y127744D01*
X31937Y127808D01*
X32016Y127868D01*
X32098Y127925D01*
X32182Y127979D01*
X32268Y128029D01*
X32356Y128076D01*
X32446Y128120D01*
X32537Y128160D01*
X32630Y128196D01*
X32724Y128229D01*
X32820Y128258D01*
X32916Y128283D01*
X33013Y128304D01*
X33112Y128322D01*
X33210Y128335D01*
X33310Y128345D01*
X33409Y128351D01*
X33509Y128353D01*
X33509Y128354D02*
X33642Y128352D01*
X33775Y128347D01*
X33908Y128337D01*
X34041Y128324D01*
X34173Y128307D01*
X34305Y128287D01*
X34436Y128263D01*
X34566Y128235D01*
X34696Y128204D01*
X34824Y128169D01*
X34952Y128130D01*
X35078Y128088D01*
X35203Y128042D01*
X35327Y127993D01*
X35450Y127941D01*
X35571Y127885D01*
X35690Y127825D01*
X35808Y127763D01*
X35923Y127697D01*
X36037Y127628D01*
X36149Y127555D01*
X36259Y127480D01*
X36367Y127401D01*
X32238Y123590D02*
X32154Y123642D01*
X32071Y123697D01*
X31991Y123756D01*
X31913Y123817D01*
X31838Y123881D01*
X31765Y123949D01*
X31694Y124019D01*
X31627Y124091D01*
X31562Y124166D01*
X31500Y124244D01*
X31441Y124324D01*
X31385Y124406D01*
X31333Y124490D01*
X31284Y124576D01*
X31238Y124664D01*
X31195Y124754D01*
X31156Y124845D01*
X31121Y124938D01*
X31089Y125032D01*
X31061Y125127D01*
X31036Y125223D01*
X31016Y125320D01*
X30998Y125418D01*
X30985Y125516D01*
X30976Y125615D01*
X30970Y125714D01*
X30968Y125813D01*
X35731Y121686D02*
X35815Y121634D01*
X35898Y121579D01*
X35978Y121520D01*
X36056Y121459D01*
X36131Y121395D01*
X36204Y121327D01*
X36275Y121257D01*
X36342Y121185D01*
X36407Y121110D01*
X36469Y121032D01*
X36528Y120952D01*
X36584Y120870D01*
X36636Y120786D01*
X36685Y120700D01*
X36731Y120612D01*
X36774Y120522D01*
X36813Y120431D01*
X36848Y120338D01*
X36880Y120244D01*
X36908Y120149D01*
X36933Y120053D01*
X36953Y119956D01*
X36971Y119858D01*
X36984Y119760D01*
X36993Y119661D01*
X36999Y119562D01*
X37001Y119463D01*
X35731Y121686D02*
X32239Y123591D01*
X41192Y115653D02*
X46272Y115653D01*
X50844Y125813D02*
X54019Y128353D01*
X54019Y116923D01*
X50844Y116923D02*
X57194Y116923D01*
D10*
X43350Y99700D02*
X30650Y99700D01*
X43350Y99700D02*
X49700Y93350D01*
X49700Y80650D01*
X43350Y74300D01*
X24300Y80650D02*
X24300Y93350D01*
X30650Y99700D01*
X24300Y80650D02*
X30650Y74300D01*
X43350Y74300D01*
D11*
X13173Y71353D02*
X15713Y59923D01*
X18253Y67543D01*
X20793Y59923D01*
X23333Y71353D01*
X34001Y62463D02*
X33999Y62363D01*
X33993Y62264D01*
X33983Y62164D01*
X33970Y62066D01*
X33952Y61967D01*
X33931Y61870D01*
X33906Y61774D01*
X33877Y61678D01*
X33844Y61584D01*
X33808Y61491D01*
X33768Y61400D01*
X33724Y61310D01*
X33677Y61222D01*
X33627Y61136D01*
X33573Y61052D01*
X33516Y60970D01*
X33456Y60891D01*
X33392Y60813D01*
X33326Y60739D01*
X33257Y60667D01*
X33185Y60598D01*
X33111Y60532D01*
X33033Y60468D01*
X32954Y60408D01*
X32872Y60351D01*
X32788Y60297D01*
X32702Y60247D01*
X32614Y60200D01*
X32524Y60156D01*
X32433Y60116D01*
X32340Y60080D01*
X32246Y60047D01*
X32150Y60018D01*
X32054Y59993D01*
X31957Y59972D01*
X31858Y59954D01*
X31760Y59941D01*
X31660Y59931D01*
X31561Y59925D01*
X31461Y59923D01*
X31320Y59925D01*
X31179Y59930D01*
X31038Y59940D01*
X30897Y59953D01*
X30757Y59969D01*
X30617Y59990D01*
X30478Y60014D01*
X30339Y60042D01*
X30202Y60073D01*
X30065Y60108D01*
X29929Y60146D01*
X29794Y60188D01*
X29661Y60234D01*
X29528Y60283D01*
X29397Y60336D01*
X29268Y60392D01*
X29139Y60451D01*
X29013Y60514D01*
X28888Y60580D01*
X28765Y60649D01*
X28644Y60722D01*
X28525Y60798D01*
X28407Y60877D01*
X28292Y60958D01*
X28180Y61043D01*
X28069Y61131D01*
X27961Y61222D01*
X27855Y61315D01*
X27752Y61412D01*
X27651Y61511D01*
X27969Y68813D02*
X27971Y68913D01*
X27977Y69012D01*
X27987Y69112D01*
X28000Y69210D01*
X28018Y69309D01*
X28039Y69406D01*
X28064Y69502D01*
X28093Y69598D01*
X28126Y69692D01*
X28162Y69785D01*
X28202Y69876D01*
X28246Y69966D01*
X28293Y70054D01*
X28343Y70140D01*
X28397Y70224D01*
X28454Y70306D01*
X28514Y70385D01*
X28578Y70463D01*
X28644Y70537D01*
X28713Y70609D01*
X28785Y70678D01*
X28859Y70744D01*
X28937Y70808D01*
X29016Y70868D01*
X29098Y70925D01*
X29182Y70979D01*
X29268Y71029D01*
X29356Y71076D01*
X29446Y71120D01*
X29537Y71160D01*
X29630Y71196D01*
X29724Y71229D01*
X29820Y71258D01*
X29916Y71283D01*
X30013Y71304D01*
X30112Y71322D01*
X30210Y71335D01*
X30310Y71345D01*
X30409Y71351D01*
X30509Y71353D01*
X30509Y71354D02*
X30642Y71352D01*
X30775Y71347D01*
X30908Y71337D01*
X31041Y71324D01*
X31173Y71307D01*
X31305Y71287D01*
X31436Y71263D01*
X31566Y71235D01*
X31696Y71204D01*
X31824Y71169D01*
X31952Y71130D01*
X32078Y71088D01*
X32203Y71042D01*
X32327Y70993D01*
X32450Y70941D01*
X32571Y70885D01*
X32690Y70825D01*
X32808Y70763D01*
X32923Y70697D01*
X33037Y70628D01*
X33149Y70555D01*
X33259Y70480D01*
X33367Y70401D01*
X29238Y66590D02*
X29154Y66642D01*
X29071Y66697D01*
X28991Y66756D01*
X28913Y66817D01*
X28838Y66881D01*
X28765Y66949D01*
X28694Y67019D01*
X28627Y67091D01*
X28562Y67166D01*
X28500Y67244D01*
X28441Y67324D01*
X28385Y67406D01*
X28333Y67490D01*
X28284Y67576D01*
X28238Y67664D01*
X28195Y67754D01*
X28156Y67845D01*
X28121Y67938D01*
X28089Y68032D01*
X28061Y68127D01*
X28036Y68223D01*
X28016Y68320D01*
X27998Y68418D01*
X27985Y68516D01*
X27976Y68615D01*
X27970Y68714D01*
X27968Y68813D01*
X32731Y64686D02*
X32815Y64634D01*
X32898Y64579D01*
X32978Y64520D01*
X33056Y64459D01*
X33131Y64395D01*
X33204Y64327D01*
X33275Y64257D01*
X33342Y64185D01*
X33407Y64110D01*
X33469Y64032D01*
X33528Y63952D01*
X33584Y63870D01*
X33636Y63786D01*
X33685Y63700D01*
X33731Y63612D01*
X33774Y63522D01*
X33813Y63431D01*
X33848Y63338D01*
X33880Y63244D01*
X33908Y63149D01*
X33933Y63053D01*
X33953Y62956D01*
X33971Y62858D01*
X33984Y62760D01*
X33993Y62661D01*
X33999Y62562D01*
X34001Y62463D01*
X32731Y64686D02*
X29239Y66591D01*
X38192Y58653D02*
X43272Y58653D01*
X54195Y68496D02*
X54193Y68600D01*
X54187Y68705D01*
X54178Y68809D01*
X54165Y68912D01*
X54147Y69015D01*
X54127Y69117D01*
X54102Y69219D01*
X54074Y69319D01*
X54042Y69419D01*
X54006Y69517D01*
X53967Y69614D01*
X53925Y69709D01*
X53879Y69803D01*
X53829Y69895D01*
X53777Y69985D01*
X53721Y70073D01*
X53661Y70159D01*
X53599Y70243D01*
X53534Y70324D01*
X53466Y70403D01*
X53394Y70480D01*
X53321Y70553D01*
X53244Y70625D01*
X53165Y70693D01*
X53084Y70758D01*
X53000Y70820D01*
X52914Y70880D01*
X52826Y70936D01*
X52736Y70988D01*
X52644Y71038D01*
X52550Y71084D01*
X52455Y71126D01*
X52358Y71165D01*
X52260Y71201D01*
X52160Y71233D01*
X52060Y71261D01*
X51958Y71286D01*
X51856Y71306D01*
X51753Y71324D01*
X51650Y71337D01*
X51546Y71346D01*
X51441Y71352D01*
X51337Y71354D01*
X51337Y71353D02*
X51219Y71351D01*
X51100Y71345D01*
X50982Y71336D01*
X50865Y71323D01*
X50748Y71305D01*
X50631Y71285D01*
X50515Y71260D01*
X50400Y71232D01*
X50287Y71199D01*
X50174Y71164D01*
X50062Y71124D01*
X49952Y71082D01*
X49843Y71035D01*
X49735Y70985D01*
X49630Y70932D01*
X49526Y70875D01*
X49424Y70815D01*
X49324Y70752D01*
X49226Y70685D01*
X49130Y70616D01*
X49037Y70543D01*
X48946Y70467D01*
X48857Y70389D01*
X48771Y70307D01*
X48688Y70223D01*
X48607Y70137D01*
X48530Y70047D01*
X48455Y69956D01*
X48383Y69862D01*
X48314Y69765D01*
X48249Y69667D01*
X48186Y69566D01*
X48127Y69463D01*
X48071Y69359D01*
X48019Y69253D01*
X47970Y69145D01*
X47925Y69036D01*
X47883Y68925D01*
X47845Y68813D01*
X53242Y66274D02*
X53318Y66349D01*
X53393Y66428D01*
X53464Y66509D01*
X53533Y66593D01*
X53598Y66679D01*
X53660Y66767D01*
X53720Y66857D01*
X53776Y66949D01*
X53829Y67044D01*
X53878Y67140D01*
X53924Y67238D01*
X53967Y67337D01*
X54006Y67438D01*
X54041Y67540D01*
X54073Y67643D01*
X54101Y67747D01*
X54126Y67852D01*
X54147Y67959D01*
X54164Y68065D01*
X54177Y68172D01*
X54186Y68280D01*
X54192Y68388D01*
X54194Y68496D01*
X53242Y66273D02*
X47844Y59923D01*
X54194Y59923D01*
D10*
X993650Y284700D02*
X1006350Y284700D01*
X1012700Y278350D01*
X1012700Y265650D01*
X1006350Y259300D01*
X987300Y265650D02*
X987300Y278350D01*
X993650Y284700D01*
X987300Y265650D02*
X993650Y259300D01*
X1006350Y259300D01*
D11*
X975983Y243923D02*
X972173Y255353D01*
X979793Y255353D02*
X975983Y243923D01*
X984619Y243923D02*
X984619Y255353D01*
X984619Y250273D02*
X990969Y250273D01*
X990969Y255353D02*
X990969Y243923D01*
X997319Y243923D02*
X997319Y255353D01*
X996049Y243923D02*
X998589Y243923D01*
X998589Y255353D02*
X996049Y255353D01*
X1002780Y242653D02*
X1007860Y242653D01*
X1014845Y243923D02*
X1014845Y255353D01*
X1011670Y255353D02*
X1018020Y255353D01*
X1022910Y255353D02*
X1022910Y243923D01*
X1022910Y255353D02*
X1026085Y255353D01*
X1026196Y255351D01*
X1026306Y255345D01*
X1026417Y255336D01*
X1026527Y255322D01*
X1026636Y255305D01*
X1026745Y255284D01*
X1026853Y255259D01*
X1026960Y255230D01*
X1027066Y255198D01*
X1027171Y255162D01*
X1027274Y255122D01*
X1027376Y255079D01*
X1027477Y255032D01*
X1027576Y254981D01*
X1027673Y254928D01*
X1027767Y254871D01*
X1027860Y254810D01*
X1027951Y254747D01*
X1028040Y254680D01*
X1028126Y254610D01*
X1028209Y254537D01*
X1028291Y254462D01*
X1028369Y254384D01*
X1028444Y254302D01*
X1028517Y254219D01*
X1028587Y254133D01*
X1028654Y254044D01*
X1028717Y253953D01*
X1028778Y253860D01*
X1028835Y253765D01*
X1028888Y253669D01*
X1028939Y253570D01*
X1028986Y253469D01*
X1029029Y253367D01*
X1029069Y253264D01*
X1029105Y253159D01*
X1029137Y253053D01*
X1029166Y252946D01*
X1029191Y252838D01*
X1029212Y252729D01*
X1029229Y252620D01*
X1029243Y252510D01*
X1029252Y252399D01*
X1029258Y252289D01*
X1029260Y252178D01*
X1029258Y252067D01*
X1029252Y251957D01*
X1029243Y251846D01*
X1029229Y251736D01*
X1029212Y251627D01*
X1029191Y251518D01*
X1029166Y251410D01*
X1029137Y251303D01*
X1029105Y251197D01*
X1029069Y251092D01*
X1029029Y250989D01*
X1028986Y250887D01*
X1028939Y250786D01*
X1028888Y250687D01*
X1028835Y250590D01*
X1028778Y250496D01*
X1028717Y250403D01*
X1028654Y250312D01*
X1028587Y250223D01*
X1028517Y250137D01*
X1028444Y250054D01*
X1028369Y249972D01*
X1028291Y249894D01*
X1028209Y249819D01*
X1028126Y249746D01*
X1028040Y249676D01*
X1027951Y249609D01*
X1027860Y249546D01*
X1027767Y249485D01*
X1027673Y249428D01*
X1027576Y249375D01*
X1027477Y249324D01*
X1027376Y249277D01*
X1027274Y249234D01*
X1027171Y249194D01*
X1027066Y249158D01*
X1026960Y249126D01*
X1026853Y249097D01*
X1026745Y249072D01*
X1026636Y249051D01*
X1026527Y249034D01*
X1026417Y249020D01*
X1026306Y249011D01*
X1026196Y249005D01*
X1026085Y249003D01*
X1022910Y249003D01*
D10*
X1416650Y43700D02*
X1429350Y43700D01*
X1435700Y37350D01*
X1435700Y24650D01*
X1429350Y18300D01*
X1410300Y24650D02*
X1410300Y37350D01*
X1416650Y43700D01*
X1410300Y24650D02*
X1416650Y18300D01*
X1429350Y18300D01*
D11*
X1404523Y58273D02*
X1402618Y58273D01*
X1404523Y58273D02*
X1404523Y51923D01*
X1400713Y51923D01*
X1400613Y51925D01*
X1400514Y51931D01*
X1400414Y51941D01*
X1400316Y51954D01*
X1400217Y51972D01*
X1400120Y51993D01*
X1400024Y52018D01*
X1399928Y52047D01*
X1399834Y52080D01*
X1399741Y52116D01*
X1399650Y52156D01*
X1399560Y52200D01*
X1399472Y52247D01*
X1399386Y52297D01*
X1399302Y52351D01*
X1399220Y52408D01*
X1399141Y52468D01*
X1399063Y52532D01*
X1398989Y52598D01*
X1398917Y52667D01*
X1398848Y52739D01*
X1398782Y52813D01*
X1398718Y52891D01*
X1398658Y52970D01*
X1398601Y53052D01*
X1398547Y53136D01*
X1398497Y53222D01*
X1398450Y53310D01*
X1398406Y53400D01*
X1398366Y53491D01*
X1398330Y53584D01*
X1398297Y53678D01*
X1398268Y53774D01*
X1398243Y53870D01*
X1398222Y53967D01*
X1398204Y54066D01*
X1398191Y54164D01*
X1398181Y54264D01*
X1398175Y54363D01*
X1398173Y54463D01*
X1398173Y60813D01*
X1398175Y60913D01*
X1398181Y61012D01*
X1398191Y61112D01*
X1398204Y61210D01*
X1398222Y61309D01*
X1398243Y61406D01*
X1398268Y61502D01*
X1398297Y61598D01*
X1398330Y61692D01*
X1398366Y61785D01*
X1398406Y61876D01*
X1398450Y61966D01*
X1398497Y62054D01*
X1398547Y62140D01*
X1398601Y62224D01*
X1398658Y62306D01*
X1398718Y62385D01*
X1398782Y62463D01*
X1398848Y62537D01*
X1398917Y62609D01*
X1398989Y62678D01*
X1399063Y62744D01*
X1399141Y62808D01*
X1399220Y62868D01*
X1399302Y62925D01*
X1399386Y62979D01*
X1399472Y63029D01*
X1399560Y63076D01*
X1399650Y63120D01*
X1399741Y63160D01*
X1399834Y63196D01*
X1399928Y63229D01*
X1400024Y63258D01*
X1400120Y63283D01*
X1400217Y63304D01*
X1400316Y63322D01*
X1400414Y63335D01*
X1400514Y63345D01*
X1400613Y63351D01*
X1400713Y63353D01*
X1404523Y63353D01*
X1410365Y63353D02*
X1410365Y51923D01*
X1416715Y51923D02*
X1410365Y63353D01*
X1416715Y63353D02*
X1416715Y51923D01*
X1422557Y51923D02*
X1422557Y63353D01*
X1425732Y63353D01*
X1425843Y63351D01*
X1425953Y63345D01*
X1426064Y63336D01*
X1426174Y63322D01*
X1426283Y63305D01*
X1426392Y63284D01*
X1426500Y63259D01*
X1426607Y63230D01*
X1426713Y63198D01*
X1426818Y63162D01*
X1426921Y63122D01*
X1427023Y63079D01*
X1427124Y63032D01*
X1427223Y62981D01*
X1427320Y62928D01*
X1427414Y62871D01*
X1427507Y62810D01*
X1427598Y62747D01*
X1427687Y62680D01*
X1427773Y62610D01*
X1427856Y62537D01*
X1427938Y62462D01*
X1428016Y62384D01*
X1428091Y62302D01*
X1428164Y62219D01*
X1428234Y62133D01*
X1428301Y62044D01*
X1428364Y61953D01*
X1428425Y61860D01*
X1428482Y61766D01*
X1428535Y61669D01*
X1428586Y61570D01*
X1428633Y61469D01*
X1428676Y61367D01*
X1428716Y61264D01*
X1428752Y61159D01*
X1428784Y61053D01*
X1428813Y60946D01*
X1428838Y60838D01*
X1428859Y60729D01*
X1428876Y60620D01*
X1428890Y60510D01*
X1428899Y60399D01*
X1428905Y60289D01*
X1428907Y60178D01*
X1428907Y55098D01*
X1428905Y54987D01*
X1428899Y54877D01*
X1428890Y54766D01*
X1428876Y54656D01*
X1428859Y54547D01*
X1428838Y54438D01*
X1428813Y54330D01*
X1428784Y54223D01*
X1428752Y54117D01*
X1428716Y54012D01*
X1428676Y53909D01*
X1428633Y53807D01*
X1428586Y53706D01*
X1428535Y53607D01*
X1428482Y53510D01*
X1428425Y53416D01*
X1428364Y53323D01*
X1428301Y53232D01*
X1428234Y53143D01*
X1428164Y53057D01*
X1428091Y52974D01*
X1428016Y52892D01*
X1427938Y52814D01*
X1427856Y52739D01*
X1427773Y52666D01*
X1427687Y52596D01*
X1427598Y52529D01*
X1427507Y52466D01*
X1427414Y52405D01*
X1427320Y52348D01*
X1427223Y52295D01*
X1427124Y52244D01*
X1427023Y52197D01*
X1426921Y52154D01*
X1426818Y52114D01*
X1426713Y52078D01*
X1426607Y52046D01*
X1426500Y52017D01*
X1426392Y51992D01*
X1426283Y51971D01*
X1426174Y51954D01*
X1426064Y51940D01*
X1425953Y51931D01*
X1425843Y51925D01*
X1425732Y51923D01*
X1422557Y51923D01*
X1433860Y50653D02*
X1438940Y50653D01*
X1445925Y51923D02*
X1445925Y63353D01*
X1442750Y63353D02*
X1449100Y63353D01*
X1453990Y63353D02*
X1453990Y51923D01*
X1453990Y63353D02*
X1457165Y63353D01*
X1457276Y63351D01*
X1457386Y63345D01*
X1457497Y63336D01*
X1457607Y63322D01*
X1457716Y63305D01*
X1457825Y63284D01*
X1457933Y63259D01*
X1458040Y63230D01*
X1458146Y63198D01*
X1458251Y63162D01*
X1458354Y63122D01*
X1458456Y63079D01*
X1458557Y63032D01*
X1458656Y62981D01*
X1458753Y62928D01*
X1458847Y62871D01*
X1458940Y62810D01*
X1459031Y62747D01*
X1459120Y62680D01*
X1459206Y62610D01*
X1459289Y62537D01*
X1459371Y62462D01*
X1459449Y62384D01*
X1459524Y62302D01*
X1459597Y62219D01*
X1459667Y62133D01*
X1459734Y62044D01*
X1459797Y61953D01*
X1459858Y61860D01*
X1459915Y61765D01*
X1459968Y61669D01*
X1460019Y61570D01*
X1460066Y61469D01*
X1460109Y61367D01*
X1460149Y61264D01*
X1460185Y61159D01*
X1460217Y61053D01*
X1460246Y60946D01*
X1460271Y60838D01*
X1460292Y60729D01*
X1460309Y60620D01*
X1460323Y60510D01*
X1460332Y60399D01*
X1460338Y60289D01*
X1460340Y60178D01*
X1460338Y60067D01*
X1460332Y59957D01*
X1460323Y59846D01*
X1460309Y59736D01*
X1460292Y59627D01*
X1460271Y59518D01*
X1460246Y59410D01*
X1460217Y59303D01*
X1460185Y59197D01*
X1460149Y59092D01*
X1460109Y58989D01*
X1460066Y58887D01*
X1460019Y58786D01*
X1459968Y58687D01*
X1459915Y58590D01*
X1459858Y58496D01*
X1459797Y58403D01*
X1459734Y58312D01*
X1459667Y58223D01*
X1459597Y58137D01*
X1459524Y58054D01*
X1459449Y57972D01*
X1459371Y57894D01*
X1459289Y57819D01*
X1459206Y57746D01*
X1459120Y57676D01*
X1459031Y57609D01*
X1458940Y57546D01*
X1458847Y57485D01*
X1458753Y57428D01*
X1458656Y57375D01*
X1458557Y57324D01*
X1458456Y57277D01*
X1458354Y57234D01*
X1458251Y57194D01*
X1458146Y57158D01*
X1458040Y57126D01*
X1457933Y57097D01*
X1457825Y57072D01*
X1457716Y57051D01*
X1457607Y57034D01*
X1457497Y57020D01*
X1457386Y57011D01*
X1457276Y57005D01*
X1457165Y57003D01*
X1453990Y57003D01*
D10*
X1416350Y181700D02*
X1403650Y181700D01*
X1416350Y181700D02*
X1422700Y175350D01*
X1422700Y162650D01*
X1416350Y156300D01*
X1397300Y162650D02*
X1397300Y175350D01*
X1403650Y181700D01*
X1397300Y162650D02*
X1403650Y156300D01*
X1416350Y156300D01*
D11*
X1355348Y192273D02*
X1352173Y192273D01*
X1355348Y192273D02*
X1355459Y192271D01*
X1355569Y192265D01*
X1355680Y192256D01*
X1355790Y192242D01*
X1355899Y192225D01*
X1356008Y192204D01*
X1356116Y192179D01*
X1356223Y192150D01*
X1356329Y192118D01*
X1356434Y192082D01*
X1356537Y192042D01*
X1356639Y191999D01*
X1356740Y191952D01*
X1356839Y191901D01*
X1356936Y191848D01*
X1357030Y191791D01*
X1357123Y191730D01*
X1357214Y191667D01*
X1357303Y191600D01*
X1357389Y191530D01*
X1357472Y191457D01*
X1357554Y191382D01*
X1357632Y191304D01*
X1357707Y191222D01*
X1357780Y191139D01*
X1357850Y191053D01*
X1357917Y190964D01*
X1357980Y190873D01*
X1358041Y190780D01*
X1358098Y190685D01*
X1358151Y190589D01*
X1358202Y190490D01*
X1358249Y190389D01*
X1358292Y190287D01*
X1358332Y190184D01*
X1358368Y190079D01*
X1358400Y189973D01*
X1358429Y189866D01*
X1358454Y189758D01*
X1358475Y189649D01*
X1358492Y189540D01*
X1358506Y189430D01*
X1358515Y189319D01*
X1358521Y189209D01*
X1358523Y189098D01*
X1358521Y188987D01*
X1358515Y188877D01*
X1358506Y188766D01*
X1358492Y188656D01*
X1358475Y188547D01*
X1358454Y188438D01*
X1358429Y188330D01*
X1358400Y188223D01*
X1358368Y188117D01*
X1358332Y188012D01*
X1358292Y187909D01*
X1358249Y187807D01*
X1358202Y187706D01*
X1358151Y187607D01*
X1358098Y187510D01*
X1358041Y187416D01*
X1357980Y187323D01*
X1357917Y187232D01*
X1357850Y187143D01*
X1357780Y187057D01*
X1357707Y186974D01*
X1357632Y186892D01*
X1357554Y186814D01*
X1357472Y186739D01*
X1357389Y186666D01*
X1357303Y186596D01*
X1357214Y186529D01*
X1357123Y186466D01*
X1357030Y186405D01*
X1356936Y186348D01*
X1356839Y186295D01*
X1356740Y186244D01*
X1356639Y186197D01*
X1356537Y186154D01*
X1356434Y186114D01*
X1356329Y186078D01*
X1356223Y186046D01*
X1356116Y186017D01*
X1356008Y185992D01*
X1355899Y185971D01*
X1355790Y185954D01*
X1355680Y185940D01*
X1355569Y185931D01*
X1355459Y185925D01*
X1355348Y185923D01*
X1352173Y185923D01*
X1352173Y197353D01*
X1355348Y197353D01*
X1355448Y197351D01*
X1355547Y197345D01*
X1355647Y197335D01*
X1355745Y197322D01*
X1355844Y197304D01*
X1355941Y197283D01*
X1356037Y197258D01*
X1356133Y197229D01*
X1356227Y197196D01*
X1356320Y197160D01*
X1356411Y197120D01*
X1356501Y197076D01*
X1356589Y197029D01*
X1356675Y196979D01*
X1356759Y196925D01*
X1356841Y196868D01*
X1356920Y196808D01*
X1356998Y196744D01*
X1357072Y196678D01*
X1357144Y196609D01*
X1357213Y196537D01*
X1357279Y196463D01*
X1357343Y196385D01*
X1357403Y196306D01*
X1357460Y196224D01*
X1357514Y196140D01*
X1357564Y196054D01*
X1357611Y195966D01*
X1357655Y195876D01*
X1357695Y195785D01*
X1357731Y195692D01*
X1357764Y195598D01*
X1357793Y195502D01*
X1357818Y195406D01*
X1357839Y195309D01*
X1357857Y195210D01*
X1357870Y195112D01*
X1357880Y195012D01*
X1357886Y194913D01*
X1357888Y194813D01*
X1357886Y194713D01*
X1357880Y194614D01*
X1357870Y194514D01*
X1357857Y194416D01*
X1357839Y194317D01*
X1357818Y194220D01*
X1357793Y194124D01*
X1357764Y194028D01*
X1357731Y193934D01*
X1357695Y193841D01*
X1357655Y193750D01*
X1357611Y193660D01*
X1357564Y193572D01*
X1357514Y193486D01*
X1357460Y193402D01*
X1357403Y193320D01*
X1357343Y193241D01*
X1357279Y193163D01*
X1357213Y193089D01*
X1357144Y193017D01*
X1357072Y192948D01*
X1356998Y192882D01*
X1356920Y192818D01*
X1356841Y192758D01*
X1356759Y192701D01*
X1356675Y192647D01*
X1356589Y192597D01*
X1356501Y192550D01*
X1356411Y192506D01*
X1356320Y192466D01*
X1356227Y192430D01*
X1356133Y192397D01*
X1356037Y192368D01*
X1355941Y192343D01*
X1355844Y192322D01*
X1355745Y192304D01*
X1355647Y192291D01*
X1355547Y192281D01*
X1355448Y192275D01*
X1355348Y192273D01*
X1362397Y185923D02*
X1366207Y197353D01*
X1370017Y185923D01*
X1369064Y188781D02*
X1363349Y188781D01*
X1376875Y185923D02*
X1376875Y197353D01*
X1373700Y197353D02*
X1380050Y197353D01*
X1386781Y197353D02*
X1386781Y185923D01*
X1383606Y197353D02*
X1389956Y197353D01*
X1393766Y184653D02*
X1398846Y184653D01*
X1405831Y185923D02*
X1405831Y197353D01*
X1402656Y197353D02*
X1409006Y197353D01*
X1413895Y197353D02*
X1413895Y185923D01*
X1413895Y197353D02*
X1417070Y197353D01*
X1417181Y197351D01*
X1417291Y197345D01*
X1417402Y197336D01*
X1417512Y197322D01*
X1417621Y197305D01*
X1417730Y197284D01*
X1417838Y197259D01*
X1417945Y197230D01*
X1418051Y197198D01*
X1418156Y197162D01*
X1418259Y197122D01*
X1418361Y197079D01*
X1418462Y197032D01*
X1418561Y196981D01*
X1418658Y196928D01*
X1418752Y196871D01*
X1418845Y196810D01*
X1418936Y196747D01*
X1419025Y196680D01*
X1419111Y196610D01*
X1419194Y196537D01*
X1419276Y196462D01*
X1419354Y196384D01*
X1419429Y196302D01*
X1419502Y196219D01*
X1419572Y196133D01*
X1419639Y196044D01*
X1419702Y195953D01*
X1419763Y195860D01*
X1419820Y195765D01*
X1419873Y195669D01*
X1419924Y195570D01*
X1419971Y195469D01*
X1420014Y195367D01*
X1420054Y195264D01*
X1420090Y195159D01*
X1420122Y195053D01*
X1420151Y194946D01*
X1420176Y194838D01*
X1420197Y194729D01*
X1420214Y194620D01*
X1420228Y194510D01*
X1420237Y194399D01*
X1420243Y194289D01*
X1420245Y194178D01*
X1420243Y194067D01*
X1420237Y193957D01*
X1420228Y193846D01*
X1420214Y193736D01*
X1420197Y193627D01*
X1420176Y193518D01*
X1420151Y193410D01*
X1420122Y193303D01*
X1420090Y193197D01*
X1420054Y193092D01*
X1420014Y192989D01*
X1419971Y192887D01*
X1419924Y192786D01*
X1419873Y192687D01*
X1419820Y192590D01*
X1419763Y192496D01*
X1419702Y192403D01*
X1419639Y192312D01*
X1419572Y192223D01*
X1419502Y192137D01*
X1419429Y192054D01*
X1419354Y191972D01*
X1419276Y191894D01*
X1419194Y191819D01*
X1419111Y191746D01*
X1419025Y191676D01*
X1418936Y191609D01*
X1418845Y191546D01*
X1418752Y191485D01*
X1418658Y191428D01*
X1418561Y191375D01*
X1418462Y191324D01*
X1418361Y191277D01*
X1418259Y191234D01*
X1418156Y191194D01*
X1418051Y191158D01*
X1417945Y191126D01*
X1417838Y191097D01*
X1417730Y191072D01*
X1417621Y191051D01*
X1417512Y191034D01*
X1417402Y191020D01*
X1417291Y191011D01*
X1417181Y191005D01*
X1417070Y191003D01*
X1413895Y191003D01*
D10*
X725350Y33700D02*
X712650Y33700D01*
X725350Y33700D02*
X731700Y27350D01*
X731700Y14650D01*
X725350Y8300D01*
X706300Y14650D02*
X706300Y27350D01*
X712650Y33700D01*
X706300Y14650D02*
X712650Y8300D01*
X725350Y8300D01*
D11*
X638523Y25273D02*
X636618Y25273D01*
X638523Y25273D02*
X638523Y18923D01*
X634713Y18923D01*
X634613Y18925D01*
X634514Y18931D01*
X634414Y18941D01*
X634316Y18954D01*
X634217Y18972D01*
X634120Y18993D01*
X634024Y19018D01*
X633928Y19047D01*
X633834Y19080D01*
X633741Y19116D01*
X633650Y19156D01*
X633560Y19200D01*
X633472Y19247D01*
X633386Y19297D01*
X633302Y19351D01*
X633220Y19408D01*
X633141Y19468D01*
X633063Y19532D01*
X632989Y19598D01*
X632917Y19667D01*
X632848Y19739D01*
X632782Y19813D01*
X632718Y19891D01*
X632658Y19970D01*
X632601Y20052D01*
X632547Y20136D01*
X632497Y20222D01*
X632450Y20310D01*
X632406Y20400D01*
X632366Y20491D01*
X632330Y20584D01*
X632297Y20678D01*
X632268Y20774D01*
X632243Y20870D01*
X632222Y20967D01*
X632204Y21066D01*
X632191Y21164D01*
X632181Y21264D01*
X632175Y21363D01*
X632173Y21463D01*
X632173Y27813D01*
X632175Y27913D01*
X632181Y28012D01*
X632191Y28112D01*
X632204Y28210D01*
X632222Y28309D01*
X632243Y28406D01*
X632268Y28502D01*
X632297Y28598D01*
X632330Y28692D01*
X632366Y28785D01*
X632406Y28876D01*
X632450Y28966D01*
X632497Y29054D01*
X632547Y29140D01*
X632601Y29224D01*
X632658Y29306D01*
X632718Y29385D01*
X632782Y29463D01*
X632848Y29537D01*
X632917Y29609D01*
X632989Y29678D01*
X633063Y29744D01*
X633141Y29808D01*
X633220Y29868D01*
X633302Y29925D01*
X633386Y29979D01*
X633472Y30029D01*
X633560Y30076D01*
X633650Y30120D01*
X633741Y30160D01*
X633834Y30196D01*
X633928Y30229D01*
X634024Y30258D01*
X634120Y30283D01*
X634217Y30304D01*
X634316Y30322D01*
X634414Y30335D01*
X634514Y30345D01*
X634613Y30351D01*
X634713Y30353D01*
X638523Y30353D01*
X644556Y30353D02*
X644556Y18923D01*
X644556Y30353D02*
X647731Y30353D01*
X647842Y30351D01*
X647952Y30345D01*
X648063Y30336D01*
X648173Y30322D01*
X648282Y30305D01*
X648391Y30284D01*
X648499Y30259D01*
X648606Y30230D01*
X648712Y30198D01*
X648817Y30162D01*
X648920Y30122D01*
X649022Y30079D01*
X649123Y30032D01*
X649222Y29981D01*
X649319Y29928D01*
X649413Y29871D01*
X649506Y29810D01*
X649597Y29747D01*
X649686Y29680D01*
X649772Y29610D01*
X649855Y29537D01*
X649937Y29462D01*
X650015Y29384D01*
X650090Y29302D01*
X650163Y29219D01*
X650233Y29133D01*
X650300Y29044D01*
X650363Y28953D01*
X650424Y28860D01*
X650481Y28765D01*
X650534Y28669D01*
X650585Y28570D01*
X650632Y28469D01*
X650675Y28367D01*
X650715Y28264D01*
X650751Y28159D01*
X650783Y28053D01*
X650812Y27946D01*
X650837Y27838D01*
X650858Y27729D01*
X650875Y27620D01*
X650889Y27510D01*
X650898Y27399D01*
X650904Y27289D01*
X650906Y27178D01*
X650904Y27067D01*
X650898Y26957D01*
X650889Y26846D01*
X650875Y26736D01*
X650858Y26627D01*
X650837Y26518D01*
X650812Y26410D01*
X650783Y26303D01*
X650751Y26197D01*
X650715Y26092D01*
X650675Y25989D01*
X650632Y25887D01*
X650585Y25786D01*
X650534Y25687D01*
X650481Y25590D01*
X650424Y25496D01*
X650363Y25403D01*
X650300Y25312D01*
X650233Y25223D01*
X650163Y25137D01*
X650090Y25054D01*
X650015Y24972D01*
X649937Y24894D01*
X649855Y24819D01*
X649772Y24746D01*
X649686Y24676D01*
X649597Y24609D01*
X649506Y24546D01*
X649413Y24485D01*
X649319Y24428D01*
X649222Y24375D01*
X649123Y24324D01*
X649022Y24277D01*
X648920Y24234D01*
X648817Y24194D01*
X648712Y24158D01*
X648606Y24126D01*
X648499Y24097D01*
X648391Y24072D01*
X648282Y24051D01*
X648173Y24034D01*
X648063Y24020D01*
X647952Y24011D01*
X647842Y24005D01*
X647731Y24003D01*
X644556Y24003D01*
X658843Y18923D02*
X658943Y18925D01*
X659042Y18931D01*
X659142Y18941D01*
X659240Y18954D01*
X659339Y18972D01*
X659436Y18993D01*
X659532Y19018D01*
X659628Y19047D01*
X659722Y19080D01*
X659815Y19116D01*
X659906Y19156D01*
X659996Y19200D01*
X660084Y19247D01*
X660170Y19297D01*
X660254Y19351D01*
X660336Y19408D01*
X660415Y19468D01*
X660493Y19532D01*
X660567Y19598D01*
X660639Y19667D01*
X660708Y19739D01*
X660774Y19813D01*
X660838Y19891D01*
X660898Y19970D01*
X660955Y20052D01*
X661009Y20136D01*
X661059Y20222D01*
X661106Y20310D01*
X661150Y20400D01*
X661190Y20491D01*
X661226Y20584D01*
X661259Y20678D01*
X661288Y20774D01*
X661313Y20870D01*
X661334Y20967D01*
X661352Y21066D01*
X661365Y21164D01*
X661375Y21264D01*
X661381Y21363D01*
X661383Y21463D01*
X658843Y18923D02*
X658702Y18925D01*
X658561Y18930D01*
X658420Y18940D01*
X658279Y18953D01*
X658139Y18969D01*
X657999Y18990D01*
X657860Y19014D01*
X657721Y19042D01*
X657584Y19073D01*
X657447Y19108D01*
X657311Y19146D01*
X657176Y19188D01*
X657043Y19234D01*
X656910Y19283D01*
X656779Y19336D01*
X656650Y19392D01*
X656521Y19451D01*
X656395Y19514D01*
X656270Y19580D01*
X656147Y19649D01*
X656026Y19722D01*
X655907Y19798D01*
X655789Y19877D01*
X655674Y19958D01*
X655562Y20043D01*
X655451Y20131D01*
X655343Y20222D01*
X655237Y20315D01*
X655134Y20412D01*
X655033Y20511D01*
X655351Y27813D02*
X655353Y27913D01*
X655359Y28012D01*
X655369Y28112D01*
X655382Y28210D01*
X655400Y28309D01*
X655421Y28406D01*
X655446Y28502D01*
X655475Y28598D01*
X655508Y28692D01*
X655544Y28785D01*
X655584Y28876D01*
X655628Y28966D01*
X655675Y29054D01*
X655725Y29140D01*
X655779Y29224D01*
X655836Y29306D01*
X655896Y29385D01*
X655960Y29463D01*
X656026Y29537D01*
X656095Y29609D01*
X656167Y29678D01*
X656241Y29744D01*
X656319Y29808D01*
X656398Y29868D01*
X656480Y29925D01*
X656564Y29979D01*
X656650Y30029D01*
X656738Y30076D01*
X656828Y30120D01*
X656919Y30160D01*
X657012Y30196D01*
X657106Y30229D01*
X657202Y30258D01*
X657298Y30283D01*
X657395Y30304D01*
X657494Y30322D01*
X657592Y30335D01*
X657692Y30345D01*
X657791Y30351D01*
X657891Y30353D01*
X657891Y30354D02*
X658024Y30352D01*
X658157Y30347D01*
X658290Y30337D01*
X658423Y30324D01*
X658555Y30307D01*
X658687Y30287D01*
X658818Y30263D01*
X658948Y30235D01*
X659078Y30204D01*
X659206Y30169D01*
X659334Y30130D01*
X659460Y30088D01*
X659585Y30042D01*
X659709Y29993D01*
X659832Y29941D01*
X659953Y29885D01*
X660072Y29825D01*
X660190Y29763D01*
X660305Y29697D01*
X660419Y29628D01*
X660531Y29555D01*
X660641Y29480D01*
X660749Y29401D01*
X656620Y25590D02*
X656536Y25642D01*
X656453Y25697D01*
X656373Y25756D01*
X656295Y25817D01*
X656220Y25881D01*
X656147Y25949D01*
X656076Y26019D01*
X656009Y26091D01*
X655944Y26166D01*
X655882Y26244D01*
X655823Y26324D01*
X655767Y26406D01*
X655715Y26490D01*
X655666Y26576D01*
X655620Y26664D01*
X655577Y26754D01*
X655538Y26845D01*
X655503Y26938D01*
X655471Y27032D01*
X655443Y27127D01*
X655418Y27223D01*
X655398Y27320D01*
X655380Y27418D01*
X655367Y27516D01*
X655358Y27615D01*
X655352Y27714D01*
X655350Y27813D01*
X660113Y23686D02*
X660197Y23634D01*
X660280Y23579D01*
X660360Y23520D01*
X660438Y23459D01*
X660513Y23395D01*
X660586Y23327D01*
X660657Y23257D01*
X660724Y23185D01*
X660789Y23110D01*
X660851Y23032D01*
X660910Y22952D01*
X660966Y22870D01*
X661018Y22786D01*
X661067Y22700D01*
X661113Y22612D01*
X661156Y22522D01*
X661195Y22431D01*
X661230Y22338D01*
X661262Y22244D01*
X661290Y22149D01*
X661315Y22053D01*
X661335Y21956D01*
X661353Y21858D01*
X661366Y21760D01*
X661375Y21661D01*
X661381Y21562D01*
X661383Y21463D01*
X660113Y23686D02*
X656621Y25591D01*
X665574Y17653D02*
X670654Y17653D01*
X677639Y18923D02*
X677639Y30353D01*
X674464Y30353D02*
X680814Y30353D01*
X685704Y30353D02*
X685704Y18923D01*
X685704Y30353D02*
X688879Y30353D01*
X688990Y30351D01*
X689100Y30345D01*
X689211Y30336D01*
X689321Y30322D01*
X689430Y30305D01*
X689539Y30284D01*
X689647Y30259D01*
X689754Y30230D01*
X689860Y30198D01*
X689965Y30162D01*
X690068Y30122D01*
X690170Y30079D01*
X690271Y30032D01*
X690370Y29981D01*
X690467Y29928D01*
X690561Y29871D01*
X690654Y29810D01*
X690745Y29747D01*
X690834Y29680D01*
X690920Y29610D01*
X691003Y29537D01*
X691085Y29462D01*
X691163Y29384D01*
X691238Y29302D01*
X691311Y29219D01*
X691381Y29133D01*
X691448Y29044D01*
X691511Y28953D01*
X691572Y28860D01*
X691629Y28765D01*
X691682Y28669D01*
X691733Y28570D01*
X691780Y28469D01*
X691823Y28367D01*
X691863Y28264D01*
X691899Y28159D01*
X691931Y28053D01*
X691960Y27946D01*
X691985Y27838D01*
X692006Y27729D01*
X692023Y27620D01*
X692037Y27510D01*
X692046Y27399D01*
X692052Y27289D01*
X692054Y27178D01*
X692052Y27067D01*
X692046Y26957D01*
X692037Y26846D01*
X692023Y26736D01*
X692006Y26627D01*
X691985Y26518D01*
X691960Y26410D01*
X691931Y26303D01*
X691899Y26197D01*
X691863Y26092D01*
X691823Y25989D01*
X691780Y25887D01*
X691733Y25786D01*
X691682Y25687D01*
X691629Y25590D01*
X691572Y25496D01*
X691511Y25403D01*
X691448Y25312D01*
X691381Y25223D01*
X691311Y25137D01*
X691238Y25054D01*
X691163Y24972D01*
X691085Y24894D01*
X691003Y24819D01*
X690920Y24746D01*
X690834Y24676D01*
X690745Y24609D01*
X690654Y24546D01*
X690561Y24485D01*
X690467Y24428D01*
X690370Y24375D01*
X690271Y24324D01*
X690170Y24277D01*
X690068Y24234D01*
X689965Y24194D01*
X689860Y24158D01*
X689754Y24126D01*
X689647Y24097D01*
X689539Y24072D01*
X689430Y24051D01*
X689321Y24034D01*
X689211Y24020D01*
X689100Y24011D01*
X688990Y24005D01*
X688879Y24003D01*
X685704Y24003D01*
D10*
X1174650Y35700D02*
X1187350Y35700D01*
X1193700Y29350D01*
X1193700Y16650D01*
X1187350Y10300D01*
X1168300Y16650D02*
X1168300Y29350D01*
X1174650Y35700D01*
X1168300Y16650D02*
X1174650Y10300D01*
X1187350Y10300D01*
D11*
X1100253Y17923D02*
X1097713Y17923D01*
X1097613Y17925D01*
X1097514Y17931D01*
X1097414Y17941D01*
X1097316Y17954D01*
X1097217Y17972D01*
X1097120Y17993D01*
X1097024Y18018D01*
X1096928Y18047D01*
X1096834Y18080D01*
X1096741Y18116D01*
X1096650Y18156D01*
X1096560Y18200D01*
X1096472Y18247D01*
X1096386Y18297D01*
X1096302Y18351D01*
X1096220Y18408D01*
X1096141Y18468D01*
X1096063Y18532D01*
X1095989Y18598D01*
X1095917Y18667D01*
X1095848Y18739D01*
X1095782Y18813D01*
X1095718Y18891D01*
X1095658Y18970D01*
X1095601Y19052D01*
X1095547Y19136D01*
X1095497Y19222D01*
X1095450Y19310D01*
X1095406Y19400D01*
X1095366Y19491D01*
X1095330Y19584D01*
X1095297Y19678D01*
X1095268Y19774D01*
X1095243Y19870D01*
X1095222Y19967D01*
X1095204Y20066D01*
X1095191Y20164D01*
X1095181Y20264D01*
X1095175Y20363D01*
X1095173Y20463D01*
X1095173Y26813D01*
X1095175Y26913D01*
X1095181Y27012D01*
X1095191Y27112D01*
X1095204Y27210D01*
X1095222Y27309D01*
X1095243Y27406D01*
X1095268Y27502D01*
X1095297Y27598D01*
X1095330Y27692D01*
X1095366Y27785D01*
X1095406Y27876D01*
X1095450Y27966D01*
X1095497Y28054D01*
X1095547Y28140D01*
X1095601Y28224D01*
X1095658Y28306D01*
X1095718Y28385D01*
X1095782Y28463D01*
X1095848Y28537D01*
X1095917Y28609D01*
X1095989Y28678D01*
X1096063Y28744D01*
X1096141Y28808D01*
X1096220Y28868D01*
X1096302Y28925D01*
X1096386Y28979D01*
X1096472Y29029D01*
X1096560Y29076D01*
X1096650Y29120D01*
X1096741Y29160D01*
X1096834Y29196D01*
X1096928Y29229D01*
X1097024Y29258D01*
X1097120Y29283D01*
X1097217Y29304D01*
X1097316Y29322D01*
X1097414Y29335D01*
X1097514Y29345D01*
X1097613Y29351D01*
X1097713Y29353D01*
X1100253Y29353D01*
X1107910Y29353D02*
X1104100Y17923D01*
X1111720Y17923D02*
X1107910Y29353D01*
X1110768Y20781D02*
X1105053Y20781D01*
X1116673Y17923D02*
X1116673Y29353D01*
X1120483Y23003D01*
X1124293Y29353D01*
X1124293Y17923D01*
X1129373Y16653D02*
X1134453Y16653D01*
X1141438Y17923D02*
X1141438Y29353D01*
X1138263Y29353D02*
X1144613Y29353D01*
X1149503Y29353D02*
X1149503Y17923D01*
X1149503Y29353D02*
X1152678Y29353D01*
X1152789Y29351D01*
X1152899Y29345D01*
X1153010Y29336D01*
X1153120Y29322D01*
X1153229Y29305D01*
X1153338Y29284D01*
X1153446Y29259D01*
X1153553Y29230D01*
X1153659Y29198D01*
X1153764Y29162D01*
X1153867Y29122D01*
X1153969Y29079D01*
X1154070Y29032D01*
X1154169Y28981D01*
X1154266Y28928D01*
X1154360Y28871D01*
X1154453Y28810D01*
X1154544Y28747D01*
X1154633Y28680D01*
X1154719Y28610D01*
X1154802Y28537D01*
X1154884Y28462D01*
X1154962Y28384D01*
X1155037Y28302D01*
X1155110Y28219D01*
X1155180Y28133D01*
X1155247Y28044D01*
X1155310Y27953D01*
X1155371Y27860D01*
X1155428Y27765D01*
X1155481Y27669D01*
X1155532Y27570D01*
X1155579Y27469D01*
X1155622Y27367D01*
X1155662Y27264D01*
X1155698Y27159D01*
X1155730Y27053D01*
X1155759Y26946D01*
X1155784Y26838D01*
X1155805Y26729D01*
X1155822Y26620D01*
X1155836Y26510D01*
X1155845Y26399D01*
X1155851Y26289D01*
X1155853Y26178D01*
X1155851Y26067D01*
X1155845Y25957D01*
X1155836Y25846D01*
X1155822Y25736D01*
X1155805Y25627D01*
X1155784Y25518D01*
X1155759Y25410D01*
X1155730Y25303D01*
X1155698Y25197D01*
X1155662Y25092D01*
X1155622Y24989D01*
X1155579Y24887D01*
X1155532Y24786D01*
X1155481Y24687D01*
X1155428Y24590D01*
X1155371Y24496D01*
X1155310Y24403D01*
X1155247Y24312D01*
X1155180Y24223D01*
X1155110Y24137D01*
X1155037Y24054D01*
X1154962Y23972D01*
X1154884Y23894D01*
X1154802Y23819D01*
X1154719Y23746D01*
X1154633Y23676D01*
X1154544Y23609D01*
X1154453Y23546D01*
X1154360Y23485D01*
X1154266Y23428D01*
X1154169Y23375D01*
X1154070Y23324D01*
X1153969Y23277D01*
X1153867Y23234D01*
X1153764Y23194D01*
X1153659Y23158D01*
X1153553Y23126D01*
X1153446Y23097D01*
X1153338Y23072D01*
X1153229Y23051D01*
X1153120Y23034D01*
X1153010Y23020D01*
X1152899Y23011D01*
X1152789Y23005D01*
X1152678Y23003D01*
X1149503Y23003D01*
X46150Y189400D02*
X25850Y189400D01*
X46150Y189400D02*
X46150Y232600D01*
X25850Y232600D01*
X25850Y189400D01*
X36000Y189400D02*
X36000Y183640D01*
X36000Y232600D02*
X36000Y238360D01*
D16*
X56036Y233992D02*
X56036Y222308D01*
X56036Y233992D02*
X59282Y233992D01*
X59395Y233990D01*
X59508Y233984D01*
X59621Y233974D01*
X59734Y233960D01*
X59846Y233943D01*
X59957Y233921D01*
X60067Y233896D01*
X60177Y233866D01*
X60285Y233833D01*
X60392Y233796D01*
X60498Y233756D01*
X60602Y233711D01*
X60705Y233663D01*
X60806Y233612D01*
X60905Y233557D01*
X61002Y233499D01*
X61097Y233437D01*
X61190Y233372D01*
X61280Y233304D01*
X61368Y233233D01*
X61454Y233158D01*
X61537Y233081D01*
X61617Y233001D01*
X61694Y232918D01*
X61769Y232832D01*
X61840Y232744D01*
X61908Y232654D01*
X61973Y232561D01*
X62035Y232466D01*
X62093Y232369D01*
X62148Y232270D01*
X62199Y232169D01*
X62247Y232066D01*
X62292Y231962D01*
X62332Y231856D01*
X62369Y231749D01*
X62402Y231641D01*
X62432Y231531D01*
X62457Y231421D01*
X62479Y231310D01*
X62496Y231198D01*
X62510Y231085D01*
X62520Y230972D01*
X62526Y230859D01*
X62528Y230746D01*
X62526Y230633D01*
X62520Y230520D01*
X62510Y230407D01*
X62496Y230294D01*
X62479Y230182D01*
X62457Y230071D01*
X62432Y229961D01*
X62402Y229851D01*
X62369Y229743D01*
X62332Y229636D01*
X62292Y229530D01*
X62247Y229426D01*
X62199Y229323D01*
X62148Y229222D01*
X62093Y229123D01*
X62035Y229026D01*
X61973Y228931D01*
X61908Y228838D01*
X61840Y228748D01*
X61769Y228660D01*
X61694Y228574D01*
X61617Y228491D01*
X61537Y228411D01*
X61454Y228334D01*
X61368Y228259D01*
X61280Y228188D01*
X61190Y228120D01*
X61097Y228055D01*
X61002Y227993D01*
X60905Y227935D01*
X60806Y227880D01*
X60705Y227829D01*
X60602Y227781D01*
X60498Y227736D01*
X60392Y227696D01*
X60285Y227659D01*
X60177Y227626D01*
X60067Y227596D01*
X59957Y227571D01*
X59846Y227549D01*
X59734Y227532D01*
X59621Y227518D01*
X59508Y227508D01*
X59395Y227502D01*
X59282Y227500D01*
X59282Y227501D02*
X56036Y227501D01*
X67297Y222308D02*
X67297Y233992D01*
X67297Y228799D02*
X73788Y228799D01*
X73788Y233992D02*
X73788Y222308D01*
X79108Y225554D02*
X79108Y230746D01*
X79110Y230859D01*
X79116Y230972D01*
X79126Y231085D01*
X79140Y231198D01*
X79157Y231310D01*
X79179Y231421D01*
X79204Y231531D01*
X79234Y231641D01*
X79267Y231749D01*
X79304Y231856D01*
X79344Y231962D01*
X79389Y232066D01*
X79437Y232169D01*
X79488Y232270D01*
X79543Y232369D01*
X79601Y232466D01*
X79663Y232561D01*
X79728Y232654D01*
X79796Y232744D01*
X79867Y232832D01*
X79942Y232918D01*
X80019Y233001D01*
X80099Y233081D01*
X80182Y233158D01*
X80268Y233233D01*
X80356Y233304D01*
X80446Y233372D01*
X80539Y233437D01*
X80634Y233499D01*
X80731Y233557D01*
X80830Y233612D01*
X80931Y233663D01*
X81034Y233711D01*
X81138Y233756D01*
X81244Y233796D01*
X81351Y233833D01*
X81459Y233866D01*
X81569Y233896D01*
X81679Y233921D01*
X81790Y233943D01*
X81902Y233960D01*
X82015Y233974D01*
X82128Y233984D01*
X82241Y233990D01*
X82354Y233992D01*
X82467Y233990D01*
X82580Y233984D01*
X82693Y233974D01*
X82806Y233960D01*
X82918Y233943D01*
X83029Y233921D01*
X83139Y233896D01*
X83249Y233866D01*
X83357Y233833D01*
X83464Y233796D01*
X83570Y233756D01*
X83674Y233711D01*
X83777Y233663D01*
X83878Y233612D01*
X83977Y233557D01*
X84074Y233499D01*
X84169Y233437D01*
X84262Y233372D01*
X84352Y233304D01*
X84440Y233233D01*
X84526Y233158D01*
X84609Y233081D01*
X84689Y233001D01*
X84766Y232918D01*
X84841Y232832D01*
X84912Y232744D01*
X84980Y232654D01*
X85045Y232561D01*
X85107Y232466D01*
X85165Y232369D01*
X85220Y232270D01*
X85271Y232169D01*
X85319Y232066D01*
X85364Y231962D01*
X85404Y231856D01*
X85441Y231749D01*
X85474Y231641D01*
X85504Y231531D01*
X85529Y231421D01*
X85551Y231310D01*
X85568Y231198D01*
X85582Y231085D01*
X85592Y230972D01*
X85598Y230859D01*
X85600Y230746D01*
X85599Y230746D02*
X85599Y225554D01*
X85600Y225554D02*
X85598Y225441D01*
X85592Y225328D01*
X85582Y225215D01*
X85568Y225102D01*
X85551Y224990D01*
X85529Y224879D01*
X85504Y224769D01*
X85474Y224659D01*
X85441Y224551D01*
X85404Y224444D01*
X85364Y224338D01*
X85319Y224234D01*
X85271Y224131D01*
X85220Y224030D01*
X85165Y223931D01*
X85107Y223834D01*
X85045Y223739D01*
X84980Y223646D01*
X84912Y223556D01*
X84841Y223468D01*
X84766Y223382D01*
X84689Y223299D01*
X84609Y223219D01*
X84526Y223142D01*
X84440Y223067D01*
X84352Y222996D01*
X84262Y222928D01*
X84169Y222863D01*
X84074Y222801D01*
X83977Y222743D01*
X83878Y222688D01*
X83777Y222637D01*
X83674Y222589D01*
X83570Y222544D01*
X83464Y222504D01*
X83357Y222467D01*
X83249Y222434D01*
X83139Y222404D01*
X83029Y222379D01*
X82918Y222357D01*
X82806Y222340D01*
X82693Y222326D01*
X82580Y222316D01*
X82467Y222310D01*
X82354Y222308D01*
X82241Y222310D01*
X82128Y222316D01*
X82015Y222326D01*
X81902Y222340D01*
X81790Y222357D01*
X81679Y222379D01*
X81569Y222404D01*
X81459Y222434D01*
X81351Y222467D01*
X81244Y222504D01*
X81138Y222544D01*
X81034Y222589D01*
X80931Y222637D01*
X80830Y222688D01*
X80731Y222743D01*
X80634Y222801D01*
X80539Y222863D01*
X80446Y222928D01*
X80356Y222996D01*
X80268Y223067D01*
X80182Y223142D01*
X80099Y223219D01*
X80019Y223299D01*
X79942Y223382D01*
X79867Y223468D01*
X79796Y223556D01*
X79728Y223646D01*
X79663Y223739D01*
X79601Y223834D01*
X79543Y223931D01*
X79488Y224030D01*
X79437Y224131D01*
X79389Y224234D01*
X79344Y224338D01*
X79304Y224444D01*
X79267Y224551D01*
X79234Y224659D01*
X79204Y224769D01*
X79179Y224879D01*
X79157Y224990D01*
X79140Y225102D01*
X79126Y225215D01*
X79116Y225328D01*
X79110Y225441D01*
X79108Y225554D01*
X93021Y222308D02*
X93021Y233992D01*
X89776Y233992D02*
X96267Y233992D01*
X100444Y230746D02*
X100444Y225554D01*
X100443Y230746D02*
X100445Y230859D01*
X100451Y230972D01*
X100461Y231085D01*
X100475Y231198D01*
X100492Y231310D01*
X100514Y231421D01*
X100539Y231531D01*
X100569Y231641D01*
X100602Y231749D01*
X100639Y231856D01*
X100679Y231962D01*
X100724Y232066D01*
X100772Y232169D01*
X100823Y232270D01*
X100878Y232369D01*
X100936Y232466D01*
X100998Y232561D01*
X101063Y232654D01*
X101131Y232744D01*
X101202Y232832D01*
X101277Y232918D01*
X101354Y233001D01*
X101434Y233081D01*
X101517Y233158D01*
X101603Y233233D01*
X101691Y233304D01*
X101781Y233372D01*
X101874Y233437D01*
X101969Y233499D01*
X102066Y233557D01*
X102165Y233612D01*
X102266Y233663D01*
X102369Y233711D01*
X102473Y233756D01*
X102579Y233796D01*
X102686Y233833D01*
X102794Y233866D01*
X102904Y233896D01*
X103014Y233921D01*
X103125Y233943D01*
X103237Y233960D01*
X103350Y233974D01*
X103463Y233984D01*
X103576Y233990D01*
X103689Y233992D01*
X103802Y233990D01*
X103915Y233984D01*
X104028Y233974D01*
X104141Y233960D01*
X104253Y233943D01*
X104364Y233921D01*
X104474Y233896D01*
X104584Y233866D01*
X104692Y233833D01*
X104799Y233796D01*
X104905Y233756D01*
X105009Y233711D01*
X105112Y233663D01*
X105213Y233612D01*
X105312Y233557D01*
X105409Y233499D01*
X105504Y233437D01*
X105597Y233372D01*
X105687Y233304D01*
X105775Y233233D01*
X105861Y233158D01*
X105944Y233081D01*
X106024Y233001D01*
X106101Y232918D01*
X106176Y232832D01*
X106247Y232744D01*
X106315Y232654D01*
X106380Y232561D01*
X106442Y232466D01*
X106500Y232369D01*
X106555Y232270D01*
X106606Y232169D01*
X106654Y232066D01*
X106699Y231962D01*
X106739Y231856D01*
X106776Y231749D01*
X106809Y231641D01*
X106839Y231531D01*
X106864Y231421D01*
X106886Y231310D01*
X106903Y231198D01*
X106917Y231085D01*
X106927Y230972D01*
X106933Y230859D01*
X106935Y230746D01*
X106935Y225554D01*
X106933Y225441D01*
X106927Y225328D01*
X106917Y225215D01*
X106903Y225102D01*
X106886Y224990D01*
X106864Y224879D01*
X106839Y224769D01*
X106809Y224659D01*
X106776Y224551D01*
X106739Y224444D01*
X106699Y224338D01*
X106654Y224234D01*
X106606Y224131D01*
X106555Y224030D01*
X106500Y223931D01*
X106442Y223834D01*
X106380Y223739D01*
X106315Y223646D01*
X106247Y223556D01*
X106176Y223468D01*
X106101Y223382D01*
X106024Y223299D01*
X105944Y223219D01*
X105861Y223142D01*
X105775Y223067D01*
X105687Y222996D01*
X105597Y222928D01*
X105504Y222863D01*
X105409Y222801D01*
X105312Y222743D01*
X105213Y222688D01*
X105112Y222637D01*
X105009Y222589D01*
X104905Y222544D01*
X104799Y222504D01*
X104692Y222467D01*
X104584Y222434D01*
X104474Y222404D01*
X104364Y222379D01*
X104253Y222357D01*
X104141Y222340D01*
X104028Y222326D01*
X103915Y222316D01*
X103802Y222310D01*
X103689Y222308D01*
X103576Y222310D01*
X103463Y222316D01*
X103350Y222326D01*
X103237Y222340D01*
X103125Y222357D01*
X103014Y222379D01*
X102904Y222404D01*
X102794Y222434D01*
X102686Y222467D01*
X102579Y222504D01*
X102473Y222544D01*
X102369Y222589D01*
X102266Y222637D01*
X102165Y222688D01*
X102066Y222743D01*
X101969Y222801D01*
X101874Y222863D01*
X101781Y222928D01*
X101691Y222996D01*
X101603Y223067D01*
X101517Y223142D01*
X101434Y223219D01*
X101354Y223299D01*
X101277Y223382D01*
X101202Y223468D01*
X101131Y223556D01*
X101063Y223646D01*
X100998Y223739D01*
X100936Y223834D01*
X100878Y223931D01*
X100823Y224030D01*
X100772Y224131D01*
X100724Y224234D01*
X100679Y224338D01*
X100639Y224444D01*
X100602Y224551D01*
X100569Y224659D01*
X100539Y224769D01*
X100514Y224879D01*
X100492Y224990D01*
X100475Y225102D01*
X100461Y225215D01*
X100451Y225328D01*
X100445Y225441D01*
X100443Y225554D01*
X111380Y221010D02*
X116573Y221010D01*
X121473Y222308D02*
X121473Y233992D01*
X124718Y233992D01*
X124831Y233990D01*
X124944Y233984D01*
X125057Y233974D01*
X125170Y233960D01*
X125282Y233943D01*
X125393Y233921D01*
X125503Y233896D01*
X125613Y233866D01*
X125721Y233833D01*
X125828Y233796D01*
X125934Y233756D01*
X126038Y233711D01*
X126141Y233663D01*
X126242Y233612D01*
X126341Y233557D01*
X126438Y233499D01*
X126533Y233437D01*
X126626Y233372D01*
X126716Y233304D01*
X126804Y233233D01*
X126890Y233158D01*
X126973Y233081D01*
X127053Y233001D01*
X127130Y232918D01*
X127205Y232832D01*
X127276Y232744D01*
X127344Y232654D01*
X127409Y232561D01*
X127471Y232466D01*
X127529Y232369D01*
X127584Y232270D01*
X127635Y232169D01*
X127683Y232066D01*
X127728Y231962D01*
X127768Y231856D01*
X127805Y231749D01*
X127838Y231641D01*
X127868Y231531D01*
X127893Y231421D01*
X127915Y231310D01*
X127932Y231198D01*
X127946Y231085D01*
X127956Y230972D01*
X127962Y230859D01*
X127964Y230746D01*
X127962Y230633D01*
X127956Y230520D01*
X127946Y230407D01*
X127932Y230294D01*
X127915Y230182D01*
X127893Y230071D01*
X127868Y229961D01*
X127838Y229851D01*
X127805Y229743D01*
X127768Y229636D01*
X127728Y229530D01*
X127683Y229426D01*
X127635Y229323D01*
X127584Y229222D01*
X127529Y229123D01*
X127471Y229026D01*
X127409Y228931D01*
X127344Y228838D01*
X127276Y228748D01*
X127205Y228660D01*
X127130Y228574D01*
X127053Y228491D01*
X126973Y228411D01*
X126890Y228334D01*
X126804Y228259D01*
X126716Y228188D01*
X126626Y228120D01*
X126533Y228055D01*
X126438Y227993D01*
X126341Y227935D01*
X126242Y227880D01*
X126141Y227829D01*
X126038Y227781D01*
X125934Y227736D01*
X125828Y227696D01*
X125721Y227659D01*
X125613Y227626D01*
X125503Y227596D01*
X125393Y227571D01*
X125282Y227549D01*
X125170Y227532D01*
X125057Y227518D01*
X124944Y227508D01*
X124831Y227502D01*
X124718Y227500D01*
X124718Y227501D02*
X121473Y227501D01*
X125367Y227501D02*
X127964Y222308D01*
D11*
X1043850Y150600D02*
X1064150Y150600D01*
X1043850Y150600D02*
X1043850Y107400D01*
X1064150Y107400D01*
X1064150Y150600D01*
X1054000Y150600D02*
X1054000Y156360D01*
X1054000Y107400D02*
X1054000Y101640D01*
D16*
X1071008Y117295D02*
X1073604Y114049D01*
X1071008Y117295D02*
X1082692Y117295D01*
X1082692Y120540D02*
X1082692Y114049D01*
X1076850Y125479D02*
X1076620Y125482D01*
X1076390Y125490D01*
X1076161Y125504D01*
X1075932Y125523D01*
X1075703Y125548D01*
X1075475Y125578D01*
X1075248Y125613D01*
X1075022Y125654D01*
X1074797Y125700D01*
X1074573Y125752D01*
X1074350Y125809D01*
X1074129Y125871D01*
X1073909Y125939D01*
X1073691Y126012D01*
X1073475Y126090D01*
X1073261Y126173D01*
X1073049Y126261D01*
X1072838Y126354D01*
X1072631Y126453D01*
X1072541Y126486D01*
X1072452Y126522D01*
X1072364Y126562D01*
X1072279Y126606D01*
X1072195Y126653D01*
X1072113Y126703D01*
X1072033Y126757D01*
X1071956Y126813D01*
X1071880Y126873D01*
X1071807Y126936D01*
X1071737Y127001D01*
X1071669Y127070D01*
X1071605Y127141D01*
X1071543Y127214D01*
X1071484Y127290D01*
X1071428Y127368D01*
X1071375Y127449D01*
X1071326Y127531D01*
X1071280Y127615D01*
X1071237Y127702D01*
X1071198Y127789D01*
X1071162Y127879D01*
X1071130Y127969D01*
X1071102Y128061D01*
X1071077Y128154D01*
X1071056Y128248D01*
X1071039Y128342D01*
X1071025Y128437D01*
X1071016Y128533D01*
X1071010Y128629D01*
X1071008Y128725D01*
X1071010Y128821D01*
X1071016Y128917D01*
X1071025Y129013D01*
X1071039Y129108D01*
X1071056Y129202D01*
X1071077Y129296D01*
X1071102Y129389D01*
X1071130Y129481D01*
X1071162Y129571D01*
X1071198Y129661D01*
X1071237Y129749D01*
X1071280Y129835D01*
X1071326Y129919D01*
X1071375Y130001D01*
X1071428Y130082D01*
X1071484Y130160D01*
X1071543Y130236D01*
X1071605Y130309D01*
X1071669Y130380D01*
X1071737Y130449D01*
X1071807Y130514D01*
X1071880Y130577D01*
X1071956Y130637D01*
X1072033Y130693D01*
X1072113Y130747D01*
X1072195Y130797D01*
X1072279Y130844D01*
X1072364Y130888D01*
X1072452Y130928D01*
X1072541Y130964D01*
X1072631Y130997D01*
X1072838Y131096D01*
X1073049Y131189D01*
X1073261Y131277D01*
X1073475Y131360D01*
X1073691Y131438D01*
X1073909Y131511D01*
X1074129Y131579D01*
X1074350Y131641D01*
X1074573Y131698D01*
X1074797Y131750D01*
X1075022Y131796D01*
X1075248Y131837D01*
X1075475Y131872D01*
X1075703Y131902D01*
X1075932Y131927D01*
X1076161Y131946D01*
X1076390Y131960D01*
X1076620Y131968D01*
X1076850Y131971D01*
X1076850Y125479D02*
X1077080Y125482D01*
X1077310Y125490D01*
X1077539Y125504D01*
X1077768Y125523D01*
X1077997Y125548D01*
X1078225Y125578D01*
X1078452Y125613D01*
X1078678Y125654D01*
X1078903Y125700D01*
X1079127Y125752D01*
X1079350Y125809D01*
X1079571Y125871D01*
X1079791Y125939D01*
X1080009Y126012D01*
X1080225Y126090D01*
X1080439Y126173D01*
X1080651Y126261D01*
X1080862Y126354D01*
X1081069Y126453D01*
X1081159Y126486D01*
X1081248Y126522D01*
X1081336Y126563D01*
X1081421Y126606D01*
X1081505Y126653D01*
X1081587Y126703D01*
X1081667Y126757D01*
X1081744Y126813D01*
X1081820Y126873D01*
X1081893Y126936D01*
X1081963Y127001D01*
X1082031Y127070D01*
X1082095Y127141D01*
X1082157Y127214D01*
X1082216Y127290D01*
X1082272Y127368D01*
X1082325Y127449D01*
X1082374Y127531D01*
X1082420Y127615D01*
X1082463Y127702D01*
X1082502Y127789D01*
X1082538Y127879D01*
X1082570Y127969D01*
X1082598Y128061D01*
X1082623Y128154D01*
X1082644Y128248D01*
X1082661Y128342D01*
X1082675Y128437D01*
X1082684Y128533D01*
X1082690Y128629D01*
X1082692Y128725D01*
X1081069Y130997D02*
X1080862Y131096D01*
X1080651Y131189D01*
X1080439Y131277D01*
X1080225Y131360D01*
X1080009Y131438D01*
X1079791Y131511D01*
X1079571Y131579D01*
X1079350Y131641D01*
X1079127Y131698D01*
X1078903Y131750D01*
X1078678Y131796D01*
X1078452Y131837D01*
X1078225Y131872D01*
X1077997Y131902D01*
X1077768Y131927D01*
X1077539Y131946D01*
X1077310Y131960D01*
X1077080Y131968D01*
X1076850Y131971D01*
X1081069Y130997D02*
X1081159Y130964D01*
X1081248Y130928D01*
X1081336Y130888D01*
X1081421Y130844D01*
X1081505Y130797D01*
X1081587Y130747D01*
X1081667Y130693D01*
X1081744Y130637D01*
X1081820Y130577D01*
X1081893Y130514D01*
X1081963Y130449D01*
X1082031Y130380D01*
X1082095Y130309D01*
X1082157Y130236D01*
X1082216Y130160D01*
X1082272Y130082D01*
X1082325Y130001D01*
X1082374Y129919D01*
X1082420Y129835D01*
X1082463Y129748D01*
X1082502Y129661D01*
X1082538Y129571D01*
X1082570Y129481D01*
X1082598Y129389D01*
X1082623Y129296D01*
X1082644Y129202D01*
X1082661Y129108D01*
X1082675Y129013D01*
X1082684Y128917D01*
X1082690Y128821D01*
X1082692Y128725D01*
X1080096Y126128D02*
X1073604Y131321D01*
X1071008Y137460D02*
X1082692Y137460D01*
X1078148Y137460D02*
X1071008Y143951D01*
X1075552Y140056D02*
X1082692Y143951D01*
M02*
