G04 EAGLE Gerber RS-274X export*
G75*
%MOMM*%
%FSLAX34Y34*%
%LPD*%
%INSilkscreen Bottom*%
%IPPOS*%
%AMOC8*
5,1,8,0,0,1.08239X$1,22.5*%
G01*
%ADD10C,0.127000*%
%ADD11C,0.177800*%
%ADD12C,0.101600*%
%ADD13C,0.200000*%
%ADD14C,0.400000*%
%ADD15C,0.050800*%
%ADD16C,0.152400*%


D10*
X1478000Y69900D02*
X1478000Y114900D01*
X1443000Y132400D02*
X1403000Y132400D01*
X1403000Y123900D01*
X1428000Y123900D01*
X1428000Y109900D01*
X1428000Y74900D02*
X1428000Y60900D01*
X1403000Y60900D01*
X1403000Y52400D01*
X1443000Y52400D01*
D11*
X1392769Y116149D02*
X1392769Y124446D01*
X1388620Y120298D02*
X1396918Y120298D01*
X1392769Y67296D02*
X1392769Y58999D01*
D12*
X1474201Y144333D02*
X1477447Y144333D01*
X1474201Y144334D02*
X1474088Y144332D01*
X1473975Y144326D01*
X1473862Y144316D01*
X1473749Y144302D01*
X1473637Y144285D01*
X1473526Y144263D01*
X1473416Y144238D01*
X1473306Y144208D01*
X1473198Y144175D01*
X1473091Y144138D01*
X1472985Y144098D01*
X1472881Y144053D01*
X1472778Y144005D01*
X1472677Y143954D01*
X1472578Y143899D01*
X1472481Y143841D01*
X1472386Y143779D01*
X1472293Y143714D01*
X1472203Y143646D01*
X1472115Y143575D01*
X1472029Y143500D01*
X1471946Y143423D01*
X1471866Y143343D01*
X1471789Y143260D01*
X1471714Y143174D01*
X1471643Y143086D01*
X1471575Y142996D01*
X1471510Y142903D01*
X1471448Y142808D01*
X1471390Y142711D01*
X1471335Y142612D01*
X1471284Y142511D01*
X1471236Y142408D01*
X1471191Y142304D01*
X1471151Y142198D01*
X1471114Y142091D01*
X1471081Y141983D01*
X1471051Y141873D01*
X1471026Y141763D01*
X1471004Y141652D01*
X1470987Y141540D01*
X1470973Y141427D01*
X1470963Y141314D01*
X1470957Y141201D01*
X1470955Y141088D01*
X1470957Y140975D01*
X1470963Y140862D01*
X1470973Y140749D01*
X1470987Y140636D01*
X1471004Y140524D01*
X1471026Y140413D01*
X1471051Y140303D01*
X1471081Y140193D01*
X1471114Y140085D01*
X1471151Y139978D01*
X1471191Y139872D01*
X1471236Y139768D01*
X1471284Y139665D01*
X1471335Y139564D01*
X1471390Y139465D01*
X1471448Y139368D01*
X1471510Y139273D01*
X1471575Y139180D01*
X1471643Y139090D01*
X1471714Y139002D01*
X1471789Y138916D01*
X1471866Y138833D01*
X1471946Y138753D01*
X1472029Y138676D01*
X1472115Y138601D01*
X1472203Y138530D01*
X1472293Y138462D01*
X1472386Y138397D01*
X1472481Y138335D01*
X1472578Y138277D01*
X1472677Y138222D01*
X1472778Y138171D01*
X1472881Y138123D01*
X1472985Y138078D01*
X1473091Y138038D01*
X1473198Y138001D01*
X1473306Y137968D01*
X1473416Y137938D01*
X1473526Y137913D01*
X1473637Y137891D01*
X1473749Y137874D01*
X1473862Y137860D01*
X1473975Y137850D01*
X1474088Y137844D01*
X1474201Y137842D01*
X1477447Y137842D01*
X1477447Y149526D01*
X1474201Y149526D01*
X1474100Y149524D01*
X1474000Y149518D01*
X1473900Y149508D01*
X1473800Y149495D01*
X1473701Y149477D01*
X1473602Y149456D01*
X1473505Y149431D01*
X1473408Y149402D01*
X1473313Y149369D01*
X1473219Y149333D01*
X1473127Y149293D01*
X1473036Y149250D01*
X1472947Y149203D01*
X1472860Y149153D01*
X1472774Y149099D01*
X1472691Y149042D01*
X1472611Y148982D01*
X1472532Y148919D01*
X1472456Y148852D01*
X1472383Y148783D01*
X1472313Y148711D01*
X1472245Y148637D01*
X1472180Y148560D01*
X1472119Y148480D01*
X1472060Y148398D01*
X1472005Y148314D01*
X1471953Y148228D01*
X1471904Y148140D01*
X1471859Y148050D01*
X1471817Y147958D01*
X1471779Y147865D01*
X1471745Y147770D01*
X1471714Y147675D01*
X1471687Y147578D01*
X1471664Y147480D01*
X1471644Y147381D01*
X1471629Y147281D01*
X1471617Y147181D01*
X1471609Y147081D01*
X1471605Y146980D01*
X1471605Y146880D01*
X1471609Y146779D01*
X1471617Y146679D01*
X1471629Y146579D01*
X1471644Y146479D01*
X1471664Y146380D01*
X1471687Y146282D01*
X1471714Y146185D01*
X1471745Y146090D01*
X1471779Y145995D01*
X1471817Y145902D01*
X1471859Y145810D01*
X1471904Y145720D01*
X1471953Y145632D01*
X1472005Y145546D01*
X1472060Y145462D01*
X1472119Y145380D01*
X1472180Y145300D01*
X1472245Y145223D01*
X1472313Y145149D01*
X1472383Y145077D01*
X1472456Y145008D01*
X1472532Y144941D01*
X1472611Y144878D01*
X1472691Y144818D01*
X1472774Y144761D01*
X1472860Y144707D01*
X1472947Y144657D01*
X1473036Y144610D01*
X1473127Y144567D01*
X1473219Y144527D01*
X1473313Y144491D01*
X1473408Y144458D01*
X1473505Y144429D01*
X1473602Y144404D01*
X1473701Y144383D01*
X1473800Y144365D01*
X1473900Y144352D01*
X1474000Y144342D01*
X1474100Y144336D01*
X1474201Y144334D01*
X1467216Y137842D02*
X1463322Y149526D01*
X1459427Y137842D01*
X1460401Y140763D02*
X1466243Y140763D01*
X1452654Y137842D02*
X1452654Y149526D01*
X1455899Y149526D02*
X1449408Y149526D01*
X1442748Y149526D02*
X1442748Y137842D01*
X1445993Y149526D02*
X1439502Y149526D01*
X1434922Y137842D02*
X1429729Y137842D01*
X1434922Y137842D02*
X1434922Y149526D01*
X1429729Y149526D01*
X1431027Y144333D02*
X1434922Y144333D01*
X1424965Y149526D02*
X1424965Y137842D01*
X1424965Y149526D02*
X1421719Y149526D01*
X1421606Y149524D01*
X1421493Y149518D01*
X1421380Y149508D01*
X1421267Y149494D01*
X1421155Y149477D01*
X1421044Y149455D01*
X1420934Y149430D01*
X1420824Y149400D01*
X1420716Y149367D01*
X1420609Y149330D01*
X1420503Y149290D01*
X1420399Y149245D01*
X1420296Y149197D01*
X1420195Y149146D01*
X1420096Y149091D01*
X1419999Y149033D01*
X1419904Y148971D01*
X1419811Y148906D01*
X1419721Y148838D01*
X1419633Y148767D01*
X1419547Y148692D01*
X1419464Y148615D01*
X1419384Y148535D01*
X1419307Y148452D01*
X1419232Y148366D01*
X1419161Y148278D01*
X1419093Y148188D01*
X1419028Y148095D01*
X1418966Y148000D01*
X1418908Y147903D01*
X1418853Y147804D01*
X1418802Y147703D01*
X1418754Y147600D01*
X1418709Y147496D01*
X1418669Y147390D01*
X1418632Y147283D01*
X1418599Y147175D01*
X1418569Y147065D01*
X1418544Y146955D01*
X1418522Y146844D01*
X1418505Y146732D01*
X1418491Y146619D01*
X1418481Y146506D01*
X1418475Y146393D01*
X1418473Y146280D01*
X1418475Y146167D01*
X1418481Y146054D01*
X1418491Y145941D01*
X1418505Y145828D01*
X1418522Y145716D01*
X1418544Y145605D01*
X1418569Y145495D01*
X1418599Y145385D01*
X1418632Y145277D01*
X1418669Y145170D01*
X1418709Y145064D01*
X1418754Y144960D01*
X1418802Y144857D01*
X1418853Y144756D01*
X1418908Y144657D01*
X1418966Y144560D01*
X1419028Y144465D01*
X1419093Y144372D01*
X1419161Y144282D01*
X1419232Y144194D01*
X1419307Y144108D01*
X1419384Y144025D01*
X1419464Y143945D01*
X1419547Y143868D01*
X1419633Y143793D01*
X1419721Y143722D01*
X1419811Y143654D01*
X1419904Y143589D01*
X1419999Y143527D01*
X1420096Y143469D01*
X1420195Y143414D01*
X1420296Y143363D01*
X1420399Y143315D01*
X1420503Y143270D01*
X1420609Y143230D01*
X1420716Y143193D01*
X1420824Y143160D01*
X1420934Y143130D01*
X1421044Y143105D01*
X1421155Y143083D01*
X1421267Y143066D01*
X1421380Y143052D01*
X1421493Y143042D01*
X1421606Y143036D01*
X1421719Y143034D01*
X1421719Y143035D02*
X1424965Y143035D01*
X1421070Y143035D02*
X1418473Y137842D01*
X1410363Y144009D02*
X1414257Y149526D01*
X1410363Y144009D02*
X1406468Y149526D01*
X1410363Y144009D02*
X1410363Y137842D01*
D10*
X1335400Y33670D02*
X1335400Y13370D01*
X1335400Y33670D02*
X1378600Y33670D01*
X1378600Y13370D01*
X1335400Y13370D01*
X1335400Y23520D02*
X1329640Y23520D01*
X1378600Y23520D02*
X1384360Y23520D01*
D12*
X1366440Y28912D02*
X1366440Y17228D01*
X1366440Y28912D02*
X1363194Y28912D01*
X1363081Y28910D01*
X1362968Y28904D01*
X1362855Y28894D01*
X1362742Y28880D01*
X1362630Y28863D01*
X1362519Y28841D01*
X1362409Y28816D01*
X1362299Y28786D01*
X1362191Y28753D01*
X1362084Y28716D01*
X1361978Y28676D01*
X1361874Y28631D01*
X1361771Y28583D01*
X1361670Y28532D01*
X1361571Y28477D01*
X1361474Y28419D01*
X1361379Y28357D01*
X1361286Y28292D01*
X1361196Y28224D01*
X1361108Y28153D01*
X1361022Y28078D01*
X1360939Y28001D01*
X1360859Y27921D01*
X1360782Y27838D01*
X1360707Y27752D01*
X1360636Y27664D01*
X1360568Y27574D01*
X1360503Y27481D01*
X1360441Y27386D01*
X1360383Y27289D01*
X1360328Y27190D01*
X1360277Y27089D01*
X1360229Y26986D01*
X1360184Y26882D01*
X1360144Y26776D01*
X1360107Y26669D01*
X1360074Y26561D01*
X1360044Y26451D01*
X1360019Y26341D01*
X1359997Y26230D01*
X1359980Y26118D01*
X1359966Y26005D01*
X1359956Y25892D01*
X1359950Y25779D01*
X1359948Y25666D01*
X1359950Y25553D01*
X1359956Y25440D01*
X1359966Y25327D01*
X1359980Y25214D01*
X1359997Y25102D01*
X1360019Y24991D01*
X1360044Y24881D01*
X1360074Y24771D01*
X1360107Y24663D01*
X1360144Y24556D01*
X1360184Y24450D01*
X1360229Y24346D01*
X1360277Y24243D01*
X1360328Y24142D01*
X1360383Y24043D01*
X1360441Y23946D01*
X1360503Y23851D01*
X1360568Y23758D01*
X1360636Y23668D01*
X1360707Y23580D01*
X1360782Y23494D01*
X1360859Y23411D01*
X1360939Y23331D01*
X1361022Y23254D01*
X1361108Y23179D01*
X1361196Y23108D01*
X1361286Y23040D01*
X1361379Y22975D01*
X1361474Y22913D01*
X1361571Y22855D01*
X1361670Y22800D01*
X1361771Y22749D01*
X1361874Y22701D01*
X1361978Y22656D01*
X1362084Y22616D01*
X1362191Y22579D01*
X1362299Y22546D01*
X1362409Y22516D01*
X1362519Y22491D01*
X1362630Y22469D01*
X1362742Y22452D01*
X1362855Y22438D01*
X1362968Y22428D01*
X1363081Y22422D01*
X1363194Y22420D01*
X1363194Y22421D02*
X1366440Y22421D01*
X1362545Y22421D02*
X1359949Y17228D01*
X1355083Y19824D02*
X1352487Y28912D01*
X1355083Y19824D02*
X1348592Y19824D01*
X1350540Y17228D02*
X1350540Y22421D01*
D10*
X1269600Y27150D02*
X1269600Y6850D01*
X1226400Y6850D01*
X1226400Y27150D01*
X1269600Y27150D01*
X1269600Y17000D02*
X1275360Y17000D01*
X1226400Y17000D02*
X1220640Y17000D01*
D12*
X1257158Y22328D02*
X1257158Y10644D01*
X1257158Y22328D02*
X1253912Y22328D01*
X1253799Y22326D01*
X1253686Y22320D01*
X1253573Y22310D01*
X1253460Y22296D01*
X1253348Y22279D01*
X1253237Y22257D01*
X1253127Y22232D01*
X1253017Y22202D01*
X1252909Y22169D01*
X1252802Y22132D01*
X1252696Y22092D01*
X1252592Y22047D01*
X1252489Y21999D01*
X1252388Y21948D01*
X1252289Y21893D01*
X1252192Y21835D01*
X1252097Y21773D01*
X1252004Y21708D01*
X1251914Y21640D01*
X1251826Y21569D01*
X1251740Y21494D01*
X1251657Y21417D01*
X1251577Y21337D01*
X1251500Y21254D01*
X1251425Y21168D01*
X1251354Y21080D01*
X1251286Y20990D01*
X1251221Y20897D01*
X1251159Y20802D01*
X1251101Y20705D01*
X1251046Y20606D01*
X1250995Y20505D01*
X1250947Y20402D01*
X1250902Y20298D01*
X1250862Y20192D01*
X1250825Y20085D01*
X1250792Y19977D01*
X1250762Y19867D01*
X1250737Y19757D01*
X1250715Y19646D01*
X1250698Y19534D01*
X1250684Y19421D01*
X1250674Y19308D01*
X1250668Y19195D01*
X1250666Y19082D01*
X1250668Y18969D01*
X1250674Y18856D01*
X1250684Y18743D01*
X1250698Y18630D01*
X1250715Y18518D01*
X1250737Y18407D01*
X1250762Y18297D01*
X1250792Y18187D01*
X1250825Y18079D01*
X1250862Y17972D01*
X1250902Y17866D01*
X1250947Y17762D01*
X1250995Y17659D01*
X1251046Y17558D01*
X1251101Y17459D01*
X1251159Y17362D01*
X1251221Y17267D01*
X1251286Y17174D01*
X1251354Y17084D01*
X1251425Y16996D01*
X1251500Y16910D01*
X1251577Y16827D01*
X1251657Y16747D01*
X1251740Y16670D01*
X1251826Y16595D01*
X1251914Y16524D01*
X1252004Y16456D01*
X1252097Y16391D01*
X1252192Y16329D01*
X1252289Y16271D01*
X1252388Y16216D01*
X1252489Y16165D01*
X1252592Y16117D01*
X1252696Y16072D01*
X1252802Y16032D01*
X1252909Y15995D01*
X1253017Y15962D01*
X1253127Y15932D01*
X1253237Y15907D01*
X1253348Y15885D01*
X1253460Y15868D01*
X1253573Y15854D01*
X1253686Y15844D01*
X1253799Y15838D01*
X1253912Y15836D01*
X1253912Y15837D02*
X1257158Y15837D01*
X1253263Y15837D02*
X1250667Y10644D01*
X1245801Y10644D02*
X1241907Y10644D01*
X1241808Y10646D01*
X1241708Y10652D01*
X1241609Y10661D01*
X1241511Y10674D01*
X1241413Y10691D01*
X1241315Y10712D01*
X1241219Y10737D01*
X1241124Y10765D01*
X1241030Y10797D01*
X1240937Y10832D01*
X1240845Y10871D01*
X1240755Y10914D01*
X1240667Y10959D01*
X1240580Y11009D01*
X1240496Y11061D01*
X1240413Y11117D01*
X1240333Y11175D01*
X1240255Y11237D01*
X1240180Y11302D01*
X1240107Y11370D01*
X1240037Y11440D01*
X1239969Y11513D01*
X1239904Y11588D01*
X1239842Y11666D01*
X1239784Y11746D01*
X1239728Y11829D01*
X1239676Y11913D01*
X1239626Y12000D01*
X1239581Y12088D01*
X1239538Y12178D01*
X1239499Y12270D01*
X1239464Y12363D01*
X1239432Y12457D01*
X1239404Y12552D01*
X1239379Y12648D01*
X1239358Y12746D01*
X1239341Y12844D01*
X1239328Y12942D01*
X1239319Y13041D01*
X1239313Y13141D01*
X1239311Y13240D01*
X1239310Y13240D02*
X1239310Y14539D01*
X1239311Y14539D02*
X1239313Y14638D01*
X1239319Y14738D01*
X1239328Y14837D01*
X1239341Y14935D01*
X1239358Y15033D01*
X1239379Y15131D01*
X1239404Y15227D01*
X1239432Y15322D01*
X1239464Y15416D01*
X1239499Y15509D01*
X1239538Y15601D01*
X1239581Y15691D01*
X1239626Y15779D01*
X1239676Y15866D01*
X1239728Y15950D01*
X1239784Y16033D01*
X1239842Y16113D01*
X1239904Y16191D01*
X1239969Y16266D01*
X1240037Y16339D01*
X1240107Y16409D01*
X1240180Y16477D01*
X1240255Y16542D01*
X1240333Y16604D01*
X1240413Y16662D01*
X1240496Y16718D01*
X1240580Y16770D01*
X1240667Y16820D01*
X1240755Y16865D01*
X1240845Y16908D01*
X1240937Y16947D01*
X1241030Y16982D01*
X1241124Y17014D01*
X1241219Y17042D01*
X1241315Y17067D01*
X1241413Y17088D01*
X1241511Y17105D01*
X1241609Y17118D01*
X1241708Y17127D01*
X1241808Y17133D01*
X1241907Y17135D01*
X1245801Y17135D01*
X1245801Y22328D01*
X1239310Y22328D01*
D13*
X964000Y143600D02*
X964000Y270600D01*
X946000Y270600D01*
X946000Y143600D02*
X964000Y143600D01*
X906000Y143600D02*
X822000Y143600D01*
X822000Y270600D01*
X906000Y270600D01*
D14*
X949800Y155100D02*
X949802Y155189D01*
X949808Y155278D01*
X949818Y155367D01*
X949832Y155455D01*
X949849Y155542D01*
X949871Y155628D01*
X949897Y155714D01*
X949926Y155798D01*
X949959Y155881D01*
X949995Y155962D01*
X950036Y156042D01*
X950079Y156119D01*
X950126Y156195D01*
X950177Y156268D01*
X950230Y156339D01*
X950287Y156408D01*
X950347Y156474D01*
X950410Y156538D01*
X950475Y156598D01*
X950543Y156656D01*
X950614Y156710D01*
X950687Y156761D01*
X950762Y156809D01*
X950839Y156854D01*
X950918Y156895D01*
X950999Y156932D01*
X951081Y156966D01*
X951165Y156997D01*
X951250Y157023D01*
X951336Y157046D01*
X951423Y157064D01*
X951511Y157079D01*
X951600Y157090D01*
X951689Y157097D01*
X951778Y157100D01*
X951867Y157099D01*
X951956Y157094D01*
X952044Y157085D01*
X952133Y157072D01*
X952220Y157055D01*
X952307Y157035D01*
X952393Y157010D01*
X952477Y156982D01*
X952560Y156950D01*
X952642Y156914D01*
X952722Y156875D01*
X952800Y156832D01*
X952876Y156786D01*
X952950Y156736D01*
X953022Y156683D01*
X953091Y156627D01*
X953158Y156568D01*
X953222Y156506D01*
X953283Y156442D01*
X953342Y156374D01*
X953397Y156304D01*
X953449Y156232D01*
X953498Y156157D01*
X953543Y156081D01*
X953585Y156002D01*
X953623Y155922D01*
X953658Y155840D01*
X953689Y155756D01*
X953717Y155671D01*
X953740Y155585D01*
X953760Y155498D01*
X953776Y155411D01*
X953788Y155322D01*
X953796Y155234D01*
X953800Y155145D01*
X953800Y155055D01*
X953796Y154966D01*
X953788Y154878D01*
X953776Y154789D01*
X953760Y154702D01*
X953740Y154615D01*
X953717Y154529D01*
X953689Y154444D01*
X953658Y154360D01*
X953623Y154278D01*
X953585Y154198D01*
X953543Y154119D01*
X953498Y154043D01*
X953449Y153968D01*
X953397Y153896D01*
X953342Y153826D01*
X953283Y153758D01*
X953222Y153694D01*
X953158Y153632D01*
X953091Y153573D01*
X953022Y153517D01*
X952950Y153464D01*
X952876Y153414D01*
X952800Y153368D01*
X952722Y153325D01*
X952642Y153286D01*
X952560Y153250D01*
X952477Y153218D01*
X952393Y153190D01*
X952307Y153165D01*
X952220Y153145D01*
X952133Y153128D01*
X952044Y153115D01*
X951956Y153106D01*
X951867Y153101D01*
X951778Y153100D01*
X951689Y153103D01*
X951600Y153110D01*
X951511Y153121D01*
X951423Y153136D01*
X951336Y153154D01*
X951250Y153177D01*
X951165Y153203D01*
X951081Y153234D01*
X950999Y153268D01*
X950918Y153305D01*
X950839Y153346D01*
X950762Y153391D01*
X950687Y153439D01*
X950614Y153490D01*
X950543Y153544D01*
X950475Y153602D01*
X950410Y153662D01*
X950347Y153726D01*
X950287Y153792D01*
X950230Y153861D01*
X950177Y153932D01*
X950126Y154005D01*
X950079Y154081D01*
X950036Y154158D01*
X949995Y154238D01*
X949959Y154319D01*
X949926Y154402D01*
X949897Y154486D01*
X949871Y154572D01*
X949849Y154658D01*
X949832Y154745D01*
X949818Y154833D01*
X949808Y154922D01*
X949802Y155011D01*
X949800Y155100D01*
D12*
X888412Y280763D02*
X888412Y289201D01*
X888412Y280763D02*
X888410Y280650D01*
X888404Y280537D01*
X888394Y280424D01*
X888380Y280311D01*
X888363Y280199D01*
X888341Y280088D01*
X888316Y279978D01*
X888286Y279868D01*
X888253Y279760D01*
X888216Y279653D01*
X888176Y279547D01*
X888131Y279443D01*
X888083Y279340D01*
X888032Y279239D01*
X887977Y279140D01*
X887919Y279043D01*
X887857Y278948D01*
X887792Y278855D01*
X887724Y278765D01*
X887653Y278677D01*
X887578Y278591D01*
X887501Y278508D01*
X887421Y278428D01*
X887338Y278351D01*
X887252Y278276D01*
X887164Y278205D01*
X887074Y278137D01*
X886981Y278072D01*
X886886Y278010D01*
X886789Y277952D01*
X886690Y277897D01*
X886589Y277846D01*
X886486Y277798D01*
X886382Y277753D01*
X886276Y277713D01*
X886169Y277676D01*
X886061Y277643D01*
X885951Y277613D01*
X885841Y277588D01*
X885730Y277566D01*
X885618Y277549D01*
X885505Y277535D01*
X885392Y277525D01*
X885279Y277519D01*
X885166Y277517D01*
X885053Y277519D01*
X884940Y277525D01*
X884827Y277535D01*
X884714Y277549D01*
X884602Y277566D01*
X884491Y277588D01*
X884381Y277613D01*
X884271Y277643D01*
X884163Y277676D01*
X884056Y277713D01*
X883950Y277753D01*
X883846Y277798D01*
X883743Y277846D01*
X883642Y277897D01*
X883543Y277952D01*
X883446Y278010D01*
X883351Y278072D01*
X883258Y278137D01*
X883168Y278205D01*
X883080Y278276D01*
X882994Y278351D01*
X882911Y278428D01*
X882831Y278508D01*
X882754Y278591D01*
X882679Y278677D01*
X882608Y278765D01*
X882540Y278855D01*
X882475Y278948D01*
X882413Y279043D01*
X882355Y279140D01*
X882300Y279239D01*
X882249Y279340D01*
X882201Y279443D01*
X882156Y279547D01*
X882116Y279653D01*
X882079Y279760D01*
X882046Y279868D01*
X882016Y279978D01*
X881991Y280088D01*
X881969Y280199D01*
X881952Y280311D01*
X881938Y280424D01*
X881928Y280537D01*
X881922Y280650D01*
X881920Y280763D01*
X881921Y280763D02*
X881921Y289201D01*
X870491Y280113D02*
X870493Y280014D01*
X870499Y279914D01*
X870508Y279815D01*
X870521Y279717D01*
X870538Y279619D01*
X870559Y279521D01*
X870584Y279425D01*
X870612Y279330D01*
X870644Y279236D01*
X870679Y279143D01*
X870718Y279051D01*
X870761Y278961D01*
X870806Y278873D01*
X870856Y278786D01*
X870908Y278702D01*
X870964Y278619D01*
X871022Y278539D01*
X871084Y278461D01*
X871149Y278386D01*
X871217Y278313D01*
X871287Y278243D01*
X871360Y278175D01*
X871435Y278110D01*
X871513Y278048D01*
X871593Y277990D01*
X871676Y277934D01*
X871760Y277882D01*
X871847Y277832D01*
X871935Y277787D01*
X872025Y277744D01*
X872117Y277705D01*
X872210Y277670D01*
X872304Y277638D01*
X872399Y277610D01*
X872495Y277585D01*
X872593Y277564D01*
X872691Y277547D01*
X872789Y277534D01*
X872888Y277525D01*
X872988Y277519D01*
X873087Y277517D01*
X873231Y277519D01*
X873376Y277525D01*
X873520Y277534D01*
X873663Y277547D01*
X873807Y277564D01*
X873950Y277585D01*
X874092Y277610D01*
X874233Y277638D01*
X874374Y277670D01*
X874514Y277706D01*
X874653Y277745D01*
X874791Y277788D01*
X874927Y277835D01*
X875063Y277885D01*
X875197Y277939D01*
X875329Y277996D01*
X875460Y278057D01*
X875589Y278121D01*
X875717Y278189D01*
X875843Y278260D01*
X875967Y278334D01*
X876088Y278411D01*
X876208Y278492D01*
X876326Y278575D01*
X876441Y278662D01*
X876554Y278752D01*
X876665Y278845D01*
X876773Y278940D01*
X876879Y279039D01*
X876982Y279140D01*
X876657Y286605D02*
X876655Y286704D01*
X876649Y286804D01*
X876640Y286903D01*
X876627Y287001D01*
X876610Y287099D01*
X876589Y287197D01*
X876564Y287293D01*
X876536Y287388D01*
X876504Y287482D01*
X876469Y287575D01*
X876430Y287667D01*
X876387Y287757D01*
X876342Y287845D01*
X876292Y287932D01*
X876240Y288016D01*
X876184Y288099D01*
X876126Y288179D01*
X876064Y288257D01*
X875999Y288332D01*
X875931Y288405D01*
X875861Y288475D01*
X875788Y288543D01*
X875713Y288608D01*
X875635Y288670D01*
X875555Y288728D01*
X875472Y288784D01*
X875388Y288836D01*
X875301Y288886D01*
X875213Y288931D01*
X875123Y288974D01*
X875031Y289013D01*
X874938Y289048D01*
X874844Y289080D01*
X874749Y289108D01*
X874653Y289133D01*
X874555Y289154D01*
X874457Y289171D01*
X874359Y289184D01*
X874260Y289193D01*
X874160Y289199D01*
X874061Y289201D01*
X873925Y289199D01*
X873789Y289193D01*
X873653Y289184D01*
X873517Y289171D01*
X873382Y289153D01*
X873248Y289133D01*
X873114Y289108D01*
X872980Y289080D01*
X872848Y289047D01*
X872717Y289012D01*
X872586Y288972D01*
X872457Y288929D01*
X872329Y288883D01*
X872203Y288832D01*
X872077Y288779D01*
X871954Y288721D01*
X871832Y288661D01*
X871712Y288597D01*
X871593Y288529D01*
X871477Y288459D01*
X871363Y288385D01*
X871250Y288308D01*
X871140Y288227D01*
X875360Y284333D02*
X875446Y284386D01*
X875530Y284443D01*
X875612Y284502D01*
X875692Y284565D01*
X875769Y284631D01*
X875844Y284699D01*
X875916Y284771D01*
X875985Y284845D01*
X876051Y284922D01*
X876114Y285001D01*
X876174Y285083D01*
X876231Y285167D01*
X876285Y285253D01*
X876335Y285341D01*
X876382Y285431D01*
X876426Y285522D01*
X876465Y285616D01*
X876502Y285710D01*
X876534Y285806D01*
X876563Y285904D01*
X876588Y286002D01*
X876609Y286101D01*
X876627Y286201D01*
X876640Y286301D01*
X876650Y286402D01*
X876656Y286504D01*
X876658Y286605D01*
X871789Y282385D02*
X871703Y282332D01*
X871619Y282275D01*
X871537Y282216D01*
X871457Y282153D01*
X871380Y282087D01*
X871305Y282019D01*
X871233Y281947D01*
X871164Y281873D01*
X871098Y281796D01*
X871035Y281717D01*
X870975Y281635D01*
X870918Y281551D01*
X870864Y281465D01*
X870814Y281377D01*
X870767Y281287D01*
X870723Y281196D01*
X870684Y281102D01*
X870647Y281008D01*
X870615Y280912D01*
X870586Y280814D01*
X870561Y280716D01*
X870540Y280617D01*
X870522Y280517D01*
X870509Y280417D01*
X870499Y280316D01*
X870493Y280214D01*
X870491Y280113D01*
X871789Y282385D02*
X875359Y284333D01*
X865383Y284008D02*
X862137Y284008D01*
X862137Y284009D02*
X862024Y284007D01*
X861911Y284001D01*
X861798Y283991D01*
X861685Y283977D01*
X861573Y283960D01*
X861462Y283938D01*
X861352Y283913D01*
X861242Y283883D01*
X861134Y283850D01*
X861027Y283813D01*
X860921Y283773D01*
X860817Y283728D01*
X860714Y283680D01*
X860613Y283629D01*
X860514Y283574D01*
X860417Y283516D01*
X860322Y283454D01*
X860229Y283389D01*
X860139Y283321D01*
X860051Y283250D01*
X859965Y283175D01*
X859882Y283098D01*
X859802Y283018D01*
X859725Y282935D01*
X859650Y282849D01*
X859579Y282761D01*
X859511Y282671D01*
X859446Y282578D01*
X859384Y282483D01*
X859326Y282386D01*
X859271Y282287D01*
X859220Y282186D01*
X859172Y282083D01*
X859127Y281979D01*
X859087Y281873D01*
X859050Y281766D01*
X859017Y281658D01*
X858987Y281548D01*
X858962Y281438D01*
X858940Y281327D01*
X858923Y281215D01*
X858909Y281102D01*
X858899Y280989D01*
X858893Y280876D01*
X858891Y280763D01*
X858893Y280650D01*
X858899Y280537D01*
X858909Y280424D01*
X858923Y280311D01*
X858940Y280199D01*
X858962Y280088D01*
X858987Y279978D01*
X859017Y279868D01*
X859050Y279760D01*
X859087Y279653D01*
X859127Y279547D01*
X859172Y279443D01*
X859220Y279340D01*
X859271Y279239D01*
X859326Y279140D01*
X859384Y279043D01*
X859446Y278948D01*
X859511Y278855D01*
X859579Y278765D01*
X859650Y278677D01*
X859725Y278591D01*
X859802Y278508D01*
X859882Y278428D01*
X859965Y278351D01*
X860051Y278276D01*
X860139Y278205D01*
X860229Y278137D01*
X860322Y278072D01*
X860417Y278010D01*
X860514Y277952D01*
X860613Y277897D01*
X860714Y277846D01*
X860817Y277798D01*
X860921Y277753D01*
X861027Y277713D01*
X861134Y277676D01*
X861242Y277643D01*
X861352Y277613D01*
X861462Y277588D01*
X861573Y277566D01*
X861685Y277549D01*
X861798Y277535D01*
X861911Y277525D01*
X862024Y277519D01*
X862137Y277517D01*
X865383Y277517D01*
X865383Y289201D01*
X862137Y289201D01*
X862036Y289199D01*
X861936Y289193D01*
X861836Y289183D01*
X861736Y289170D01*
X861637Y289152D01*
X861538Y289131D01*
X861441Y289106D01*
X861344Y289077D01*
X861249Y289044D01*
X861155Y289008D01*
X861063Y288968D01*
X860972Y288925D01*
X860883Y288878D01*
X860796Y288828D01*
X860710Y288774D01*
X860627Y288717D01*
X860547Y288657D01*
X860468Y288594D01*
X860392Y288527D01*
X860319Y288458D01*
X860249Y288386D01*
X860181Y288312D01*
X860116Y288235D01*
X860055Y288155D01*
X859996Y288073D01*
X859941Y287989D01*
X859889Y287903D01*
X859840Y287815D01*
X859795Y287725D01*
X859753Y287633D01*
X859715Y287540D01*
X859681Y287445D01*
X859650Y287350D01*
X859623Y287253D01*
X859600Y287155D01*
X859580Y287056D01*
X859565Y286956D01*
X859553Y286856D01*
X859545Y286756D01*
X859541Y286655D01*
X859541Y286555D01*
X859545Y286454D01*
X859553Y286354D01*
X859565Y286254D01*
X859580Y286154D01*
X859600Y286055D01*
X859623Y285957D01*
X859650Y285860D01*
X859681Y285765D01*
X859715Y285670D01*
X859753Y285577D01*
X859795Y285485D01*
X859840Y285395D01*
X859889Y285307D01*
X859941Y285221D01*
X859996Y285137D01*
X860055Y285055D01*
X860116Y284975D01*
X860181Y284898D01*
X860249Y284824D01*
X860319Y284752D01*
X860392Y284683D01*
X860468Y284616D01*
X860547Y284553D01*
X860627Y284493D01*
X860710Y284436D01*
X860796Y284382D01*
X860883Y284332D01*
X860972Y284285D01*
X861063Y284242D01*
X861155Y284202D01*
X861249Y284166D01*
X861344Y284133D01*
X861441Y284104D01*
X861538Y284079D01*
X861637Y284058D01*
X861736Y284040D01*
X861836Y284027D01*
X861936Y284017D01*
X862036Y284011D01*
X862137Y284009D01*
X854997Y276219D02*
X849804Y276219D01*
X842796Y277517D02*
X840199Y277517D01*
X842796Y277517D02*
X842895Y277519D01*
X842995Y277525D01*
X843094Y277534D01*
X843192Y277547D01*
X843290Y277564D01*
X843388Y277585D01*
X843484Y277610D01*
X843579Y277638D01*
X843673Y277670D01*
X843766Y277705D01*
X843858Y277744D01*
X843948Y277787D01*
X844036Y277832D01*
X844123Y277882D01*
X844207Y277934D01*
X844290Y277990D01*
X844370Y278048D01*
X844448Y278110D01*
X844523Y278175D01*
X844596Y278243D01*
X844666Y278313D01*
X844734Y278386D01*
X844799Y278461D01*
X844861Y278539D01*
X844919Y278619D01*
X844975Y278702D01*
X845027Y278786D01*
X845077Y278873D01*
X845122Y278961D01*
X845165Y279051D01*
X845204Y279143D01*
X845239Y279236D01*
X845271Y279330D01*
X845299Y279425D01*
X845324Y279521D01*
X845345Y279619D01*
X845362Y279717D01*
X845375Y279815D01*
X845384Y279914D01*
X845390Y280014D01*
X845392Y280113D01*
X845392Y286605D01*
X845390Y286704D01*
X845384Y286804D01*
X845375Y286903D01*
X845362Y287001D01*
X845345Y287099D01*
X845324Y287197D01*
X845299Y287293D01*
X845271Y287388D01*
X845239Y287482D01*
X845204Y287575D01*
X845165Y287667D01*
X845122Y287757D01*
X845077Y287845D01*
X845027Y287932D01*
X844975Y288016D01*
X844919Y288099D01*
X844861Y288179D01*
X844799Y288257D01*
X844734Y288332D01*
X844666Y288405D01*
X844596Y288475D01*
X844523Y288543D01*
X844448Y288608D01*
X844370Y288670D01*
X844290Y288728D01*
X844207Y288784D01*
X844123Y288836D01*
X844036Y288886D01*
X843948Y288931D01*
X843858Y288974D01*
X843766Y289013D01*
X843673Y289048D01*
X843579Y289080D01*
X843484Y289108D01*
X843388Y289133D01*
X843290Y289154D01*
X843192Y289171D01*
X843094Y289184D01*
X842995Y289193D01*
X842895Y289199D01*
X842796Y289201D01*
X840199Y289201D01*
X832589Y289201D02*
X836483Y277517D01*
X828694Y277517D02*
X832589Y289201D01*
X829668Y280438D02*
X835510Y280438D01*
X823910Y277517D02*
X823910Y289201D01*
X820016Y282710D01*
X816121Y289201D01*
X816121Y277517D01*
D10*
X1430500Y274400D02*
X1480500Y274400D01*
X1480500Y199400D02*
X1430500Y199400D01*
X1430500Y269400D02*
X1430500Y274400D01*
X1430500Y204400D02*
X1430500Y199400D01*
D15*
X1481342Y293416D02*
X1481342Y298552D01*
X1481342Y293416D02*
X1481340Y293329D01*
X1481334Y293241D01*
X1481325Y293154D01*
X1481311Y293068D01*
X1481294Y292982D01*
X1481273Y292898D01*
X1481248Y292814D01*
X1481219Y292731D01*
X1481187Y292650D01*
X1481152Y292570D01*
X1481113Y292492D01*
X1481070Y292415D01*
X1481024Y292341D01*
X1480975Y292269D01*
X1480923Y292199D01*
X1480867Y292131D01*
X1480809Y292066D01*
X1480748Y292003D01*
X1480684Y291944D01*
X1480617Y291887D01*
X1480549Y291833D01*
X1480477Y291782D01*
X1480404Y291735D01*
X1480329Y291690D01*
X1480251Y291649D01*
X1480172Y291612D01*
X1480092Y291578D01*
X1480010Y291548D01*
X1479927Y291521D01*
X1479842Y291498D01*
X1479757Y291479D01*
X1479671Y291464D01*
X1479584Y291452D01*
X1479497Y291444D01*
X1479410Y291440D01*
X1479322Y291440D01*
X1479235Y291444D01*
X1479148Y291452D01*
X1479061Y291464D01*
X1478975Y291479D01*
X1478890Y291498D01*
X1478805Y291521D01*
X1478722Y291548D01*
X1478640Y291578D01*
X1478560Y291612D01*
X1478481Y291649D01*
X1478403Y291690D01*
X1478328Y291735D01*
X1478255Y291782D01*
X1478183Y291833D01*
X1478115Y291887D01*
X1478048Y291944D01*
X1477984Y292003D01*
X1477923Y292066D01*
X1477865Y292131D01*
X1477809Y292199D01*
X1477757Y292269D01*
X1477708Y292341D01*
X1477662Y292415D01*
X1477619Y292492D01*
X1477580Y292570D01*
X1477545Y292650D01*
X1477513Y292731D01*
X1477484Y292814D01*
X1477459Y292898D01*
X1477438Y292982D01*
X1477421Y293068D01*
X1477407Y293154D01*
X1477398Y293241D01*
X1477392Y293329D01*
X1477390Y293416D01*
X1477391Y293416D02*
X1477391Y298552D01*
X1470533Y293020D02*
X1470535Y292942D01*
X1470541Y292865D01*
X1470550Y292788D01*
X1470563Y292712D01*
X1470580Y292636D01*
X1470601Y292561D01*
X1470625Y292488D01*
X1470653Y292415D01*
X1470685Y292344D01*
X1470720Y292275D01*
X1470758Y292208D01*
X1470799Y292142D01*
X1470844Y292079D01*
X1470892Y292018D01*
X1470942Y291959D01*
X1470996Y291903D01*
X1471052Y291849D01*
X1471111Y291799D01*
X1471172Y291751D01*
X1471235Y291706D01*
X1471301Y291665D01*
X1471368Y291627D01*
X1471437Y291592D01*
X1471508Y291560D01*
X1471581Y291532D01*
X1471654Y291508D01*
X1471729Y291487D01*
X1471805Y291470D01*
X1471881Y291457D01*
X1471958Y291448D01*
X1472035Y291442D01*
X1472113Y291440D01*
X1472228Y291442D01*
X1472342Y291448D01*
X1472456Y291458D01*
X1472570Y291471D01*
X1472683Y291489D01*
X1472796Y291511D01*
X1472908Y291536D01*
X1473019Y291565D01*
X1473128Y291598D01*
X1473237Y291635D01*
X1473344Y291675D01*
X1473450Y291719D01*
X1473554Y291767D01*
X1473657Y291818D01*
X1473757Y291873D01*
X1473856Y291931D01*
X1473953Y291993D01*
X1474047Y292057D01*
X1474140Y292125D01*
X1474230Y292197D01*
X1474317Y292271D01*
X1474402Y292348D01*
X1474484Y292428D01*
X1474286Y296972D02*
X1474284Y297050D01*
X1474278Y297127D01*
X1474269Y297204D01*
X1474256Y297280D01*
X1474239Y297356D01*
X1474218Y297431D01*
X1474194Y297504D01*
X1474166Y297577D01*
X1474134Y297648D01*
X1474099Y297717D01*
X1474061Y297784D01*
X1474020Y297850D01*
X1473975Y297913D01*
X1473927Y297974D01*
X1473877Y298033D01*
X1473823Y298089D01*
X1473767Y298143D01*
X1473708Y298193D01*
X1473647Y298241D01*
X1473584Y298286D01*
X1473518Y298327D01*
X1473451Y298365D01*
X1473382Y298400D01*
X1473311Y298432D01*
X1473238Y298460D01*
X1473165Y298484D01*
X1473090Y298505D01*
X1473014Y298522D01*
X1472938Y298535D01*
X1472861Y298544D01*
X1472784Y298550D01*
X1472706Y298552D01*
X1472600Y298550D01*
X1472494Y298544D01*
X1472389Y298535D01*
X1472284Y298522D01*
X1472179Y298505D01*
X1472075Y298484D01*
X1471972Y298460D01*
X1471870Y298432D01*
X1471769Y298400D01*
X1471669Y298365D01*
X1471571Y298326D01*
X1471473Y298283D01*
X1471378Y298238D01*
X1471284Y298189D01*
X1471192Y298136D01*
X1471102Y298080D01*
X1471014Y298021D01*
X1470928Y297959D01*
X1473496Y295589D02*
X1473563Y295631D01*
X1473628Y295676D01*
X1473691Y295725D01*
X1473752Y295776D01*
X1473809Y295831D01*
X1473864Y295888D01*
X1473917Y295948D01*
X1473966Y296010D01*
X1474012Y296075D01*
X1474054Y296141D01*
X1474094Y296210D01*
X1474130Y296281D01*
X1474162Y296354D01*
X1474191Y296428D01*
X1474216Y296503D01*
X1474237Y296579D01*
X1474255Y296657D01*
X1474268Y296735D01*
X1474278Y296814D01*
X1474284Y296893D01*
X1474286Y296972D01*
X1471323Y294403D02*
X1471256Y294361D01*
X1471191Y294316D01*
X1471128Y294267D01*
X1471067Y294216D01*
X1471010Y294161D01*
X1470955Y294104D01*
X1470902Y294044D01*
X1470853Y293982D01*
X1470807Y293917D01*
X1470765Y293851D01*
X1470725Y293782D01*
X1470689Y293711D01*
X1470657Y293638D01*
X1470628Y293564D01*
X1470603Y293489D01*
X1470582Y293413D01*
X1470564Y293335D01*
X1470551Y293257D01*
X1470541Y293178D01*
X1470535Y293099D01*
X1470533Y293020D01*
X1471323Y294403D02*
X1473496Y295589D01*
X1467533Y295391D02*
X1465557Y295391D01*
X1465557Y295392D02*
X1465470Y295390D01*
X1465382Y295384D01*
X1465295Y295375D01*
X1465209Y295361D01*
X1465123Y295344D01*
X1465039Y295323D01*
X1464955Y295298D01*
X1464872Y295269D01*
X1464791Y295237D01*
X1464711Y295202D01*
X1464633Y295163D01*
X1464556Y295120D01*
X1464482Y295074D01*
X1464410Y295025D01*
X1464340Y294973D01*
X1464272Y294917D01*
X1464207Y294859D01*
X1464144Y294798D01*
X1464085Y294734D01*
X1464028Y294667D01*
X1463974Y294599D01*
X1463923Y294527D01*
X1463876Y294454D01*
X1463831Y294379D01*
X1463790Y294301D01*
X1463753Y294222D01*
X1463719Y294142D01*
X1463689Y294060D01*
X1463662Y293977D01*
X1463639Y293892D01*
X1463620Y293807D01*
X1463605Y293721D01*
X1463593Y293634D01*
X1463585Y293547D01*
X1463581Y293460D01*
X1463581Y293372D01*
X1463585Y293285D01*
X1463593Y293198D01*
X1463605Y293111D01*
X1463620Y293025D01*
X1463639Y292940D01*
X1463662Y292855D01*
X1463689Y292772D01*
X1463719Y292690D01*
X1463753Y292610D01*
X1463790Y292531D01*
X1463831Y292453D01*
X1463876Y292378D01*
X1463923Y292305D01*
X1463974Y292233D01*
X1464028Y292165D01*
X1464085Y292098D01*
X1464144Y292034D01*
X1464207Y291973D01*
X1464272Y291915D01*
X1464340Y291859D01*
X1464410Y291807D01*
X1464482Y291758D01*
X1464556Y291712D01*
X1464633Y291669D01*
X1464711Y291630D01*
X1464791Y291595D01*
X1464872Y291563D01*
X1464955Y291534D01*
X1465039Y291509D01*
X1465123Y291488D01*
X1465209Y291471D01*
X1465295Y291457D01*
X1465382Y291448D01*
X1465470Y291442D01*
X1465557Y291440D01*
X1467533Y291440D01*
X1467533Y298552D01*
X1465557Y298552D01*
X1465478Y298550D01*
X1465400Y298544D01*
X1465322Y298534D01*
X1465244Y298521D01*
X1465167Y298503D01*
X1465091Y298482D01*
X1465017Y298457D01*
X1464943Y298428D01*
X1464871Y298396D01*
X1464801Y298360D01*
X1464733Y298320D01*
X1464667Y298277D01*
X1464603Y298231D01*
X1464541Y298182D01*
X1464482Y298130D01*
X1464426Y298075D01*
X1464372Y298017D01*
X1464322Y297957D01*
X1464274Y297894D01*
X1464230Y297829D01*
X1464189Y297762D01*
X1464151Y297693D01*
X1464117Y297622D01*
X1464086Y297549D01*
X1464059Y297475D01*
X1464036Y297400D01*
X1464017Y297324D01*
X1464001Y297246D01*
X1463989Y297168D01*
X1463981Y297090D01*
X1463977Y297011D01*
X1463977Y296933D01*
X1463981Y296854D01*
X1463989Y296776D01*
X1464001Y296698D01*
X1464017Y296620D01*
X1464036Y296544D01*
X1464059Y296469D01*
X1464086Y296395D01*
X1464117Y296322D01*
X1464151Y296251D01*
X1464189Y296182D01*
X1464230Y296115D01*
X1464274Y296050D01*
X1464322Y295987D01*
X1464372Y295927D01*
X1464426Y295869D01*
X1464482Y295814D01*
X1464541Y295762D01*
X1464603Y295713D01*
X1464667Y295667D01*
X1464733Y295624D01*
X1464801Y295584D01*
X1464871Y295548D01*
X1464943Y295516D01*
X1465017Y295487D01*
X1465091Y295462D01*
X1465167Y295441D01*
X1465244Y295423D01*
X1465322Y295410D01*
X1465400Y295400D01*
X1465478Y295394D01*
X1465557Y295392D01*
X1461287Y290650D02*
X1458127Y290650D01*
X1455189Y291440D02*
X1455189Y298552D01*
X1453213Y298552D01*
X1453126Y298550D01*
X1453038Y298544D01*
X1452951Y298535D01*
X1452865Y298521D01*
X1452779Y298504D01*
X1452695Y298483D01*
X1452611Y298458D01*
X1452528Y298429D01*
X1452447Y298397D01*
X1452367Y298362D01*
X1452289Y298323D01*
X1452212Y298280D01*
X1452138Y298234D01*
X1452066Y298185D01*
X1451996Y298133D01*
X1451928Y298077D01*
X1451863Y298019D01*
X1451800Y297958D01*
X1451741Y297894D01*
X1451684Y297827D01*
X1451630Y297759D01*
X1451579Y297687D01*
X1451532Y297614D01*
X1451487Y297539D01*
X1451446Y297461D01*
X1451409Y297382D01*
X1451375Y297302D01*
X1451345Y297220D01*
X1451318Y297137D01*
X1451295Y297052D01*
X1451276Y296967D01*
X1451261Y296881D01*
X1451249Y296794D01*
X1451241Y296707D01*
X1451237Y296620D01*
X1451237Y296532D01*
X1451241Y296445D01*
X1451249Y296358D01*
X1451261Y296271D01*
X1451276Y296185D01*
X1451295Y296100D01*
X1451318Y296015D01*
X1451345Y295932D01*
X1451375Y295850D01*
X1451409Y295770D01*
X1451446Y295691D01*
X1451487Y295613D01*
X1451532Y295538D01*
X1451579Y295465D01*
X1451630Y295393D01*
X1451684Y295325D01*
X1451741Y295258D01*
X1451800Y295194D01*
X1451863Y295133D01*
X1451928Y295075D01*
X1451996Y295019D01*
X1452066Y294967D01*
X1452138Y294918D01*
X1452212Y294872D01*
X1452289Y294829D01*
X1452367Y294790D01*
X1452447Y294755D01*
X1452528Y294723D01*
X1452611Y294694D01*
X1452695Y294669D01*
X1452779Y294648D01*
X1452865Y294631D01*
X1452951Y294617D01*
X1453038Y294608D01*
X1453126Y294602D01*
X1453213Y294600D01*
X1453213Y294601D02*
X1455189Y294601D01*
X1447090Y291440D02*
X1445510Y291440D01*
X1447090Y291440D02*
X1447168Y291442D01*
X1447245Y291448D01*
X1447322Y291457D01*
X1447398Y291470D01*
X1447474Y291487D01*
X1447549Y291508D01*
X1447622Y291532D01*
X1447695Y291560D01*
X1447766Y291592D01*
X1447835Y291627D01*
X1447902Y291665D01*
X1447968Y291706D01*
X1448031Y291751D01*
X1448092Y291799D01*
X1448151Y291849D01*
X1448207Y291903D01*
X1448261Y291959D01*
X1448311Y292018D01*
X1448359Y292079D01*
X1448404Y292142D01*
X1448445Y292208D01*
X1448483Y292275D01*
X1448518Y292344D01*
X1448550Y292415D01*
X1448578Y292488D01*
X1448602Y292561D01*
X1448623Y292636D01*
X1448640Y292712D01*
X1448653Y292788D01*
X1448662Y292865D01*
X1448668Y292942D01*
X1448670Y293020D01*
X1448671Y293020D02*
X1448671Y296972D01*
X1448670Y296972D02*
X1448668Y297050D01*
X1448662Y297127D01*
X1448653Y297204D01*
X1448640Y297280D01*
X1448623Y297356D01*
X1448602Y297431D01*
X1448578Y297504D01*
X1448550Y297577D01*
X1448518Y297648D01*
X1448483Y297717D01*
X1448445Y297784D01*
X1448404Y297850D01*
X1448359Y297913D01*
X1448311Y297974D01*
X1448261Y298033D01*
X1448207Y298089D01*
X1448151Y298143D01*
X1448092Y298193D01*
X1448031Y298241D01*
X1447968Y298286D01*
X1447902Y298327D01*
X1447835Y298365D01*
X1447766Y298400D01*
X1447695Y298432D01*
X1447622Y298460D01*
X1447549Y298484D01*
X1447474Y298505D01*
X1447398Y298522D01*
X1447322Y298535D01*
X1447245Y298544D01*
X1447168Y298550D01*
X1447090Y298552D01*
X1445510Y298552D01*
D16*
X1342700Y132350D02*
X1336350Y126000D01*
X1342700Y132350D02*
X1342700Y145050D01*
X1336350Y151400D01*
X1323650Y151400D01*
X1317300Y145050D01*
X1317300Y132350D01*
X1323650Y126000D01*
X1342700Y94250D02*
X1342700Y81550D01*
X1342700Y94250D02*
X1336350Y100600D01*
X1323650Y100600D01*
X1317300Y94250D01*
X1336350Y100600D02*
X1342700Y106950D01*
X1342700Y119650D01*
X1336350Y126000D01*
X1323650Y126000D01*
X1317300Y119650D01*
X1317300Y106950D01*
X1323650Y100600D01*
X1323650Y75200D02*
X1336350Y75200D01*
X1342700Y81550D01*
X1323650Y75200D02*
X1317300Y81550D01*
X1317300Y94250D01*
X1342700Y157750D02*
X1342700Y170450D01*
X1336350Y176800D01*
X1323650Y176800D01*
X1317300Y170450D01*
X1336350Y151400D02*
X1342700Y157750D01*
X1323650Y151400D02*
X1317300Y157750D01*
X1317300Y170450D01*
D10*
X1349086Y175853D02*
X1352896Y187283D01*
X1345276Y187283D02*
X1349086Y175853D01*
X1341339Y174583D02*
X1336259Y174583D01*
X1331223Y175853D02*
X1331223Y187283D01*
X1328048Y187283D01*
X1327937Y187281D01*
X1327827Y187275D01*
X1327716Y187266D01*
X1327606Y187252D01*
X1327497Y187235D01*
X1327388Y187214D01*
X1327280Y187189D01*
X1327173Y187160D01*
X1327067Y187128D01*
X1326962Y187092D01*
X1326859Y187052D01*
X1326757Y187009D01*
X1326656Y186962D01*
X1326557Y186911D01*
X1326461Y186858D01*
X1326366Y186801D01*
X1326273Y186740D01*
X1326182Y186677D01*
X1326093Y186610D01*
X1326007Y186540D01*
X1325924Y186467D01*
X1325842Y186392D01*
X1325764Y186314D01*
X1325689Y186232D01*
X1325616Y186149D01*
X1325546Y186063D01*
X1325479Y185974D01*
X1325416Y185883D01*
X1325355Y185790D01*
X1325298Y185696D01*
X1325245Y185599D01*
X1325194Y185500D01*
X1325147Y185399D01*
X1325104Y185297D01*
X1325064Y185194D01*
X1325028Y185089D01*
X1324996Y184983D01*
X1324967Y184876D01*
X1324942Y184768D01*
X1324921Y184659D01*
X1324904Y184550D01*
X1324890Y184440D01*
X1324881Y184329D01*
X1324875Y184219D01*
X1324873Y184108D01*
X1324875Y183997D01*
X1324881Y183887D01*
X1324890Y183776D01*
X1324904Y183666D01*
X1324921Y183557D01*
X1324942Y183448D01*
X1324967Y183340D01*
X1324996Y183233D01*
X1325028Y183127D01*
X1325064Y183022D01*
X1325104Y182919D01*
X1325147Y182817D01*
X1325194Y182716D01*
X1325245Y182617D01*
X1325298Y182521D01*
X1325355Y182426D01*
X1325416Y182333D01*
X1325479Y182242D01*
X1325546Y182153D01*
X1325616Y182067D01*
X1325689Y181984D01*
X1325764Y181902D01*
X1325842Y181824D01*
X1325924Y181749D01*
X1326007Y181676D01*
X1326093Y181606D01*
X1326182Y181539D01*
X1326273Y181476D01*
X1326366Y181415D01*
X1326461Y181358D01*
X1326557Y181305D01*
X1326656Y181254D01*
X1326757Y181207D01*
X1326859Y181164D01*
X1326962Y181124D01*
X1327067Y181088D01*
X1327173Y181056D01*
X1327280Y181027D01*
X1327388Y181002D01*
X1327497Y180981D01*
X1327606Y180964D01*
X1327716Y180950D01*
X1327827Y180941D01*
X1327937Y180935D01*
X1328048Y180933D01*
X1331223Y180933D01*
X1327413Y180933D02*
X1324873Y175853D01*
X1319470Y175853D02*
X1314390Y175853D01*
X1319470Y175853D02*
X1319470Y187283D01*
X1314390Y187283D01*
X1315660Y182203D02*
X1319470Y182203D01*
X1305144Y182203D02*
X1303239Y182203D01*
X1303239Y175853D01*
X1307049Y175853D01*
X1307149Y175855D01*
X1307248Y175861D01*
X1307348Y175871D01*
X1307446Y175884D01*
X1307545Y175902D01*
X1307642Y175923D01*
X1307738Y175948D01*
X1307834Y175977D01*
X1307928Y176010D01*
X1308021Y176046D01*
X1308112Y176086D01*
X1308202Y176130D01*
X1308290Y176177D01*
X1308376Y176227D01*
X1308460Y176281D01*
X1308542Y176338D01*
X1308621Y176398D01*
X1308699Y176462D01*
X1308773Y176528D01*
X1308845Y176597D01*
X1308914Y176669D01*
X1308980Y176743D01*
X1309044Y176821D01*
X1309104Y176900D01*
X1309161Y176982D01*
X1309215Y177066D01*
X1309265Y177152D01*
X1309312Y177240D01*
X1309356Y177330D01*
X1309396Y177421D01*
X1309432Y177514D01*
X1309465Y177608D01*
X1309494Y177704D01*
X1309519Y177800D01*
X1309540Y177897D01*
X1309558Y177996D01*
X1309571Y178094D01*
X1309581Y178194D01*
X1309587Y178293D01*
X1309589Y178393D01*
X1309589Y184743D01*
X1309587Y184843D01*
X1309581Y184942D01*
X1309571Y185042D01*
X1309558Y185140D01*
X1309540Y185239D01*
X1309519Y185336D01*
X1309494Y185432D01*
X1309465Y185528D01*
X1309432Y185622D01*
X1309396Y185715D01*
X1309356Y185806D01*
X1309312Y185896D01*
X1309265Y185984D01*
X1309215Y186070D01*
X1309161Y186154D01*
X1309104Y186236D01*
X1309044Y186315D01*
X1308980Y186393D01*
X1308914Y186467D01*
X1308845Y186539D01*
X1308773Y186608D01*
X1308699Y186674D01*
X1308621Y186738D01*
X1308542Y186798D01*
X1308460Y186855D01*
X1308376Y186909D01*
X1308290Y186959D01*
X1308202Y187006D01*
X1308112Y187050D01*
X1308021Y187090D01*
X1307928Y187126D01*
X1307834Y187159D01*
X1307738Y187188D01*
X1307642Y187213D01*
X1307545Y187234D01*
X1307446Y187252D01*
X1307348Y187265D01*
X1307248Y187275D01*
X1307149Y187281D01*
X1307049Y187283D01*
X1303239Y187283D01*
D16*
X1173650Y126000D02*
X1167300Y119650D01*
X1167300Y106950D01*
X1173650Y100600D01*
X1186350Y100600D01*
X1192700Y106950D01*
X1192700Y119650D01*
X1186350Y126000D01*
X1167300Y157750D02*
X1167300Y170450D01*
X1167300Y157750D02*
X1173650Y151400D01*
X1186350Y151400D01*
X1192700Y157750D01*
X1173650Y151400D02*
X1167300Y145050D01*
X1167300Y132350D01*
X1173650Y126000D01*
X1186350Y126000D01*
X1192700Y132350D01*
X1192700Y145050D01*
X1186350Y151400D01*
X1186350Y176800D02*
X1173650Y176800D01*
X1167300Y170450D01*
X1186350Y176800D02*
X1192700Y170450D01*
X1192700Y157750D01*
X1167300Y94250D02*
X1167300Y81550D01*
X1173650Y75200D01*
X1186350Y75200D01*
X1192700Y81550D01*
X1173650Y100600D02*
X1167300Y94250D01*
X1186350Y100600D02*
X1192700Y94250D01*
X1192700Y81550D01*
D10*
X1149350Y82077D02*
X1145540Y70647D01*
X1141730Y82077D01*
X1137793Y69377D02*
X1132713Y69377D01*
X1125728Y70647D02*
X1125728Y82077D01*
X1128903Y82077D02*
X1122553Y82077D01*
X1117829Y70647D02*
X1112749Y70647D01*
X1117829Y70647D02*
X1117829Y82077D01*
X1112749Y82077D01*
X1114019Y76997D02*
X1117829Y76997D01*
X1104900Y70647D02*
X1104800Y70649D01*
X1104701Y70655D01*
X1104601Y70665D01*
X1104503Y70678D01*
X1104404Y70696D01*
X1104307Y70717D01*
X1104211Y70742D01*
X1104115Y70771D01*
X1104021Y70804D01*
X1103928Y70840D01*
X1103837Y70880D01*
X1103747Y70924D01*
X1103659Y70971D01*
X1103573Y71021D01*
X1103489Y71075D01*
X1103407Y71132D01*
X1103328Y71192D01*
X1103250Y71256D01*
X1103176Y71322D01*
X1103104Y71391D01*
X1103035Y71463D01*
X1102969Y71537D01*
X1102905Y71615D01*
X1102845Y71694D01*
X1102788Y71776D01*
X1102734Y71860D01*
X1102684Y71946D01*
X1102637Y72034D01*
X1102593Y72124D01*
X1102553Y72215D01*
X1102517Y72308D01*
X1102484Y72402D01*
X1102455Y72498D01*
X1102430Y72594D01*
X1102409Y72691D01*
X1102391Y72790D01*
X1102378Y72888D01*
X1102368Y72988D01*
X1102362Y73087D01*
X1102360Y73187D01*
X1104900Y70647D02*
X1105041Y70649D01*
X1105182Y70654D01*
X1105323Y70664D01*
X1105464Y70677D01*
X1105604Y70693D01*
X1105744Y70714D01*
X1105883Y70738D01*
X1106022Y70766D01*
X1106159Y70797D01*
X1106296Y70832D01*
X1106432Y70870D01*
X1106567Y70912D01*
X1106700Y70958D01*
X1106833Y71007D01*
X1106964Y71060D01*
X1107093Y71116D01*
X1107222Y71175D01*
X1107348Y71238D01*
X1107473Y71304D01*
X1107596Y71373D01*
X1107717Y71446D01*
X1107836Y71522D01*
X1107954Y71601D01*
X1108069Y71682D01*
X1108181Y71767D01*
X1108292Y71855D01*
X1108400Y71946D01*
X1108506Y72039D01*
X1108609Y72136D01*
X1108710Y72235D01*
X1108393Y79537D02*
X1108391Y79637D01*
X1108385Y79736D01*
X1108375Y79836D01*
X1108362Y79934D01*
X1108344Y80033D01*
X1108323Y80130D01*
X1108298Y80226D01*
X1108269Y80322D01*
X1108236Y80416D01*
X1108200Y80509D01*
X1108160Y80600D01*
X1108116Y80690D01*
X1108069Y80778D01*
X1108019Y80864D01*
X1107965Y80948D01*
X1107908Y81030D01*
X1107848Y81109D01*
X1107784Y81187D01*
X1107718Y81261D01*
X1107649Y81333D01*
X1107577Y81402D01*
X1107503Y81468D01*
X1107425Y81532D01*
X1107346Y81592D01*
X1107264Y81649D01*
X1107180Y81703D01*
X1107094Y81753D01*
X1107006Y81800D01*
X1106916Y81844D01*
X1106825Y81884D01*
X1106732Y81920D01*
X1106638Y81953D01*
X1106542Y81982D01*
X1106446Y82007D01*
X1106349Y82028D01*
X1106250Y82046D01*
X1106152Y82059D01*
X1106052Y82069D01*
X1105953Y82075D01*
X1105853Y82077D01*
X1105853Y82078D02*
X1105720Y82076D01*
X1105587Y82071D01*
X1105454Y82061D01*
X1105321Y82048D01*
X1105189Y82031D01*
X1105057Y82011D01*
X1104926Y81987D01*
X1104796Y81959D01*
X1104666Y81928D01*
X1104538Y81893D01*
X1104410Y81854D01*
X1104284Y81812D01*
X1104159Y81766D01*
X1104035Y81717D01*
X1103912Y81665D01*
X1103791Y81609D01*
X1103672Y81549D01*
X1103554Y81487D01*
X1103439Y81421D01*
X1103325Y81352D01*
X1103213Y81279D01*
X1103103Y81204D01*
X1102995Y81125D01*
X1107123Y77314D02*
X1107207Y77366D01*
X1107290Y77421D01*
X1107370Y77480D01*
X1107448Y77541D01*
X1107523Y77605D01*
X1107596Y77673D01*
X1107667Y77743D01*
X1107734Y77815D01*
X1107799Y77890D01*
X1107861Y77968D01*
X1107920Y78048D01*
X1107976Y78130D01*
X1108028Y78214D01*
X1108077Y78300D01*
X1108123Y78388D01*
X1108166Y78478D01*
X1108205Y78569D01*
X1108240Y78662D01*
X1108272Y78756D01*
X1108300Y78851D01*
X1108325Y78947D01*
X1108345Y79044D01*
X1108363Y79142D01*
X1108376Y79240D01*
X1108385Y79339D01*
X1108391Y79438D01*
X1108393Y79537D01*
X1103630Y75410D02*
X1103546Y75358D01*
X1103463Y75303D01*
X1103383Y75244D01*
X1103305Y75183D01*
X1103230Y75119D01*
X1103157Y75051D01*
X1103086Y74981D01*
X1103019Y74909D01*
X1102954Y74834D01*
X1102892Y74756D01*
X1102833Y74676D01*
X1102777Y74594D01*
X1102725Y74510D01*
X1102676Y74424D01*
X1102630Y74336D01*
X1102587Y74246D01*
X1102548Y74155D01*
X1102513Y74062D01*
X1102481Y73968D01*
X1102453Y73873D01*
X1102428Y73777D01*
X1102408Y73680D01*
X1102390Y73582D01*
X1102377Y73484D01*
X1102368Y73385D01*
X1102362Y73286D01*
X1102360Y73187D01*
X1103630Y75410D02*
X1107123Y77315D01*
X1095248Y82077D02*
X1095248Y70647D01*
X1098423Y82077D02*
X1092073Y82077D01*
X1124630Y152592D02*
X1144930Y152592D01*
X1144930Y109392D01*
X1124630Y109392D01*
X1124630Y152592D01*
X1134780Y152592D02*
X1134780Y158352D01*
X1134780Y109392D02*
X1134780Y103632D01*
D12*
X1137772Y122068D02*
X1126088Y122068D01*
X1137772Y122068D02*
X1137772Y125314D01*
X1137770Y125427D01*
X1137764Y125540D01*
X1137754Y125653D01*
X1137740Y125766D01*
X1137723Y125878D01*
X1137701Y125989D01*
X1137676Y126099D01*
X1137646Y126209D01*
X1137613Y126317D01*
X1137576Y126424D01*
X1137536Y126530D01*
X1137491Y126634D01*
X1137443Y126737D01*
X1137392Y126838D01*
X1137337Y126937D01*
X1137279Y127034D01*
X1137217Y127129D01*
X1137152Y127222D01*
X1137084Y127312D01*
X1137013Y127400D01*
X1136938Y127486D01*
X1136861Y127569D01*
X1136781Y127649D01*
X1136698Y127726D01*
X1136612Y127801D01*
X1136524Y127872D01*
X1136434Y127940D01*
X1136341Y128005D01*
X1136246Y128067D01*
X1136149Y128125D01*
X1136050Y128180D01*
X1135949Y128231D01*
X1135846Y128279D01*
X1135742Y128324D01*
X1135636Y128364D01*
X1135529Y128401D01*
X1135421Y128434D01*
X1135311Y128464D01*
X1135201Y128489D01*
X1135090Y128511D01*
X1134978Y128528D01*
X1134865Y128542D01*
X1134752Y128552D01*
X1134639Y128558D01*
X1134526Y128560D01*
X1134413Y128558D01*
X1134300Y128552D01*
X1134187Y128542D01*
X1134074Y128528D01*
X1133962Y128511D01*
X1133851Y128489D01*
X1133741Y128464D01*
X1133631Y128434D01*
X1133523Y128401D01*
X1133416Y128364D01*
X1133310Y128324D01*
X1133206Y128279D01*
X1133103Y128231D01*
X1133002Y128180D01*
X1132903Y128125D01*
X1132806Y128067D01*
X1132711Y128005D01*
X1132618Y127940D01*
X1132528Y127872D01*
X1132440Y127801D01*
X1132354Y127726D01*
X1132271Y127649D01*
X1132191Y127569D01*
X1132114Y127486D01*
X1132039Y127400D01*
X1131968Y127312D01*
X1131900Y127222D01*
X1131835Y127129D01*
X1131773Y127034D01*
X1131715Y126937D01*
X1131660Y126838D01*
X1131609Y126737D01*
X1131561Y126634D01*
X1131516Y126530D01*
X1131476Y126424D01*
X1131439Y126317D01*
X1131406Y126209D01*
X1131376Y126099D01*
X1131351Y125989D01*
X1131329Y125878D01*
X1131312Y125766D01*
X1131298Y125653D01*
X1131288Y125540D01*
X1131282Y125427D01*
X1131280Y125314D01*
X1131281Y125314D02*
X1131281Y122068D01*
X1131281Y125963D02*
X1126088Y128559D01*
X1132579Y133425D02*
X1132579Y137319D01*
X1132577Y137418D01*
X1132571Y137518D01*
X1132562Y137617D01*
X1132549Y137715D01*
X1132532Y137813D01*
X1132511Y137911D01*
X1132486Y138007D01*
X1132458Y138102D01*
X1132426Y138196D01*
X1132391Y138289D01*
X1132352Y138381D01*
X1132309Y138471D01*
X1132264Y138559D01*
X1132214Y138646D01*
X1132162Y138730D01*
X1132106Y138813D01*
X1132048Y138893D01*
X1131986Y138971D01*
X1131921Y139046D01*
X1131853Y139119D01*
X1131783Y139189D01*
X1131710Y139257D01*
X1131635Y139322D01*
X1131557Y139384D01*
X1131477Y139442D01*
X1131394Y139498D01*
X1131310Y139550D01*
X1131223Y139600D01*
X1131135Y139645D01*
X1131045Y139688D01*
X1130953Y139727D01*
X1130860Y139762D01*
X1130766Y139794D01*
X1130671Y139822D01*
X1130575Y139847D01*
X1130477Y139868D01*
X1130379Y139885D01*
X1130281Y139898D01*
X1130182Y139907D01*
X1130082Y139913D01*
X1129983Y139915D01*
X1129983Y139916D02*
X1129334Y139916D01*
X1129221Y139914D01*
X1129108Y139908D01*
X1128995Y139898D01*
X1128882Y139884D01*
X1128770Y139867D01*
X1128659Y139845D01*
X1128549Y139820D01*
X1128439Y139790D01*
X1128331Y139757D01*
X1128224Y139720D01*
X1128118Y139680D01*
X1128014Y139635D01*
X1127911Y139587D01*
X1127810Y139536D01*
X1127711Y139481D01*
X1127614Y139423D01*
X1127519Y139361D01*
X1127426Y139296D01*
X1127336Y139228D01*
X1127248Y139157D01*
X1127162Y139082D01*
X1127079Y139005D01*
X1126999Y138925D01*
X1126922Y138842D01*
X1126847Y138756D01*
X1126776Y138668D01*
X1126708Y138578D01*
X1126643Y138485D01*
X1126581Y138390D01*
X1126523Y138293D01*
X1126468Y138194D01*
X1126417Y138093D01*
X1126369Y137990D01*
X1126324Y137886D01*
X1126284Y137780D01*
X1126247Y137673D01*
X1126214Y137565D01*
X1126184Y137455D01*
X1126159Y137345D01*
X1126137Y137234D01*
X1126120Y137122D01*
X1126106Y137009D01*
X1126096Y136896D01*
X1126090Y136783D01*
X1126088Y136670D01*
X1126090Y136557D01*
X1126096Y136444D01*
X1126106Y136331D01*
X1126120Y136218D01*
X1126137Y136106D01*
X1126159Y135995D01*
X1126184Y135885D01*
X1126214Y135775D01*
X1126247Y135667D01*
X1126284Y135560D01*
X1126324Y135454D01*
X1126369Y135350D01*
X1126417Y135247D01*
X1126468Y135146D01*
X1126523Y135047D01*
X1126581Y134950D01*
X1126643Y134855D01*
X1126708Y134762D01*
X1126776Y134672D01*
X1126847Y134584D01*
X1126922Y134498D01*
X1126999Y134415D01*
X1127079Y134335D01*
X1127162Y134258D01*
X1127248Y134183D01*
X1127336Y134112D01*
X1127426Y134044D01*
X1127519Y133979D01*
X1127614Y133917D01*
X1127711Y133859D01*
X1127810Y133804D01*
X1127911Y133753D01*
X1128014Y133705D01*
X1128118Y133660D01*
X1128224Y133620D01*
X1128331Y133583D01*
X1128439Y133550D01*
X1128549Y133520D01*
X1128659Y133495D01*
X1128770Y133473D01*
X1128882Y133456D01*
X1128995Y133442D01*
X1129108Y133432D01*
X1129221Y133426D01*
X1129334Y133424D01*
X1129334Y133425D02*
X1132579Y133425D01*
X1132722Y133427D01*
X1132865Y133433D01*
X1133008Y133443D01*
X1133150Y133457D01*
X1133292Y133474D01*
X1133434Y133496D01*
X1133575Y133521D01*
X1133715Y133551D01*
X1133854Y133584D01*
X1133992Y133621D01*
X1134129Y133662D01*
X1134265Y133706D01*
X1134400Y133755D01*
X1134533Y133807D01*
X1134665Y133862D01*
X1134795Y133922D01*
X1134924Y133985D01*
X1135051Y134051D01*
X1135175Y134121D01*
X1135298Y134194D01*
X1135419Y134271D01*
X1135538Y134351D01*
X1135654Y134434D01*
X1135769Y134520D01*
X1135880Y134609D01*
X1135990Y134702D01*
X1136096Y134797D01*
X1136200Y134896D01*
X1136301Y134997D01*
X1136400Y135101D01*
X1136495Y135207D01*
X1136588Y135317D01*
X1136677Y135428D01*
X1136763Y135543D01*
X1136846Y135659D01*
X1136926Y135778D01*
X1137003Y135899D01*
X1137076Y136021D01*
X1137146Y136146D01*
X1137212Y136273D01*
X1137275Y136402D01*
X1137335Y136532D01*
X1137390Y136664D01*
X1137442Y136797D01*
X1137491Y136932D01*
X1137535Y137068D01*
X1137576Y137205D01*
X1137613Y137343D01*
X1137646Y137482D01*
X1137676Y137622D01*
X1137701Y137763D01*
X1137723Y137905D01*
X1137740Y138047D01*
X1137754Y138189D01*
X1137764Y138332D01*
X1137770Y138475D01*
X1137772Y138618D01*
M02*
