M48
;GenerationSoftware,Autodesk,EAGLE,9.6.2*%
;CreationDate,2023-08-07T11:13:01Z*%
FMAT,2
ICI,OFF
METRIC,TZ,000.000
T9C0.350
T8C0.660
T7C0.920
T6C1.016
T5C1.050
T4C1.118
T3C1.200
T2C2.300
T1C3.302
%
G90
M71
T1
X89311Y22409
X78520Y22366
T2
X92580Y14140
X92580Y27280
T3
X146350Y27415
X146350Y19965
T4
X75980Y4840
X78520Y4840
X81060Y4840
X86771Y4883
X89311Y4883
X91851Y4883
T5
X143320Y21265
X143320Y26115
T6
X108412Y5070
X105872Y5070
X103332Y5070
X100792Y5070
X100792Y7610
X31078Y18581
X100792Y12690
X100792Y15230
X100792Y17770
X108412Y20310
X100792Y20310
X103332Y20310
X100792Y10150
X33618Y10961
X33618Y13501
X33618Y16041
X33618Y18581
X31078Y10961
X31078Y13501
X31078Y16041
X105872Y20310
X123652Y20310
X121112Y20310
X118572Y20310
X116032Y20310
X113492Y20310
X110952Y20310
X59500Y20500
X59500Y17960
X59500Y15420
X59500Y12880
X59500Y10340
X133812Y20310
X131272Y20310
X128732Y20310
X126192Y20310
X121112Y5070
X123652Y5070
X126192Y5070
X128732Y5070
X131272Y5070
X133812Y5070
X118572Y5070
X116032Y5070
X118000Y16410
X113492Y5070
X110952Y5070
X110808Y27501
X113348Y27501
X115888Y27501
X133000Y8790
X133000Y11330
X133000Y13870
X133000Y16410
X118100Y2300
X118000Y13870
X118000Y11330
X118000Y8790
X3700Y14400
X3700Y8700
X100000Y27200
X142300Y3100
X141000Y16900
X71900Y2100
T7
X95290Y24210
X95290Y21710
X95290Y19710
X95290Y17210
T8
X113478Y9479
X110050Y9281
X110050Y16521
X128420Y1700
X121180Y1700
X113478Y16719
X126220Y27500
X118980Y27500
X132080Y2352
X139320Y2352
X3600Y17480
X3600Y24720
X105400Y16520
X105400Y9280
T9
X128500Y26400
X137900Y18400
X80900Y10300
X97500Y23100
X97700Y8500
X139900Y25300
X139100Y20800
X95000Y5600
X105000Y25700
X95900Y6800
X87900Y10800
X86600Y10200
X98400Y22407
X120100Y25700
X130000Y25700
X89100Y11017
X120900Y26400
M30